<svg width="643" height="339" viewBox="0 0 643 339" fill="none" xmlns="http://www.w3.org/2000/svg">
<path d="M289.1 37.8104C301.428 37.51 315.035 37.7753 327.45 37.7731L386.695 37.7373C394.195 37.7794 399.451 38.775 404.952 44.2194C411.872 51.0719 410.832 60.2695 410.82 69.1322L410.823 90.3762C410.873 115.912 411.124 142.333 410.804 167.82C418.955 172.063 418.179 177.126 418.33 185.105C420.098 187.691 426.926 193.679 424.854 196.473C422.801 197.584 413.809 197.165 410.723 197.187C410.814 207.561 410.848 217.935 410.823 228.31C410.832 234.398 411.052 241.352 410.757 247.353C421.89 222.128 437.902 212.368 464.144 205.594C463.874 202.493 463.886 200.54 463.98 197.412C460.856 197.357 457.761 196.799 454.813 195.759C425.623 185.779 428.537 146.332 434.326 121.946C434.684 120.441 435.344 118.701 435.855 117.217C434.392 115.9 432.339 114.127 431.08 112.663C428.345 109.434 427.02 105.242 427.4 101.028C428.201 91.9983 434.91 90.309 442.565 91.0849C443.133 75.248 456.882 76.1228 467.845 80.9159C472.348 82.8836 478.168 85.1882 482.209 87.9015C482.479 87.1447 482.781 86.3989 483.11 85.6659C485.961 79.3109 493.961 82.5622 498.799 84.7142C507.716 88.6808 510.14 92.7758 513.43 101.654C517.31 104.514 522.309 104.915 525.21 111.012C530.4 121.924 525.879 136.043 522.704 146.598C526.268 153.866 527.056 161.025 520.547 167.3C516.846 170.871 512.645 170.611 507.882 170.375C507.154 180.38 507.417 190.529 507.449 200.558C507.452 201.779 507.571 203.098 507.725 204.313C511.006 205.679 514.84 206.343 518.259 207.438C530.55 211.377 542.255 217.259 550.964 227.044C564.258 241.984 578.665 281.714 577.425 301.553C577.008 308.23 574.527 314.087 569.466 318.547C577.799 319.09 586.053 318.936 594.392 318.864C596.728 318.842 601.535 318.61 603.117 320.415L602.841 321.058C600.517 323.029 594.697 322.323 591.588 322.314L575.887 322.311L525.106 322.32L367.182 322.314L233.731 322.317L191.65 322.298C184.674 322.285 177.512 322.182 170.549 322.292C167.472 322.339 161.774 325.757 158.692 327.217C148.444 332.063 134.849 336.373 123.437 335.488C112.544 334.643 107.794 329.549 101.245 322.009C97.9774 322.433 74.766 322.744 73.264 321.614C72.7789 320.741 72.7739 321.02 72.8213 320.154C73.5076 319.382 75.0367 318.971 76.0297 318.927C83.8628 318.582 92.1973 319.668 99.9818 318.588C99.5969 317.335 98.7426 314.63 98.4565 313.367C93.7766 292.719 103.893 260.454 114.183 242.337C124.512 224.149 141.865 214.78 161.377 209.79L160.543 206.447C154.485 208.791 146.008 207.016 139.927 205.406C133.498 203.703 126.522 198.89 122.158 193.918C117.178 188.32 114.685 180.938 115.253 173.467C116.184 160.094 124.753 155.052 129.039 144.478C133.107 134.442 129.909 120.697 138.459 111.228C141.101 107.917 146.397 104.683 150.668 103.862C157.881 102.477 157.661 99.1519 162.396 95.0587C171.469 87.2184 184.382 85.6148 195.948 86.3091C217.474 87.6007 237.053 102.736 240.337 124.622C241.041 129.237 241.522 135.457 243.306 139.719C248.546 152.232 259.31 161.496 257.392 176.33C256.691 183.834 253.488 190 247.471 194.856C233.581 206.065 220.47 205.622 204.041 204.276L203.996 209.514C207.594 211.149 212.286 212.823 216.066 214.193C237.163 221.838 250.922 239.135 268.057 252.145L268.11 117.499L268.096 77.7745C268.098 70.9351 267.776 63.6272 268.42 56.8512C269.489 45.6049 278.181 38.4985 289.1 37.8104Z" fill="black"/>
<path d="M372.799 48.7783C376.764 48.6873 380.733 48.6179 384.698 48.5705C389.2 48.5548 393.282 48.8333 396.666 52.2769C398.377 54.0184 399.47 56.2699 399.781 58.6894C400.205 61.8505 400.045 68.0197 400.045 71.4788L400.029 93.8283L400.076 167.794C391.48 167.717 382.886 167.699 374.29 167.738C365.358 167.75 351.151 165.504 350.124 177.629C348.309 199.088 356.57 197.163 373.279 197.127L399.966 197.097L400.076 246.274C400.107 251.01 400.396 255.988 396.732 259.56C395.417 260.856 393.024 262.502 391.119 262.706C385.119 263.346 378.491 263.08 372.45 263.066L336.548 263.055C332.247 263.101 327.943 263.084 323.641 263.005C327.051 255.143 330.91 248.41 334.275 239.984C333.173 238.993 332.495 238.467 331.283 237.611C338.357 233.538 346.68 225.806 350.84 218.631C353.725 213.65 350.752 210.822 348.159 207.388C345.459 203.814 347.773 202.406 342.146 199.991C341.22 197.889 340.661 196.871 339.157 195.139C338.288 194.801 336.903 194.422 335.971 194.137C338.382 189.454 343.336 184.238 342.994 178.658C342.897 177.043 342.184 175.504 340.928 174.462C340.093 173.77 339.057 173.472 337.98 173.584C331.559 174.25 322.53 190.803 317.51 195.588C314.053 198.885 309.24 199.162 307.006 203.962C305.466 207.267 304.914 219.814 304.83 219.9C304.088 220.663 301.327 220.679 300.144 222.038C298.481 223.948 297.058 226.287 295.572 228.35C290.154 235.869 285.145 243.971 279.175 251.045L279.171 124.052L279.135 82.1466C279.124 74.8603 279.012 67.5586 279.232 60.2776C279.437 53.5052 283.632 49.8094 290.056 48.7447C294.853 48.4569 301.148 48.633 305.984 48.7058C306.874 57.1585 309.828 60.2789 318.411 60.1766C333.192 59.9998 348.021 60.4415 362.793 59.9898C370.366 59.7582 372.017 55.3857 372.799 48.7783Z" fill="white"/>
<path d="M298.607 127.25C299.285 127.196 299.965 127.159 300.646 127.138C313.404 126.845 326.662 127.286 339.509 127.097C346.686 126.992 355.019 126.93 362.199 127.392C364.268 127.619 366.205 128.273 367.712 129.838C371.995 134.549 370.252 142.336 370.563 148.338C371.182 160.294 364.752 161.432 355.345 161.389L309.947 161.395C302.539 161.4 295.081 161.492 287.675 161.444C285.834 161.432 284.885 161.412 283.65 160.068C283.143 157.74 288.906 152.43 290.74 149.541C290.812 141.065 288.436 130.26 298.607 127.25Z" fill="black"/>
<path d="M300.232 130.069C300.948 130.051 301.663 130.037 302.379 130.026C321.692 129.758 341.201 130.084 360.516 130.103C369.954 130.113 367.468 142.135 367.722 148.429C368.13 158.482 362.476 158.396 354.749 158.297L311.253 158.372C303.497 158.375 295.048 158.223 287.366 158.489C289.228 156.256 292.311 152.771 293.716 150.385C294.231 143.2 290.986 131.671 300.232 130.069Z" fill="white"/>
<path d="M307.082 137.958C323.622 137.705 340.448 137.952 357.003 138.023C358.042 138.027 358.184 138.32 358.746 139.034C358.727 139.981 358.837 139.606 358.146 140.476C357.151 141.113 355.741 140.935 354.52 140.91L323.39 140.94C320.181 140.944 304.284 141.518 302.849 139.961C302.782 137.693 305.513 137.962 307.082 137.958Z" fill="black"/>
<path d="M304.196 147.658C315.676 147.24 328.169 147.779 339.707 147.78C340.941 147.78 341.217 147.976 341.471 149.089C341.022 150.412 341.355 150.022 340.303 150.669L317.55 150.727C314.558 150.734 303.973 151.468 302.418 149.274L302.606 148.64C303.227 148.117 303.461 148.027 304.196 147.658Z" fill="black"/>
<path d="M378.824 230.046C386.437 228.863 393.564 234.091 394.717 241.708C395.872 249.324 390.616 256.429 382.993 257.555C375.411 258.675 368.35 253.454 367.204 245.878C366.055 238.302 371.251 231.223 378.824 230.046Z" fill="black"/>
<path d="M374.613 237.143C377.147 237.755 386.811 242.251 389.219 243.664C386.509 245.411 382.971 246.871 379.979 248.172L375.244 250.141L375.584 244.641C378.478 244.371 380.167 244.131 382.999 243.509C380.717 243.084 378.362 243.026 376.039 242.901C375.204 240.889 374.817 239.3 374.613 237.143Z" fill="white"/>
<path d="M310.052 100.884C310.79 100.992 310.935 101.038 311.623 101.329C313.017 102.924 314.031 108.915 314.63 111.393C315.089 109.156 316.185 103.399 316.976 101.612C317.996 101.042 317.685 101.206 318.973 101.255C319.462 102.988 318.006 107.845 317.629 109.775C317.29 111.496 316.404 116.387 314.053 115.826C312.725 114.414 311.539 108.23 311.016 106.032C309.77 107.537 309.718 115.168 307.032 116.266L306.361 115.978C304.945 113.931 301.986 102.622 303.494 100.785C305.979 102.259 306.78 109.714 307.164 112.404C307.985 108.51 308.702 104.624 310.052 100.884Z" fill="black"/>
<path d="M360.79 77.4505C361.53 77.4446 362.218 77.4989 362.953 77.5472C365.097 78.6028 368.202 84.9613 369.537 87.3908C369.511 85.2952 369.009 78.868 370.281 77.5459C371.373 77.5475 371.376 77.362 372.124 77.9364C372.535 80.726 372.369 88.4492 372.391 91.7265C371.574 91.7378 370.959 91.6935 370.158 91.6314C368.24 90.5915 364.95 84.5689 363.581 82.3585C363.593 84.1414 363.923 90.9496 363.003 91.9921C361.779 91.9425 361.895 92.1299 361.012 91.5259C360.501 88.7568 360.761 80.5856 360.79 77.4505Z" fill="black"/>
<path d="M379.7 77.2634C382.409 77.2628 386.462 78.1232 385.838 81.818C383.966 82.3277 381.948 79.1223 378.959 80.0536C376.739 81.6629 376.736 86.4309 378.205 88.5917C379.863 91.0315 383.282 89.9787 383.502 87.1767C382.073 85.8018 382.469 87.4943 380.271 85.9305L380.685 84.9336C381.756 84.0353 384.707 84.3397 386.196 84.389L386.236 90.3925C384.123 91.6527 383.112 91.8511 380.78 92.3932C377.775 91.702 375.596 90.6382 374.745 87.4598C373.452 82.6215 374.774 78.5887 379.7 77.2634Z" fill="black"/>
<path d="M362.089 100.993C362.585 101.057 363.151 101.184 363.647 101.284C365.373 102.622 368.786 113.182 369.22 115.715L368.29 116.18C365.543 115.356 367.147 112.704 364.435 112.536L360.344 112.701C359.986 113.824 359.801 114.611 359.129 115.585C357.992 116.092 358.4 115.974 357.075 115.774L356.761 115.284C357.05 113.598 361.122 102.391 362.089 100.993Z" fill="black"/>
<path d="M362.852 105.079C363.552 105.821 364.538 109.064 364.658 110.119L364.184 110.461C362.827 110.418 362.545 110.651 361.669 109.978C361.323 108.925 362.447 106.438 362.852 105.079Z" fill="white"/>
<path d="M322.998 77.405C323.695 77.3928 325.186 77.3356 325.494 78.0764C326.357 80.1704 330.596 90.1219 330.341 91.557C329.525 92.0162 329.362 92.159 328.448 92.0467C327.095 90.798 327.76 90.4863 326.731 88.7351L325.974 88.5499L321.224 88.5606C320.941 89.9587 320.957 90.991 319.914 91.762C319.136 91.7867 318.643 91.8938 317.99 91.4933C317.72 89.7562 322.049 79.7375 322.998 77.405Z" fill="black"/>
<path d="M323.845 81.1996C324.636 81.7859 325.484 84.9841 325.44 86.0837L324.636 86.5869C323.556 86.4095 323.23 86.5526 322.552 85.9063C322.373 84.7381 323.399 82.6137 323.845 81.1996Z" fill="white"/>
<path d="M304.596 77.2474C305.525 77.303 306.11 77.2192 306.797 77.8033C307.521 79.1455 307.243 81.5659 307.216 83.2364C309.177 83.3027 311.332 83.2571 313.312 83.2518C313.286 81.6927 313.017 78.5523 313.858 77.4154C316.455 77.2603 316.216 78.965 316.094 81.2753C315.955 83.9493 316.718 90.3234 315.305 92.3009C314.147 92.0426 314.332 92.2545 313.569 91.5174C313.062 89.8149 313.306 87.4708 313.316 85.5661C311.274 85.5222 309.202 85.5746 307.158 85.6035C307.227 87.3408 307.558 90.1916 306.811 91.6129C305.892 92.0376 306.202 91.9048 304.986 91.8122C304.006 90.7217 304.554 79.4757 304.596 77.2474Z" fill="black"/>
<path d="M338.573 101.342C339.942 101.378 340.231 101.16 341.085 101.865C341.641 103.175 341.321 105.615 341.299 107.275C343.299 107.287 345.364 107.235 347.371 107.209C347.298 105.424 346.881 102.797 347.898 101.496C348.843 101.371 349.016 101.276 349.842 101.652C349.873 101.838 349.904 102.026 349.93 102.215C350.146 103.758 350.231 115.017 349.609 115.839C348.322 115.738 348.41 115.945 347.54 115.263C346.997 113.767 347.399 111.347 347.487 109.561C345.449 109.489 343.336 109.489 341.292 109.465C341.321 111.037 341.591 114.599 340.809 115.788C339.54 115.817 339.6 116.015 338.683 115.439C338.303 111.848 338.536 105.184 338.573 101.342Z" fill="black"/>
<path d="M295.807 77.2565C298.416 77.1401 303.73 78.6781 302.084 81.9171C301.03 82.4008 300.568 82.3462 299.801 81.4824C293.239 74.0881 290.94 89.3406 296.825 89.7807C298.035 89.8714 298.405 89.4869 299.123 88.85C299.791 87.6227 299.899 87.2702 301.232 87.1694C302.743 88.4686 301.574 90.3187 300.266 91.287C299.4 91.9283 297.866 92.1505 296.788 92.3571C296.268 92.2221 294.614 91.8279 294.265 91.5862C289.072 87.9918 289.457 79.3276 295.807 77.2565Z" fill="black"/>
<path d="M325.453 101.248C327.927 101.267 335.861 100.48 337.073 102.448L336.712 103.24C335.729 103.801 333.729 103.582 332.508 103.551L332.526 112.041C332.574 113.572 332.8 114.596 332.021 115.799C330.888 115.86 331.315 115.985 330.407 115.346C329.195 113.204 329.738 106.551 329.654 103.495C328.326 103.518 326.944 103.999 325.839 103.504C325.224 102.52 325.434 102.61 325.453 101.248Z" fill="black"/>
<path d="M341.905 77.5183C343.974 77.4734 351.989 77.1074 353.455 77.7964C353.703 78.8197 353.735 78.4346 353.471 79.347C352.356 79.8835 350.441 79.6798 349.135 79.6456L349.088 87.3252C349.123 88.7813 349.185 89.9298 348.972 91.385C348.432 92.1572 348.749 91.9271 347.691 92.1735L347.041 91.7337C345.93 89.6247 346.457 82.9323 346.309 79.8056C345.154 79.8458 343.616 80.0009 342.567 79.6233C341.776 78.7004 342.011 78.9453 341.905 77.5183Z" fill="black"/>
<path d="M329.66 77.474C332.156 77.3843 340.021 76.6077 341.179 78.7632L340.922 79.3511C339.836 79.9039 338.131 79.751 336.856 79.7441L336.815 87.9674C336.84 89.1636 337.038 91.0052 336.394 91.9321C335.311 92.0586 335.707 92.1666 334.891 91.5918C333.745 89.5158 334.234 82.5264 334.197 79.7105C333.041 79.7623 331.87 79.8744 330.737 79.6706C329.704 78.8592 330.008 79.0507 329.66 77.474Z" fill="black"/>
<path d="M371.116 101.226C372.08 101.222 372.67 101.144 373.546 101.585C374.155 102.784 373.872 113.729 373.857 115.881C372.491 115.899 372.246 116.124 371.229 115.542C370.855 112.824 371.094 104.373 371.116 101.226Z" fill="black"/>
<path d="M321.152 101.236C322.159 101.215 322.734 101.138 323.691 101.504C324.203 102.654 323.902 113.851 323.886 115.744C322.866 115.92 322.125 116.112 321.327 115.434C320.966 113.067 321.167 104.176 321.152 101.236Z" fill="black"/>
<path d="M355.279 77.5211C356.447 77.5356 357 77.346 357.885 77.8727C358.24 81.2646 358.036 88.274 358.024 91.9431C356.943 91.9986 356.674 92.0322 355.578 91.7585C355.254 90.5692 355.301 79.434 355.279 77.5211Z" fill="black"/>
<path d="M160.963 213.176C162.241 213.5 163.088 215.777 163.951 217.105C165.73 219.834 167.776 222.377 170.06 224.7C175.263 229.966 183.22 235.936 191.042 235.764C203.865 235.483 204.313 222.963 204.256 213.255C211.157 216.203 217.664 218.042 224.511 221.824C233.138 226.59 239.445 232.012 246.886 238.27C254.572 244.678 262.13 251.239 269.554 257.95C270.873 259.121 273.102 261.318 274.811 261.217C277.827 259.093 286.073 247.114 288.704 243.55C293.799 236.647 298.18 230.287 303.799 223.624C309.371 228.062 317.174 231.438 323.001 235.85C325.594 237.811 327.647 238.512 330.04 241.097C329.694 242.103 328.935 244.177 328.476 245.163C319.585 264.213 306.061 293.619 286.204 302.875C274.078 308.245 261.818 301.134 251.094 295.809C248.153 294.349 242.108 289.345 239.218 290.523C237.875 293.064 237.355 314.758 237.011 319.03C216.554 318.861 196.169 319.118 175.692 318.732C181.611 315.405 193.983 308.307 199.434 303.6C200.183 302.954 199.45 300.515 199.175 299.424C202.267 298.963 207.683 298.272 211.127 297.467C219.266 295.565 233.206 291.376 238.417 284.132C239.465 282.676 238.459 279.922 238.823 279.024C239.106 278.325 240.921 275.671 241.462 274.83C244.362 270.14 240.377 269.149 242.418 263.953C244.13 259.591 237.025 257.865 236.949 257.726C233.012 250.513 227.819 254.007 221.424 256.954C218.047 258.511 213.023 261.622 207.77 262.692C208.629 258.347 210.84 251.369 206.59 248.363C202.862 246.073 200.659 250.291 198.852 252.292C193.503 258.215 190.887 265.652 186.823 271.957C185.674 270.84 184.495 269.847 183.28 268.807C171.882 272.435 157.848 278.217 146.385 282.511C147.146 278.58 149.808 268.689 150.163 264.303C150.221 263.592 148.641 263.089 147.424 263.71C146.281 265.91 142.918 284.178 142.19 284.493C139.901 285.484 127.453 288.142 126.434 291.088C126.759 292.116 126.581 291.746 127.584 292.584C129.341 293.147 141.026 288.178 143.577 287.235L182.133 272.64C183.859 275.06 185.961 280.36 187.292 283.243L196.25 302.358C189.303 306.19 182.101 311.592 175.283 315.276C163.928 321.476 152.696 326.551 140.341 330.233C124.904 334.832 105.971 331.84 101.949 313.449C97.3062 292.218 107.135 263.301 117.021 244.505C125.533 228.32 143.7 217.632 160.963 213.176Z" fill="white"/>
<path d="M507.038 207.984C521.191 210.959 535.963 216.805 546.387 227.17C560.314 241.021 574.217 279.919 574.254 299.619C574.267 305.162 572.659 311.032 568.615 315.022C566.594 317.012 564.738 317.998 561.963 318.478C554.92 319.686 542.368 318.964 534.808 318.964L479.49 318.958C478.79 313.81 478.599 300.334 478.756 294.872C500.027 291.545 521.697 289.945 543.021 286.977C543.793 286.87 544.089 286.011 544.368 285.426C544.286 284.311 544.475 284.702 543.68 283.953C541.555 283.192 536.158 284.592 533.172 284.822C530.513 276.991 528.001 269.074 525.295 261.265C525.047 260.558 524.328 260.485 523.722 260.357C522.551 260.763 522.918 260.473 522.237 261.383C522.095 263.63 528.302 280.482 529.461 285.178C528.167 285.404 526.868 285.536 525.561 285.659C515.938 286.567 506.363 287.844 496.768 289.012C492.583 289.574 480.181 290.95 475.726 292.293C474.975 292.519 475.073 295.501 475.085 296.589C457.707 297.523 444.675 298.22 429.846 308.948C430.151 303.002 434.27 265.642 432.995 263.653C432.75 263.274 432.537 263.319 432.11 263.223C430.022 263.965 429.959 266.041 429.912 267.896C429.837 270.817 429.501 273.759 429.224 276.668C428.097 287.929 427.184 299.211 426.487 310.506C425.404 311.652 423.849 313.219 423.083 314.551L422.986 314.727C422.245 316.014 422.477 316.742 422.71 318.249L422.386 318.591C419.793 319.012 414.525 318.93 411.768 318.936C405.602 318.983 399.435 318.924 393.269 318.757C394.038 313.54 397.09 303.797 398.563 298.314C403.398 280.315 408.327 259.082 416.722 242.469C426.911 222.3 443.833 215.335 463.902 208.818C464.144 211.395 464.458 213.943 465.318 216.398C468.957 226.757 480.096 229.71 489.719 226.071C498.79 222.64 503.088 216.402 507.038 207.984Z" fill="white"/>
<path d="M438.515 118.198C453.089 122.808 465.918 122.298 480.837 120.412C484.922 119.896 488.928 119.018 493.05 118.512C494.159 122.846 494.08 127.807 494.787 132.305C495.977 139.893 496.978 145.832 502.253 151.62C506.193 147.804 511 143.379 516.774 146.611C519.091 147.908 520.78 150.094 521.448 152.664C522.902 158.14 520.136 165.178 514.35 166.781C513.559 167.001 512.78 167.236 511.982 167.448C508.41 166.607 506.234 165.887 503.317 163.616C502.78 163.198 501.477 164.037 501.254 165.206C501.744 166.963 503.053 167.614 504.551 168.482C504.152 173.235 503.958 178.003 503.964 182.772C503.939 188.633 504.833 203.117 503.245 207.784C501.226 213.721 495.6 219.782 489.584 222.419C480.325 226.076 470.341 223.136 467.886 212.646C467.305 210.161 467.421 208.372 467.459 205.834C473.443 204.662 477.588 202.825 481.898 198.414C483.493 196.782 486.507 193.486 486.501 191.194C486.096 190.12 486.385 190.457 485.449 189.89C483.898 190.077 481.11 191.462 479.462 192.128C471.145 195.495 461.83 195.399 453.588 191.86C434.474 183.721 432.003 158.851 434.458 141.031C434.684 139.386 434.791 135.674 435.331 134.409C438.543 136.7 440.822 134.852 444.599 134.045C446.084 135.202 446.379 135.788 448.222 135.285C449.029 134.42 448.838 134.848 448.945 133.681C447.108 129.287 438.822 131.844 435.46 132.937C436.301 128.166 437.57 123.049 438.515 118.198Z" fill="white"/>
<path d="M469.437 165.63C470.781 166.286 471.107 166.548 471.293 167.96C470.825 169.222 469.723 169.943 468.596 170.599C463.195 173.791 456.731 174.651 450.687 172.983C449.789 172.388 449.507 172.265 449.073 171.24C449.08 170.273 448.935 170.604 449.557 169.975C451.742 169.427 451.984 170.369 454.508 170.543C460.85 170.981 464.662 169.623 469.437 165.63Z" fill="black"/>
<path d="M453.679 142.975C454.301 143.088 454.675 143.269 455.262 143.508C457.145 146.366 452.499 151.866 452.288 155.152C452.113 157.867 455.999 157.089 457.466 158.777C457.255 160.024 457.28 159.691 456.326 160.754C443.708 161.672 450.97 148.562 453.679 142.975Z" fill="black"/>
<path d="M469.412 132.794C472.395 132.625 482.966 134.3 480.605 138.665C479.697 139.059 479.566 139.124 478.586 139.119C474.046 135.2 468.184 137.158 466.473 134.969C466.819 133.756 468.335 133.26 469.412 132.794Z" fill="black"/>
<path d="M513.154 150.984C514.497 151.01 516.246 151.557 517.188 152.503L517.072 153.024C512.033 156.666 511.961 153.567 509.395 160.616C509.213 160.878 508.887 161.089 508.62 161.296C507.559 161.227 507.97 161.368 507.069 160.698C505.188 156.659 509.879 152.533 513.154 150.984Z" fill="black"/>
<path d="M441.833 140.24C446.769 141.272 446.785 146.803 442.634 148.775C437.325 147.606 437.758 143.058 441.833 140.24Z" fill="black"/>
<path d="M470.423 142.009C475.358 143.503 474.822 147.423 471.534 150.467C466.913 150.87 467.076 145 470.423 142.009Z" fill="black"/>
<path d="M176.91 125.055C193.232 133.09 213.049 135.684 230.956 132.702C232.516 136.187 231.26 135.481 231.932 139.153C234.615 153.814 235.724 171.454 227.378 184.503C218.633 198.176 205.006 202.127 189.75 197.596C187.611 196.961 183.378 194.558 182.213 194.805C181.912 195.14 181.363 195.617 181.381 196.024C181.717 203.997 195.82 209.606 200.673 210.795C201.024 214.674 200.932 217.345 200.71 221.235C199.711 236.784 185.552 233.645 177.113 226.283C172.638 222.378 167.466 217.435 165.189 211.855C164.72 210.705 164.48 207.044 164.349 205.68C178.453 195.803 172.034 180.964 164.783 168.973C163.022 169.659 160.459 171.443 158.789 172.525C155.733 172.487 153.399 172.487 150.677 170.779C144.007 166.593 143.433 157.077 150.28 152.691C154.031 150.288 156.74 150.384 160.243 153.285C161.757 154.568 164.22 156.486 166.156 154.62C169.542 151.359 172.297 145.317 173.946 141.013C175.862 136.014 176.249 130.276 176.91 125.055Z" fill="white"/>
<path d="M199.512 170.182C200.099 170.138 200.687 170.117 201.276 170.117C204.463 170.125 207.846 171.545 210.955 171.907C220.384 173.004 225.824 175.077 216.652 183.356C206.355 191.193 190.728 175.275 199.512 170.182Z" fill="black"/>
<path d="M200.668 175.334C204.481 175.612 210.655 177.963 211.985 181.898C206.672 182.885 202.624 180.289 200.668 175.334Z" fill="white"/>
<path d="M213.088 149.212C214.084 149.678 214.804 151.294 215.353 152.303C218.692 158.437 221.782 164.814 212.633 167.074C211.618 166.963 211.239 166.593 210.698 165.853L210.815 165.114C212.509 162.947 216.322 163.955 214.951 159.733C213.688 155.847 209.691 152.774 213.088 149.212Z" fill="black"/>
<path d="M195.213 139.452C197.045 139.365 200.46 139.29 200.368 142.003C198.374 144.224 193.945 141.853 190.182 144.572L189.914 144.768C189.164 145.47 188.72 146.026 187.687 146.117C186.516 145.752 186.885 146.038 186.248 145.089C186.004 141.15 192.348 139.972 195.213 139.452Z" fill="black"/>
<path d="M223.224 137.853C226.132 137.361 230.059 138.204 231.127 141.324C230.921 142.301 231.141 141.963 230.263 142.567C229.148 142.767 228.106 142.154 227.028 141.691C224.201 141.188 219.199 142.816 218.075 140.749C218.283 138.603 221.537 138.255 223.224 137.853Z" fill="black"/>
<path d="M152.103 156.646C157.241 156.618 163.655 161.919 159.846 167.255C157.781 165.92 157.677 164.304 157.111 161.982C155.016 160.527 151.383 160.182 150.703 158.079C151.216 157.033 151.048 157.345 152.103 156.646Z" fill="black"/>
<path d="M195.94 148.755C200.558 149.437 201.288 155.146 196.823 156.964C191.786 156.598 192.091 151.041 195.94 148.755Z" fill="black"/>
<path d="M224.437 147.138C229.22 147.794 229.932 152.881 226.061 155.581C221.239 155.237 221.047 149.988 224.437 147.138Z" fill="black"/>
<path d="M402.399 269.932L402.685 270.387C397.872 285.718 393.74 303.285 389.765 318.892L240.527 319.081C240.469 315.292 240.75 310.373 240.968 306.579C241.222 302.453 241.506 298.329 241.821 294.207C242.213 294.489 242.611 294.76 243.017 295.022C246.599 297.342 250.91 299.507 254.802 301.325C263.579 305.425 272.289 309.585 282.139 307.411C298.611 303.775 309.047 287.331 317.544 274.09C321.086 274.321 327.258 274.118 331.007 274.109L357.59 274.063L378.648 274.087C388.732 274.102 393.379 275.099 402.399 269.932Z" fill="white"/>
<path d="M288.606 40.9217C290.375 40.8241 292.6 40.8329 294.391 40.8238L361.154 40.8291L380.613 40.7952C388.817 40.783 396.337 39.7672 402.544 46.1194C408.914 52.6363 407.825 61.4601 407.818 69.7389L407.793 91.1097V167.867L402.955 167.732C402.5 142.165 402.864 115.472 402.864 89.8042L402.861 69.6184C402.855 62.2304 403.969 53.5469 397.184 48.6452C395.414 47.3856 393.398 46.5139 391.266 46.0867C387.175 45.2374 376.918 45.5349 372.391 45.771C368.752 46.847 370.039 52.2346 367.986 54.805C365.392 58.0525 357.958 57.1786 354.055 57.1607L338.316 57.0929C331.132 57.0904 323.836 57.3968 316.677 57.0885C310.53 56.8239 309.685 53.099 309.09 48.0966C306.281 44.3208 301.85 45.7474 297.444 45.587C274.879 44.7643 276.071 55.7247 276.116 72.8458L276.152 94.8032L276.172 166.677L276.096 224.95C276.123 233.116 275.704 246.646 276.762 254.223C275.738 255.921 274.954 257.766 272.715 256.918C270.538 254.768 271.242 247.084 271.246 243.822L271.25 224.58L271.24 161.447L271.241 93.1412L271.211 71.13C271.207 66.3988 271.113 61.8512 271.46 57.1253C272.152 47.6873 279.484 41.7617 288.606 40.9217Z" fill="white"/>
<path d="M327.93 48.4905C333.588 48.4324 340.887 48.1251 346.551 48.6503C347.236 48.714 347.264 48.9594 347.562 49.451C347.55 50.5644 347.707 50.4347 347.204 51.3033L346.382 51.4847C340.498 51.5406 333.685 51.8912 327.808 51.1965C326.702 51.0656 326.549 50.4953 326.395 49.5913C327.07 48.574 326.677 48.881 327.93 48.4905Z" fill="black"/>
<path d="M353.101 48.1424C353.776 47.918 354.52 48.0743 355.047 48.5514C355.575 49.0288 355.804 49.753 355.65 50.447C355.493 51.1413 354.975 51.6978 354.294 51.9041C353.261 52.2167 352.168 51.6413 351.842 50.6124C351.515 49.5835 352.077 48.483 353.101 48.1424Z" fill="black"/>
<path d="M366.158 170.896C375.037 170.736 384.211 170.922 393.115 170.858C396.707 170.832 406.167 170.676 409.259 171.22C410.657 171.465 411.95 172.118 412.977 173.098C416.019 175.997 415.259 181.738 415.332 185.994C416.817 188.535 419.796 191.758 421.809 194.056C417.724 194.166 413.184 194.045 409.062 194.012L376.381 194.061C370.824 194.068 365.339 194.193 359.857 193.833C352.375 193.495 353.21 187.044 353 181.599C352.592 171.1 357.81 171.034 366.158 170.896Z" fill="white"/>
<path d="M365.653 180.962C374.485 180.921 383.317 180.931 392.148 180.99C394.795 180.998 405.404 180.216 406.911 182.136C407.015 184.219 405.376 184.148 403.837 184.183L377.361 184.224C374.865 184.227 363.235 184.801 361.958 183.315C361.731 180.807 363.92 181.046 365.653 180.962Z" fill="black"/>
<path d="M204.316 251.029C208.625 254.057 203.701 261.413 202.891 265.022C202.765 265.585 203.272 265.917 203.615 266.241C209.505 267.994 224.083 258.736 230.089 256.862C231.577 256.397 232.76 257.135 233.071 258.601C231.863 262.959 218.856 267.305 215.527 270.237C215.293 271.162 215.271 270.767 215.723 271.746C221.077 274.769 235.108 259.476 239.138 262.218C241.208 269.7 219.536 275.429 218.394 278.323C218.788 279.213 218.84 279.335 219.693 279.785C222.13 280.222 231.232 275.273 233.628 273.809C235.508 272.577 237.794 270.658 239.596 269.225C236.65 282.222 223.517 280.726 220.745 284.665C220.736 285.839 220.585 285.442 221.191 286.271C223.909 287.448 232.564 282.343 236.625 281.109C227.896 292.464 209.708 293.628 197.395 296.705C194.505 291.81 189.63 280.706 187.752 275.244C189.927 272.992 191.608 269.828 193.193 267.148C195.834 262.679 200.685 254.557 204.316 251.029Z" fill="white"/>
<path d="M402.817 197.202L407.875 197.224C407.467 214.456 407.997 232.107 407.947 249.18C407.906 263.722 400.961 271.514 386.422 271.012C380.99 270.825 374.629 271.056 369.128 271.062L323.933 271.108L319.268 271.082C320.043 269.421 320.969 267.684 321.805 266.04L323.308 266.066C343.032 266.383 363.276 265.655 382.946 266.078C406.066 266.574 402.845 254.148 402.861 237.156L402.817 197.202Z" fill="white"/>
<path d="M467.384 300.524C470.285 300.37 472.41 300.304 475.305 300.413C475.713 305.679 475.958 313.664 475.968 318.921C471.993 319.269 465.626 319.084 462.024 318.208C454.455 316.362 450.624 315.87 443.133 318.428C441.494 318.983 436.662 318.575 434.499 318.431C438.044 315.782 441.155 313.895 445.321 312.358C447.444 311.576 449.912 310.969 451.337 309.205C451.205 308.58 451.152 308.518 450.832 307.955C447.62 306.321 436.05 312.806 433.089 314.981C432.173 315.656 430.788 318.356 430.191 319.508C428.405 318.83 426.257 318.469 425.642 316.57C426.98 311.966 447.748 303.125 452.74 302.214C457.073 301.425 462.916 300.866 467.384 300.524Z" fill="white"/>
<path d="M317.01 200.697C319.921 200.763 328.589 201.638 329.817 204.305C328.404 209.468 319.02 206.388 316.737 208.689L316.756 209.403C317.331 210.49 318.684 211.005 319.814 211.583C321.984 216.455 321.682 218.23 321.199 223.41C321.148 223.981 321.823 224.696 322.385 225.032C325.155 224.26 326.078 217.593 324.709 215.408C324.492 215.062 323.688 212.197 323.695 212.206C324.122 212.765 325.798 214.963 326.068 215.01C331.591 215.956 328.395 218.609 332.731 221.297C333.701 221.243 334.059 221.245 335.026 221.357C335.952 221.835 336.307 223.249 336.693 224.276L340.008 226.302C336.749 231.062 332.916 232.523 327.905 234.88C324.951 233.566 320.398 230.298 317.544 228.526C314.508 226.642 310.937 224.611 308.081 222.568C308.8 214.793 306.241 202.591 317.01 200.697Z" fill="white"/>
<path d="M338.062 176.592C343.876 179.361 330.332 195.917 328.599 199.549C326.63 198.968 325.151 198.645 323.145 198.24C322.461 198.146 320.929 197.722 320.188 197.54C322.812 194.176 325.572 190.784 328.228 187.437C330.997 183.954 334.2 178.732 338.062 176.592Z" fill="white"/>
<path d="M341.145 203.808C349.123 204.817 341.267 215.79 336.077 217.775C335.45 217.91 334.756 218.021 334.118 218.137C333.073 217.741 333.39 218.035 332.919 217.052C332.969 215.397 334.715 213.244 335.767 212.016C338.059 209.35 339.506 206.922 341.145 203.808Z" fill="white"/>
<path d="M335.293 197.027C337.11 197.818 337.694 199.156 338.617 200.869C336.526 206.003 334.398 209.78 329.691 213.028L326.806 211.191C331.936 208.507 335.161 206.25 331.541 200.586C332.953 199.002 333.544 198.293 335.293 197.027Z" fill="white"/>
<path d="M346.721 211.455C347.725 212.289 348.168 213.094 348.878 214.185C347.468 218.325 345.299 221.566 341.434 223.736C340.423 223.069 338.219 221.087 339.421 220.224C343.39 217.384 344.303 215.771 346.721 211.455Z" fill="white"/>
<path d="M437.275 25.2429C437.623 25.2302 437.972 25.2207 438.32 25.2143C453.591 24.9981 469.104 25.3344 484.426 25.1823C492.627 25.3665 501.104 24.7824 509.248 25.4327C521.703 26.6525 519.034 40.0513 519.273 48.9102C519.65 62.8575 510.551 62.2837 500.382 62.1798L442.141 62.1983C437.645 64.7615 434.1 68.2137 429.557 70.5211C428.433 70.9819 427.419 69.7147 427.382 68.7074C427.055 59.6684 427.325 50.5772 427.262 41.5269C427.243 38.9994 427.272 36.9017 427.548 34.4176C428.157 28.9301 432.217 25.8903 437.275 25.2429Z" fill="black"/>
<path d="M436.097 28.3191C450.163 27.8829 466.332 28.2625 480.542 28.2569L498.382 28.25C501.653 28.2464 510.824 27.5993 513.182 29.8093C517.238 33.9304 516.136 41.4578 516.199 46.8118C516.328 57.9608 513.835 59.4245 503.659 59.3313L460.725 59.3058C455.045 59.2996 446.292 58.9712 440.778 59.7067C439.202 59.917 432.135 65.3856 430.217 66.7318C430.213 60.9695 429.297 35.8009 431.083 32.1212C432.022 30.1849 434.138 28.9649 436.097 28.3191Z" fill="white"/>
<path d="M490.925 34.2396C494.495 34.8074 506.752 41.3844 509.873 43.79C506.676 46.0249 501.678 48.4217 498.115 50.2558C496.181 51.2697 492.419 54.0404 491.028 51.7053C490.78 49.9234 491.707 47.0158 492.225 45.19C494.674 44.323 498.589 44.0144 501.283 43.7326C498.542 43.1042 493.55 43.2216 491.804 41.3859C490.796 40.3272 490.699 35.7287 490.925 34.2396Z" fill="black"/>
<path d="M440.116 37.4705C453.478 36.8226 467.465 37.5496 480.881 37.3725C481.785 37.3606 481.977 37.6952 482.482 38.3007C482.62 39.3736 482.57 39.4969 482.065 40.4593C468.414 40.7035 454.326 40.5648 440.656 40.3765C439.956 40.3667 439.717 39.8909 439.422 39.389C439.422 38.4128 439.551 38.2816 440.116 37.4705Z" fill="black"/>
<path d="M441.199 46.8611C445.105 46.7525 466.957 46.4672 468.696 47.573C469.271 47.938 469.258 48.1138 469.399 48.7353C468.831 49.6538 469.139 49.3408 467.955 49.844C460.037 50.0558 451.729 49.8854 443.783 49.9604C442.257 49.9745 440.455 49.7733 439.403 48.6389L439.475 47.9346C440.204 47.0296 439.99 47.2936 441.199 46.8611Z" fill="black"/>
<path d="M552.905 171.84C556.126 173.329 555.187 177.527 557.878 180.047C559.978 182.011 564.568 181.63 565.096 184.426C563.997 187.079 559.366 187.172 557.467 189.193C555.322 191.477 555.938 194.311 553.313 196.605C549.881 195.144 550.534 190.96 548.286 189.122C545.297 186.678 543.668 187.136 540.136 184.086C542.767 182.487 546.214 181.982 548.478 179.916C551.146 177.485 549.881 173.68 552.905 171.84Z" fill="black"/>
<path d="M552.927 179.446C552.625 179.318 557.686 183.899 558.314 184.379C555.705 186.159 554.55 186.767 553.266 189.723C553.614 189.883 548.541 185.118 547.643 184.467C549.633 183.053 551.413 181.363 552.927 179.446Z" fill="white"/>
<path d="M567.837 123.48C570.226 122.82 572.785 123.519 574.509 125.301C576.232 127.083 576.845 129.663 576.104 132.029C575.366 134.394 573.391 136.167 570.958 136.65C567.385 137.36 563.89 135.115 563.049 131.57C562.207 128.024 564.324 124.449 567.837 123.48Z" fill="black"/>
<path d="M568.697 126.658C570.587 126.127 572.556 127.225 573.093 129.115C573.633 131.005 572.54 132.975 570.653 133.521C568.754 134.069 566.772 132.97 566.229 131.071C565.689 129.171 566.794 127.193 568.697 126.658Z" fill="white"/>
<path d="M94.3496 212.477C96.4211 212.225 98.3213 213.656 98.6519 215.716C98.9822 217.776 97.6246 219.728 95.5782 220.137C94.1835 220.415 92.7481 219.909 91.8373 218.817C90.9261 217.725 90.685 216.222 91.209 214.901C91.7327 213.579 92.9377 212.649 94.3496 212.477Z" fill="black"/>
<path d="M122.839 78.4568C127.332 78.879 129.13 84.8988 123.525 86.1591C121.841 85.708 120.327 85.2055 119.59 83.4675C119.262 82.6978 119.265 81.8271 119.598 81.0596C120.207 79.633 121.512 79.0024 122.839 78.4568Z" fill="black"/>
<path d="M231.31 74.2523C232.77 74.4745 233.566 74.6365 234.076 76.2062L234.13 76.3764C234.628 77.8937 234.566 81.408 233.655 82.7486L232.153 82.8215C229.423 81.3082 230.773 76.8777 231.31 74.2523Z" fill="black"/>
<path d="M232.408 55.084C234.377 56.2087 234.345 58.4762 234.225 60.5655C234.121 62.3741 233.658 62.7856 232.259 63.8598C230.587 62.6513 230.234 59.0573 230.632 57.1541C230.868 56.0248 231.511 55.6861 232.408 55.084Z" fill="black"/>
<path d="M219.209 67.5464C221.426 67.3298 225.203 66.858 226.76 68.5684C226.822 69.7631 226.815 69.4012 226.17 70.5591C224.105 70.9794 220.906 71.5136 219.274 69.8974C218.827 68.5505 218.927 69.0126 219.209 67.5464Z" fill="black"/>
<path d="M238.893 67.5388C241.107 67.6666 244.887 66.708 246.235 68.5486C246.271 69.5731 246.085 69.7778 245.55 70.6319C243.338 70.759 239.666 71.4565 238.268 69.5559C238.225 68.5533 238.358 68.4049 238.893 67.5388Z" fill="black"/>
</svg>
