<svg width="552" height="348" viewBox="0 0 552 348" fill="none" xmlns="http://www.w3.org/2000/svg">
<path d="M269.825 53.5049C284.593 53.2852 300.05 53.5068 314.872 53.506L405.623 53.5039L454.467 53.4933L470.294 53.4769C479.957 53.4731 489.248 52.1081 489.291 65.2388C489.334 78.0663 489.253 90.928 489.24 103.757L489.253 174.134L489.275 210.378C489.28 216.54 489.399 223.06 489.116 229.216C489.04 230.886 487.62 233.677 486.404 234.887C484.768 236.496 482.625 237.486 480.342 237.688C476.399 238.071 467.103 237.81 462.785 237.807L427.929 237.79L312.265 237.831C312.244 238.023 312.128 238.866 312.069 238.96C300.829 256.848 278.803 283.193 260.927 293.156C260.11 298.016 260.003 297.808 255.471 299.811C242.771 305.431 230.189 311.777 217.362 317.065C225.514 316.874 234.219 317.009 242.403 317.009H288.177L425.396 317.02L491.924 317.022L511.147 317.012C513.896 317.012 516.902 316.963 519.664 317.09C520.29 317.117 520.675 317.605 521.009 318.098C521.174 319.101 521.228 318.699 520.818 319.615C520.096 320.209 519.279 320.287 518.352 320.289C510.263 320.303 502.112 320.265 494.032 320.254L446.805 320.268L299.045 320.26L87.61 320.235C82.7892 320.241 78.3414 321.214 73.4917 321.314C69.5477 321.438 65.5214 320.416 61.6143 320.335C48.4439 320.058 35.2035 320.486 22.0583 320.192C21.3606 320.176 20.586 319.397 20.2611 318.801C20.3987 317.394 21.6948 317.181 22.9481 317.114C26.7735 316.909 30.6522 317.003 34.4892 317.003L56.6379 316.968L56.3757 316.799C50.3376 312.855 46.6351 306.555 45.1511 299.598C41.01 280.184 57.38 240.302 68.0771 223.784C82.0167 202.259 100.141 196.125 124.233 190.96C124.192 184.627 124.567 177.778 124.31 171.538C123.991 171.387 123.674 171.228 123.361 171.063C97.939 157.628 91.5352 121.918 103.48 96.8758C108.055 87.2846 114.619 84.3295 124.389 81.3126C131.912 70.8057 139.749 66.2133 152.719 64.7552C167.93 63.0451 183.079 66.7338 195.214 76.1923C212.062 89.3228 217.087 112.166 208.732 131.555C208.056 133.132 206.609 134.862 206.287 136.468C205.606 139.864 205.583 143.451 205.105 146.885C201.967 167.318 190.929 182.692 169.479 185.055L169.496 191.508C197.796 197.541 207.34 205.028 225.26 226.409C235.188 217.426 247.924 215.743 259.809 210.821L259.815 112.842L259.787 80.4247C259.781 74.6979 259.61 68.8256 259.935 63.1182C260.275 57.1604 264.211 54.0726 269.825 53.5049Z" fill="black"/>
<path d="M263.239 78.2207L485.916 78.1935L485.959 180.309L485.986 212.229C485.989 217.661 486.092 223.143 485.838 228.565C485.695 231.593 482.706 234.299 479.739 234.416C474.103 234.638 468.416 234.543 462.769 234.538L430.447 234.519L325.505 234.503C319.934 234.507 313.497 234.653 308.015 234.357C310.673 233.248 313.837 232.817 316.432 231.584C321.031 229.5 325.2 225.088 328.912 221.943C333.669 217.996 341.774 209.913 334.922 204.084C332.208 201.772 333.755 200.609 332.375 197.308C331.475 195.151 327.817 194.09 327.602 193.494C326.278 189.838 326.858 188.419 322.076 186.751C325.049 182.689 330.572 176.033 331.06 171.034C331.122 169.464 330.48 167.771 329.373 166.7C324.165 161.661 318.457 168.462 314.799 172.154C314.853 171.693 314.885 171.231 314.899 170.767C314.998 166.111 314.834 161.334 314.891 156.662C314.78 152.767 315.16 148.683 314.548 144.835C314.249 142.815 311.519 139.868 309.46 139.671C301.967 139.02 293.466 139.66 286.021 139.342C273.908 138.824 275.518 146.861 275.687 155.691C275.779 160.356 275.493 165.267 275.569 169.959C275.612 172.709 275.849 174.885 277.933 176.817C278.868 177.699 280.038 178.294 281.304 178.53C284.027 179.032 291.458 178.776 294.676 178.773C299.355 178.769 304.56 178.904 309.193 178.775C306.322 181.702 303.379 185.936 300.465 188.601C298.805 190.12 295.986 188.832 292.463 191.694C286.175 196.804 285.744 205.908 284.824 213.393C280.671 210.569 281.113 211.26 277.749 214.612C276.011 216.346 274.232 218.167 272.493 219.91C272.93 218.066 273.574 216.621 272.003 215.243C270.369 214.74 269.039 215.325 267.461 215.861C266.183 214.261 264.805 212.718 263.458 211.175C263.066 207.553 263.264 199.935 263.267 196.144L263.275 168.946L263.239 78.2207Z" fill="white"/>
<path d="M282.013 89.5689C286.407 89.3193 291.528 89.4365 296.099 89.4737C300.654 89.5109 308.546 88.5863 312.233 91.1986C314.689 92.9397 314.942 96.4194 314.893 99.1999C314.751 106.964 315.163 114.873 314.656 122.623C314.438 125.977 311.557 128.153 308.438 128.668C304.01 128.916 282.377 129.467 279.294 127.772C277.792 126.946 276.456 125.383 276.003 123.717C275.275 121.04 275.364 99.8137 275.757 96.0046C275.857 95.0598 276.078 94.2112 276.555 93.3842C277.811 91.2019 279.625 90.1867 282.013 89.5689Z" fill="black"/>
<path d="M284.911 92.8626C291.824 92.8192 298.786 92.8179 305.694 92.8599C307.255 92.8694 309.635 92.9524 310.549 94.2252C310.883 94.6875 311.395 95.2935 311.425 95.9534C311.818 104.323 311.689 113.132 311.546 121.516C311.508 123.648 309.996 124.623 308.557 125.774C308.532 125.464 308.505 125.155 308.473 124.846C308.031 120.734 306.365 117.988 303.225 115.437C301.212 114.213 298.953 113.449 296.611 113.2C287.862 112.301 283.089 117.599 282.202 125.819C280.965 125.007 280.439 124.523 279.34 123.509C279.18 122.757 279.078 121.996 279.027 121.229C278.798 117.616 278.253 95.879 279.884 94.1994C281.183 92.8621 283.188 92.9319 284.911 92.8626Z" fill="white"/>
<path d="M293.84 97.7573C297.573 96.906 301.287 99.2476 302.126 102.982C302.967 106.717 300.614 110.423 296.878 111.252C293.156 112.078 289.468 109.737 288.633 106.018C287.797 102.3 290.126 98.605 293.84 97.7573Z" fill="black"/>
<path d="M294.716 100.966C296.641 100.603 298.495 101.862 298.87 103.784C299.242 105.705 297.994 107.567 296.075 107.95C294.139 108.336 292.261 107.076 291.886 105.14C291.509 103.204 292.778 101.332 294.716 100.966Z" fill="white"/>
<path d="M293.471 116.525C300.797 116.147 303.355 118.758 305.409 125.397L298.061 125.413C293.859 125.448 289.66 125.417 285.461 125.319C286.504 120.191 288.35 117.823 293.471 116.525Z" fill="white"/>
<path d="M457.052 94.9544C464.82 93.9614 471.914 99.4749 472.866 107.247C473.82 115.02 468.273 122.085 460.497 123C452.775 123.909 445.77 118.407 444.824 110.69C443.878 102.973 449.341 95.9407 457.052 94.9544Z" fill="black"/>
<path d="M456.004 98.5883C461.737 97.0265 467.647 100.418 469.192 106.155C470.739 111.892 467.329 117.794 461.588 119.324C455.872 120.848 449.999 117.457 448.46 111.742C446.918 106.027 450.292 100.144 456.004 98.5883Z" fill="white"/>
<path d="M463.693 103.941C464.176 104.055 464.605 104.308 465.049 104.532C465.34 104.979 465.64 105.253 465.462 105.819C464.726 108.17 458.89 113.624 457.095 115.009C456.047 114.158 454.896 112.974 453.912 112.017L451.497 109.51C452.052 108.621 452.608 108.057 453.308 107.286C454.899 108.391 455.928 109.21 457.403 110.445C459.327 108.278 461.448 105.712 463.693 103.941Z" fill="black"/>
<path d="M456.19 190.916C463.888 189.445 471.31 194.524 472.731 202.233C474.151 209.942 469.022 217.333 461.305 218.702C453.659 220.058 446.354 214.988 444.948 207.35C443.541 199.713 448.562 192.372 456.19 190.916Z" fill="black"/>
<path d="M457.014 194.202C462.879 193.204 468.435 197.168 469.402 203.038C470.367 208.908 466.375 214.443 460.5 215.378C454.67 216.306 449.185 212.349 448.228 206.524C447.268 200.698 451.195 195.192 457.014 194.202Z" fill="white"/>
<path d="M463.715 199.607C466.343 200.362 465.596 202.358 464.168 203.9C462.03 206.206 459.626 208.902 457.133 210.795C456.098 209.942 454.963 208.827 453.969 207.899C452.915 206.866 451.416 205.569 452.085 203.961C453.92 202.877 456.13 205.071 457.456 206.172C459.699 203.92 461.101 201.752 463.715 199.607Z" fill="black"/>
<path d="M456.926 144.56C464.602 143.489 471.707 148.811 472.836 156.481C473.965 164.15 468.701 171.295 461.041 172.485C453.298 173.688 446.058 168.35 444.915 160.596C443.772 152.843 449.163 145.643 456.926 144.56Z" fill="black"/>
<path d="M457.16 147.908C463.02 146.973 468.523 150.965 469.459 156.823C470.391 162.682 466.4 168.189 460.543 169.122C454.686 170.055 449.179 166.063 448.247 160.206C447.311 154.348 451.303 148.842 457.16 147.908Z" fill="white"/>
<path d="M463.578 153.517C464.844 153.683 465.098 153.869 465.534 154.979C465.189 157.493 459.279 162.873 457.227 164.444C456.033 163.654 455.066 162.809 453.974 161.892C452.718 160.699 451.193 159.594 452.198 157.764C454.322 156.844 455.831 158.783 457.171 160.123C459.128 157.98 461.394 155.354 463.578 153.517Z" fill="black"/>
<path d="M327.54 107.558C331.362 107.37 336.645 107.525 340.601 107.527L365.506 107.532L406.957 107.53C411.927 107.53 416.897 107.534 421.868 107.514C423.533 107.507 425.501 107.257 426.277 108.949C426.105 109.94 426.045 110.043 425.377 110.796C418.544 111.066 329.246 111.053 327.753 110.467C327.076 110.201 326.939 109.998 326.64 109.359C326.72 108.417 326.904 108.281 327.54 107.558Z" fill="black"/>
<path d="M327.206 146.75C330.294 146.415 335.591 146.592 338.884 146.6L359.123 146.608L407.887 146.605C413.679 146.605 419.954 146.493 425.768 146.719C426.692 146.755 427.043 147.18 427.377 147.927C427.272 148.838 427.121 148.972 426.547 149.704C422.264 150.053 415.116 149.824 410.671 149.817L382.691 149.823L342.475 149.855C338.216 149.86 332.038 150.043 327.75 149.729C327.179 149.687 326.893 149.152 326.664 148.717C326.677 147.733 326.734 147.619 327.206 146.75Z" fill="black"/>
<path d="M327.804 157.467C344.579 157.032 362.697 157.406 379.602 157.403L408.078 157.396C412.461 157.394 419.978 157.025 424.439 157.788C425.013 157.886 425.215 158.47 425.396 158.978C425.153 159.82 425.105 159.912 424.447 160.488C421.302 160.799 415.28 160.657 411.984 160.66L389.667 160.674L345.588 160.695C340.089 160.698 334.375 160.771 328.86 160.624C327.834 160.597 327.286 160.292 326.882 159.38C326.998 158.408 327.187 158.247 327.804 157.467Z" fill="black"/>
<path d="M327.793 118.369C333.715 118.14 339.817 118.294 345.757 118.295C366.463 118.298 387.171 118.259 407.876 118.298C409.281 118.3 410.356 118.49 410.806 119.909C410.636 120.807 410.499 120.909 409.847 121.567C406.693 121.821 401.502 121.687 398.246 121.686L377.675 121.677C361.487 121.668 345.245 121.677 329.055 121.68C328.586 121.681 327.78 121.609 327.402 121.346C326.604 120.794 326.742 120.813 326.586 119.99C326.901 119.04 326.976 118.952 327.793 118.369Z" fill="black"/>
<path d="M347.55 202.824L397.766 202.845C406.092 202.828 414.558 202.734 422.884 202.819C424.256 202.833 425.016 202.864 425.841 203.799C426.231 205.294 425.676 205.904 424.31 206.238L374.066 206.213C365.792 206.214 357.498 206.263 349.224 206.241C347.757 206.238 346.191 206.339 345.226 205.336C345.054 203.393 345.989 203.126 347.55 202.824Z" fill="black"/>
<path d="M345.598 213.539C365.452 213.16 385.629 214.077 405.518 213.555C407.051 213.515 409.121 213.811 409.609 215.438C409.437 216.295 409.289 216.351 408.634 216.999C405.604 217.176 401.294 217.079 398.154 217.087L377.767 217.079L356.776 217.051C354.738 217.048 345.755 217.308 344.598 216.598C343.809 215.257 344.41 214.356 345.598 213.539Z" fill="black"/>
<path d="M327.222 96.802C332.413 96.5556 384.459 96.3499 385.791 96.9788C386.279 97.209 386.335 97.5406 386.527 97.9918C386.489 98.9619 386.357 99.115 385.847 99.9547C381.548 100.221 375.821 100.06 371.384 100.063L345.399 100.072L333.575 100.066C331.647 100.064 327.799 100.581 326.804 98.9725C326.688 97.9546 326.831 97.729 327.222 96.802Z" fill="black"/>
<path d="M340.968 168.067C346.822 167.953 389.686 167.5 391.839 168.361C392.502 168.626 392.645 168.817 392.939 169.446C392.475 171.689 390.599 171.513 388.839 171.472L353.539 171.494C349.329 171.506 345.113 171.525 340.906 171.513C339.351 171.508 338.254 171.535 337.372 170.125C337.615 168.006 339.256 168.158 340.968 168.067Z" fill="black"/>
<path d="M344.774 192.253C354.865 191.724 366.026 192.357 376.198 192.219C377.22 192.205 377.934 192.347 378.435 193.265C378.47 194.184 378.376 194.273 377.98 195.139C373.918 196.009 351.496 195.21 345.941 195.302C345.186 195.315 344.927 194.948 344.555 194.466C344.385 193.414 344.437 193.272 344.774 192.253Z" fill="black"/>
<path d="M123.906 194.403C124.077 194.354 124.643 194.366 124.682 194.456C129.119 204.748 139.489 212.587 150.825 213.095C162.515 213.619 169.305 206.401 169.843 195.111C196.813 201.798 204.753 207.092 222.775 228.378C221.02 230.655 219.831 232.656 218.341 235.125C206.083 222.871 189.827 221.657 173.648 219.024C168.927 218.256 164.199 216.956 159.441 216.107C157.527 218.095 156.505 220.124 154.932 222.409C153.321 221.973 151.744 221.318 150.229 221.966C148.472 223.876 146.25 243.573 145.43 247.977C140.158 249.203 134.456 253.256 131.046 257.456C128.114 261.066 127.32 262.951 123.539 265.845C123.161 264.538 122.426 262.847 121.907 261.55C117.69 262.913 112.852 263.731 108.54 264.951C105.635 265.773 102.32 266.529 99.3667 267.075L102.819 255.739C103.477 253.593 105.576 248.424 104.216 246.619C103.074 246.281 103.492 246.242 102.538 246.589C100.644 248.857 96.7083 264.29 95.7485 268.045C92.1198 269.505 73.5561 272.634 72.2928 274.772C72.229 275.88 72.1284 275.475 72.5769 276.392C73.8691 277.106 75.717 276.632 77.0757 276.262C91.2438 272.397 105.861 269.522 120.007 265.615C122.255 275.828 126.728 288.762 129.927 298.868C125.984 300.347 122.189 302.604 118.334 304.34C108.098 308.952 97.3353 313.383 86.4311 316.122C77.7905 318.295 66.9709 319.306 59.0357 314.486C53.5725 311.165 50.0603 305.512 48.6213 299.372C44.3624 281.201 60.737 242.022 70.8182 225.922C83.6854 205.373 101.416 199.593 123.906 194.403Z" fill="white"/>
<path d="M144.838 101.247C159.347 111.153 182.817 118.998 200.347 115.865C203.476 132.666 204.003 151.336 194.421 166.476C185.359 180.795 168.688 184.753 153.103 179.353C150.995 178.623 146.581 175.222 144.84 175.594C141.12 178.496 151.265 187.62 154.159 189.223C157.681 191.175 159.785 192.125 163.65 193.393L166.35 193.921C165.489 220.168 132.912 209.705 127.897 192.334C127.04 189.365 127.856 177.82 127.816 174.005C127.746 167.414 127.578 159.349 127.84 152.767C128.826 151.644 130.311 149.993 129.042 148.512C126.62 148.007 122.953 151.364 119.397 151.141C105.421 150.262 105.057 129.572 119.007 128.938C122.308 128.788 125.207 131.737 127.256 134.055C138.095 128.359 143.947 112.829 144.838 101.247Z" fill="white"/>
<path d="M175.748 132.191C176.274 132.254 176.476 132.364 176.955 132.559C178.389 134.061 180.819 142.207 180.912 144.486C181.122 149.631 177.033 150.736 172.775 150.794C171.932 150.471 171.329 149.939 171.08 149.077C172.257 146.752 175.947 147.596 176.817 146.429C179.653 142.622 171.984 135.94 175.748 132.191Z" fill="black"/>
<path d="M159.356 154.599C160.81 154.833 163.514 157.598 165.275 158.497C167.664 159.715 168.272 159.852 170.887 160.367C172.953 160.774 177.88 159.588 179.131 160.457C180.033 161.859 179.813 162.479 178.416 163.325C177.604 163.447 176.788 163.549 175.97 163.632C171.833 164.037 159.738 162.548 158.153 156.584C157.983 155.941 158.9 155.109 159.356 154.599Z" fill="black"/>
<path d="M155.491 121.883C157.626 121.666 162.435 121.665 163.911 123.393C164.433 126.911 157.756 125.167 154.934 125.46C152.444 126.151 151.333 127.616 149.594 128.017C148.697 127.716 148.977 127.811 148.284 126.958C147.783 123.903 153.218 122.439 155.491 121.883Z" fill="black"/>
<path d="M187.66 121.648C190.399 121.29 198.223 121.517 198.103 125.673C197.606 126.535 197.897 126.247 196.915 126.713C195.97 126.799 195.707 126.576 194.932 126.074L194.685 125.913C190.817 124.6 189.803 125.596 185.891 125.435C184.965 125.397 184.324 125.178 183.723 124.471C183.81 122.378 185.941 122.152 187.66 121.648Z" fill="black"/>
<path d="M157.166 131.017C162.775 130.641 163.069 136.696 159.409 139.482C154.063 140.031 153.636 133.843 157.166 131.017Z" fill="black"/>
<path d="M190.046 131.001L190.299 131.034C195.255 131.702 195.105 137.232 191.293 139.695C189.467 139.73 188.237 139.013 187.528 137.278C186.984 135.934 187.018 134.426 187.621 133.108C188.231 131.749 188.764 131.493 190.046 131.001Z" fill="black"/>
<path d="M115.096 134.252C120.74 134.067 127.187 140.401 123.741 145.279C120.44 145.342 121.684 142.251 120.229 139.972C118.913 137.912 115.467 137.579 114.532 135.856C114.547 134.886 114.538 135.191 115.096 134.252Z" fill="black"/>
<path d="M268.42 57.0065C269.287 56.8884 270.739 56.8221 271.636 56.8232C285.959 56.8412 300.298 56.8253 314.618 56.8216L402.044 56.8049L453.637 56.8022C462.243 56.8022 470.895 56.7736 479.496 56.8569C487.838 56.9377 486.011 69.0388 485.978 74.7515L481.45 74.7955L263.257 74.7583C263.246 71.7864 263.178 68.7875 263.187 65.8165C263.201 61.4318 264.02 58.4723 268.42 57.0065Z" fill="white"/>
<path d="M286.989 62.4308C289.005 62.0685 290.932 63.4053 291.301 65.4194C291.668 67.4338 290.339 69.366 288.326 69.7402C286.304 70.1157 284.361 68.7778 283.992 66.7553C283.622 64.7329 284.967 62.7945 286.989 62.4308Z" fill="black"/>
<path d="M298.784 62.654C300.04 62.1645 301.463 62.399 302.495 63.2654C303.527 64.1317 304.004 65.4925 303.74 66.8141C303.476 68.1357 302.511 69.208 301.225 69.6108C299.328 70.2049 297.301 69.1884 296.643 67.3125C295.986 65.4367 296.932 63.3762 298.784 62.654Z" fill="black"/>
<path d="M274.744 62.4149C276.738 62.2041 278.531 63.6363 278.765 65.6275C279 67.619 277.59 69.4291 275.604 69.689C274.297 69.8601 272.997 69.3143 272.202 68.2603C271.41 67.2061 271.243 65.8068 271.771 64.5967C272.297 63.387 273.431 62.5535 274.744 62.4149Z" fill="black"/>
<path d="M152.416 224.955C160.055 227.503 168.414 229.344 176.28 231.36C187.076 234.126 198.118 237.375 208.909 239.989C205.879 264.812 201.536 290.711 198.04 315.631C188.445 313.054 178.831 310.545 169.201 308.105C160.752 305.857 151.028 303.067 142.58 301.205C142.949 299.59 143.19 297.582 143.435 295.916C150.401 295.444 175.038 293.185 172.042 282.168C178.541 278.659 179.149 277.001 177.68 271.464C177.537 270.928 179.419 268.104 179.691 267.294C180.124 266.008 180.029 265.148 179.446 263.878C178.742 262.163 176.231 261.363 174.536 260.72C174.203 260.177 174.209 258.928 174.19 258.218C174.041 251.22 164.676 254.082 160.592 255.152C156.236 256.293 152.071 257.172 147.598 257.819C147.725 256.472 147.955 255.017 148.184 253.676C149.812 244.15 150.817 234.474 152.416 224.955Z" fill="white"/>
<path d="M269.249 218.925C269.454 219.285 258.339 287.495 257.101 295.361C245.915 300.021 234.93 305.833 223.73 310.529C221.559 311.44 219.533 312.437 217.307 313.265L217.166 313.133C216.95 312.585 227.009 245.677 228.039 238.718C240.749 231.755 256.573 225.739 269.249 218.925Z" fill="white"/>
<path d="M281.493 215.525C283.493 215.966 304.214 236.231 308.47 238.921C298.554 252.419 288.784 265.111 276.663 276.793C270.93 282.123 267.798 284.937 261.316 289.363C262.711 284.074 264.013 273.871 264.96 268.233C267.343 254.049 269.347 239.701 271.914 225.543C275.218 222.311 278.412 218.97 281.493 215.525Z" fill="white"/>
<path d="M144.53 251.792L144.828 252.102C144.771 253.944 144.39 255.95 144.097 257.786C142.642 258.511 142.141 258.511 141.775 260.13C141.963 260.505 142.023 260.743 142.392 260.969C145.364 262.798 161.109 258.624 164.921 257.777C166.486 257.429 169.161 256.677 170.594 257.588C171.211 258.428 171.094 258.039 171.064 259.047C168.597 263.491 154.041 265.148 151.666 267.175C151.237 268.081 151.272 267.692 151.51 268.634C155.224 272.208 174.575 260.906 176.344 265.95C175.674 272.815 152.337 273.338 152.394 276.397C154.982 279.977 169.049 274.877 172.768 273.621C173.095 273.529 173.793 273.413 174.155 273.34C175.037 273.739 174.781 273.467 175.123 274.34C174.399 280.856 155.607 281.991 154.104 283.861C153.87 284.872 153.842 284.479 154.115 285.403C156.718 287.902 165.988 283.443 168.918 284.174L169.124 284.578C166.76 289.716 150.9 291.972 145.654 292.398C141.476 292.738 136.241 292.371 132.173 293.274L131.863 293.344C129.411 287.314 126.197 275.535 124.27 268.991C129.69 266.557 131.72 261.057 135.969 257.138C138.943 254.394 140.995 253.4 144.53 251.792Z" fill="white"/>
<path d="M281.808 142.949C285.199 142.607 307.923 142.308 309.756 143.402C310.486 143.837 311.176 144.779 311.365 145.603C311.964 148.205 311.807 169.14 311.548 172.505C311.508 173.023 311.373 173.481 311.079 173.915C310.392 174.938 309.309 175.205 308.187 175.464C303.425 175.67 285.029 176.191 281.485 175.134C280.798 174.929 280.153 174.618 279.819 173.962C279.24 172.823 279.024 171.409 278.919 170.147C278.663 167.06 278.463 146.845 279.186 144.938C279.622 143.787 280.755 143.352 281.808 142.949Z" fill="white"/>
<path d="M294.681 148.911C295.98 149.049 296.811 149.775 297.404 150.884C298.792 153.483 307.417 165.976 306.384 168.297C304.834 169.066 298.42 168.775 296.35 168.756C293.913 168.77 285.862 169.149 284.366 168.165C283.746 166.077 292.881 150.72 294.681 148.911Z" fill="black"/>
<path d="M295.112 154.052C296.021 154.821 301.01 163.811 302.015 165.493L295.474 165.439C293.223 165.361 290.97 165.305 288.719 165.269C290.943 161.814 293.123 157.677 295.112 154.052Z" fill="white"/>
<path d="M223.884 240.069L224.29 240.063C224.39 240.563 213.942 311.831 213.036 315.556C209.583 316.896 205.832 317.036 202.206 316.459L201.624 316.187C201.111 314.567 211.21 248.893 212.34 240.49C216.107 240.808 220.14 240.501 223.884 240.069Z" fill="white"/>
<path d="M139.007 296.11C139.2 296.064 139.422 296.148 139.652 296.194C139.973 297.517 139.226 300.816 139.338 302.86C140.443 304.841 150.771 306.739 153.489 307.429L175.808 313.257C180.019 314.359 185.659 315.661 189.71 317.012L147.568 317.006L95.7399 316.974C101.393 315.057 131.578 303.358 133.508 300.356C134.119 299.407 133.248 297.264 132.945 296.239C135.042 296.285 136.915 296.202 139.007 296.11Z" fill="white"/>
<path d="M297.932 192.779C301.22 192.554 309.756 193.758 312.772 195.434C313.713 195.959 313.807 196.378 314.036 197.244C313.034 202.272 302.091 198.977 298.978 201.407L298.937 201.951C299.549 202.931 300.897 203.408 301.926 203.836C307.233 213.085 301.379 216.01 302.657 219.005C303.409 219.576 303.516 219.607 304.454 219.71C305.29 219.39 305.532 219.181 305.969 218.363C308.837 212.991 307.255 208.303 305.977 203.192C306.691 204.44 308.457 208.724 310.034 209.07C315.387 210.245 310.745 212.754 316.573 215.702C317.664 215.971 317.979 215.696 319.109 216.243C321.119 218.514 317.893 219.196 323.675 221.801C320.95 224.363 318.661 226.626 315.203 228.284C311.872 229.882 308.748 229.913 305.956 232.364C304.673 230.895 301.832 228.586 300.312 227.206C296.061 223.346 291.509 219.62 287.428 215.593C288.347 213.97 288.366 213.034 288.633 211.206C289.73 203.719 289.606 195.725 297.932 192.779Z" fill="white"/>
<path d="M160.82 219.849C177.917 224.364 197.363 223.285 212.186 234.059C213.166 234.771 214.882 236.181 215.572 237.134L215.292 237.447L213.943 237.428C209.788 237.127 198.088 233.577 193.353 232.321C181.694 229.231 170.011 226.236 158.304 223.334C159.241 222.236 160.012 221.044 160.82 219.849Z" fill="white"/>
<path d="M260.809 214.025C261.85 214.1 263.894 216.817 264.625 217.672C255.439 221.028 245.738 226.687 236.636 230.604C232.465 232.398 228.642 234.771 224.278 236.338L220.934 237.207C230.409 221.606 245.059 220.089 260.809 214.025Z" fill="white"/>
<path d="M324.936 168.166C333.534 169.451 315.683 189.414 313.128 191.797L308.716 190.562L304.091 189.628C309.443 184.225 319.23 171.153 324.936 168.166Z" fill="white"/>
<path d="M326.968 197.488C327.618 197.565 327.594 197.662 328.157 197.977C331.44 199.818 329.459 204.143 327.715 206.416C325.173 209.722 322.575 212.08 318.338 212.768C317.168 212.32 316.279 211.673 315.858 210.45C315.872 210.256 315.888 210.023 315.909 209.75C317.893 207.917 320.419 205.672 322.198 203.729C324.087 201.664 325.454 199.661 326.968 197.488Z" fill="white"/>
<path d="M319.783 190.204C330.211 190.611 318.958 204.118 312.999 206.349C311.298 206.232 310.761 205.041 309.794 203.742C314.88 202.945 320.346 199.252 316.149 193.793C317.532 192.221 318.128 191.546 319.783 190.204Z" fill="white"/>
<path d="M332.157 206.18C333.251 206.985 333.558 207.794 334.151 208.992C333.141 212.928 329.305 218.697 324.931 218.976C323.893 218.243 323.049 217.715 322.731 216.464C322.799 216.104 322.818 216.008 323.101 215.743C326.715 212.356 329.219 210.193 332.157 206.18Z" fill="white"/>
<path d="M328.197 272.173C332.278 272.537 330.491 275.971 333.17 279.144C335.429 281.823 338.919 281.36 340.903 283.346C341.426 285.735 335.715 286.468 333.844 288.01C331.874 289.635 331.033 293.207 330.006 295.646C326.367 295.854 327.467 291.627 325.537 289.19C323.346 286.427 319.845 286.675 317.575 284.57C317.001 282.71 318.764 282.319 320.236 281.961C326.335 280.47 325.893 276.551 328.197 272.173Z" fill="black"/>
<path d="M328.968 279.004C330.817 280.4 330.674 281.88 334.011 283.872C331.564 285.333 330.586 286.309 329.203 288.762C327.044 286.543 328.079 285.921 323.936 284.023C326.467 282.621 327.683 281.592 328.968 279.004Z" fill="white"/>
<path d="M512.616 100.383C515.001 99.8304 517.497 100.605 519.15 102.41C520.804 104.216 521.357 106.771 520.6 109.098C519.84 111.426 517.888 113.165 515.489 113.649C511.851 114.384 508.298 112.06 507.511 108.432C506.727 104.805 508.999 101.219 512.616 100.383Z" fill="black"/>
<path d="M513.422 103.637C515.301 103.238 517.142 104.443 517.53 106.322C517.915 108.202 516.7 110.037 514.818 110.411C512.953 110.782 511.139 109.578 510.756 107.717C510.374 105.855 511.565 104.033 513.422 103.637Z" fill="white"/>
<path d="M58.8847 173.996C62.5169 173.255 66.0624 175.597 66.8076 179.229C67.5529 182.86 65.216 186.409 61.586 187.159C57.9492 187.91 54.3927 185.568 53.6461 181.93C52.8995 178.292 55.2461 174.738 58.8847 173.996Z" fill="black"/>
<path d="M58.7886 177.508C60.4691 176.757 62.441 177.497 63.2126 179.168C63.9843 180.839 63.2692 182.82 61.6081 183.613C60.5152 184.134 59.2257 184.028 58.233 183.333C57.2406 182.639 56.6981 181.465 56.8132 180.259C56.928 179.053 57.6827 178.002 58.7886 177.508Z" fill="white"/>
<path d="M72.0721 77.7412C74.0694 76.9695 76.3132 77.9684 77.0762 79.9691C77.8396 81.9698 76.831 84.2095 74.8273 84.9643C72.8357 85.7145 70.6126 84.7133 69.8542 82.7245C69.0954 80.736 70.087 78.5084 72.0721 77.7412Z" fill="black"/>
<path d="M452.753 283.182C454.537 282.481 456.556 283.355 457.265 285.136C457.974 286.918 457.111 288.94 455.333 289.657C453.543 290.379 451.505 289.509 450.791 287.716C450.077 285.921 450.955 283.888 452.753 283.182Z" fill="black"/>
<path d="M222.25 55.2759C223.002 55.414 223.043 55.4075 223.65 55.8452C224.62 57.7653 224.429 60.5097 223.986 62.5599C223.776 63.5293 223.561 63.4835 222.793 63.9441C219.643 63.143 220.627 59.2743 220.871 56.7321C220.95 55.9062 221.605 55.6452 222.25 55.2759Z" fill="black"/>
<path d="M388.688 252.798L390.324 252.78C392.375 254.113 391.885 259.342 390.777 261.16C390.281 261.183 389.974 261.146 389.483 261.11C387.413 259.691 388.009 254.893 388.688 252.798Z" fill="black"/>
<path d="M379.125 264.53C381.158 264.472 383.683 264.339 384.869 266.403L384.651 267.131C383.858 267.674 383.726 267.728 382.802 267.995C380.732 268.034 377.945 268.545 376.605 266.866C376.479 266.021 376.465 265.91 376.805 265.132C377.648 264.507 377.956 264.664 379.125 264.53Z" fill="black"/>
<path d="M388.815 271.626C389.179 271.623 389.912 271.656 390.238 271.758C392.61 272.505 391.664 278.263 391.241 279.796C390.626 279.826 390.049 279.791 389.438 279.767C387.478 278.263 388.052 273.683 388.815 271.626Z" fill="black"/>
<path d="M399.424 264.558C401.313 264.575 402.37 264.364 403.539 266.057C403.637 266.961 403.72 266.6 403.176 267.407C402.332 267.979 401.585 267.938 400.577 268C399.116 268.044 394.788 268.269 395.543 265.713C396.739 264.468 397.715 264.619 399.424 264.558Z" fill="black"/>
<path d="M221.66 36.3465C222.167 36.3653 222.822 36.3492 223.196 36.664C224.689 37.9204 224.282 43.6081 223.308 44.7685C222.75 44.6885 222.217 44.5785 221.665 44.4696C219.982 43.042 220.27 37.8997 221.66 36.3465Z" fill="black"/>
<path d="M228.894 48.624C230.877 48.5114 233.644 48.1022 235.356 48.9615C235.987 49.7408 235.821 49.3672 235.952 50.3996C235.558 51.3913 235.807 51.0355 234.675 51.71C232.509 51.8054 228.858 52.2954 227.494 50.3724L227.592 49.8306C228.098 49.168 228.201 49.092 228.894 48.624Z" fill="black"/>
<path d="M209.753 48.5356C211.793 48.4831 216.611 47.8749 217.181 50.2724C216.923 51.0627 216.842 51.1425 216.247 51.7302C214.287 51.7722 209.706 52.4688 208.92 50.4554C208.992 49.5311 209.217 49.3112 209.753 48.5356Z" fill="black"/>
</svg>
