<svg width="624" height="368" viewBox="0 0 624 368" fill="none" xmlns="http://www.w3.org/2000/svg">
<path d="M252.814 33.0082C253.781 32.9305 254.749 32.8739 255.718 32.8382C262.682 32.5707 270.877 32.7724 277.919 32.7825L317.606 32.8266L440.383 32.844L526.814 32.8318L554.534 32.8041C559.662 32.7998 564.945 32.7182 570.061 32.9336C572.215 33.0243 574.811 34.2877 576.31 35.7901C579.238 38.7274 579.842 40.8946 579.845 44.8604C579.857 59.7028 579.851 74.5575 579.848 89.3926L579.833 180.608L579.857 229.292C579.86 237.316 580.003 245.457 579.692 253.445C579.513 258.046 574.775 262.643 570.204 262.875C566.856 263.046 563.583 263.017 560.235 263.004L544.55 262.979L490.337 262.999L361.174 263.005C339.714 263.007 317.512 262.686 296.143 263.024C289.449 272.349 284.102 279.94 275.429 287.694C256.789 304.36 239.581 293.623 222.436 281.273C220.692 286.949 220.046 289.6 219.2 295.461C223.404 299.298 231.156 304.529 225.115 310.11H342.895L375.518 310.119C378.998 310.122 395.478 309.735 397.843 310.942C399.369 313.357 398.562 318.96 398.793 321.759C399.037 324.708 398.019 326.844 394.848 327.036C388.288 327.429 381.414 326.899 374.827 327.115C374.708 331.34 375.192 343.998 374.409 347.132C373.669 347.921 374.031 347.757 373.065 347.824C370.96 346.252 371.749 330 371.74 327.008L316.22 327.078H160.151L111.286 327.072C101.584 327.069 91.4078 326.914 81.7626 327.203C81.8799 330.466 82.2717 344.811 81.5185 347.172C80.8635 347.836 81.195 347.69 80.3232 347.76C80.1295 347.623 80.0448 347.58 79.8936 347.419C78.2578 345.664 78.9561 330.481 78.9387 327.02C74.8081 327.036 58.3915 327.797 56.0372 325.96C55.5132 325.092 55.2959 324.267 55.2018 323.264C54.9656 320.751 54.5808 312.66 56.2264 310.939C57.7264 309.367 66.5974 310.18 69.2786 310.183C69.1647 305.644 68.3231 298.826 67.8816 294.154L65.0365 263.683C64.5112 258.088 63.9576 252.474 63.5237 246.916C62.5527 234.479 69.7186 223.148 81.5301 218.998C87.1775 217.013 92.2621 217.187 98.1801 217.015C103.636 216.882 109.09 216.711 114.544 216.503C117.295 214.69 119.901 212.322 122.625 210.459C129.935 205.461 137.232 202.613 145.695 200.342C145.554 196.839 145.671 192.674 145.68 189.123C137.489 191.066 133.824 187.897 128.224 182.5C125.072 182.552 121.379 182.77 118.472 181.554C108.07 177.207 106.685 167.204 110.114 157.87C106.798 153.79 103.956 150.224 103.66 145.019C103.066 134.612 109.908 132.478 114.169 125.381C114.806 124.321 115.058 120.442 115.069 118.89C115.122 112.074 116.15 106.315 120.955 101.134C126.935 94.6869 132.405 96.6049 138.492 93.6508C139.188 93.313 142.224 87.4198 144.031 85.4168C149.73 78.9266 158.791 75.9478 166.9 75.3343C180.404 74.3125 186.898 78.8364 197.941 84.9212C202.243 87.2916 209.762 83.6728 216.183 90.3367C222.756 97.1584 221.108 99.1324 223.429 107.565C224.596 110.944 230.221 113.509 230.707 120.44C231.096 125.984 227.346 130.01 228.316 133.887C229.637 139.167 233.966 142.421 234.142 148.901C234.603 154.602 232.004 158.402 228.073 162.194C225.974 164.229 225.688 165.29 225.787 168.091C226.183 179.238 216.853 183.519 207.405 183.843C200.053 189.426 195.629 192.053 186.389 192.857L186.218 199.895C212.251 204.729 225.249 218.94 243.073 236.764C242.881 223.277 243.071 209.285 243.074 195.751L243.077 115.789L243.066 68.2396C243.048 60.2765 242.898 52.2965 242.994 44.3367C243.074 37.6707 246.601 34.3437 252.814 33.0082Z" fill="black"/>
<path d="M245.987 56.219C256.929 55.685 271.465 56.0959 282.64 56.1008L351.704 56.1173L576.938 56.0429C576.789 61.2522 576.962 67.2267 576.978 72.5146L576.99 102.829L576.962 200.98L576.975 232.281C576.984 237.252 577.7 252.136 575.6 256.532C573.306 261.341 562.688 260.177 557.456 260.166L536.893 260.139L471.166 260.139L359.668 260.127C339.318 260.128 318.261 260.396 297.965 260.04C300.815 255.719 302.865 252.393 305.391 247.907C314.249 247.543 324.279 247.746 333.228 247.747L380.238 247.763L450.106 247.767C461.918 247.769 473.734 247.82 485.547 247.75C487.82 247.736 491.513 247.851 491.756 244.924C492.207 239.51 491.909 234.019 491.918 228.578L491.942 191.03L491.964 107.393C491.951 95.832 492 84.2711 491.951 72.7117C491.939 70.0108 491.565 68.0008 488.374 67.8001C481.924 67.394 475.373 67.5548 468.902 67.5621L430.755 67.585L295.078 67.5566C290.491 67.5563 261.88 67.0857 260.713 68.0998C260.648 68.1568 260.59 68.2217 260.527 68.2811C260.448 68.3545 260.365 68.4224 260.288 68.4977C259.122 69.6431 259.229 71.6424 259.151 73.1732C258.864 78.7989 259.093 84.5508 259.1 90.1908L259.109 121.334L259.049 189.807C259.165 206.776 259.136 223.746 258.962 240.715C257.332 242.908 255.231 245.365 253.484 247.511C250.953 244.496 248.799 242.169 245.844 239.586C246.442 219.896 245.944 197.747 245.946 177.864L245.987 56.219Z" fill="white"/>
<path d="M528.572 143.272C551.012 142.408 551.216 143.057 549.927 165.75C549.732 169.197 546.81 171.194 543.889 171.952C538.882 171.912 529.111 172.486 524.836 170.921C520.482 169.326 521.061 152.918 521.82 149.381C522.064 148.202 522.557 147.089 523.261 146.113C524.718 144.098 526.235 143.662 528.572 143.272Z" fill="black"/>
<path d="M527.39 146.288C530.753 145.948 540.738 146.032 544.33 146.484C545.004 146.569 546.076 147.786 546.329 148.609C547.673 152.997 547.581 162.224 546.53 166.702C546.232 167.964 544.952 168.494 543.995 168.899C541.536 169.103 526.616 169.784 525.656 167.511C523.764 163.022 524.294 154.559 524.818 149.57C524.986 147.951 526.156 147.1 527.39 146.288Z" fill="#A1ECB1"/>
<path d="M534.37 78.7221C542.478 77.9822 549.65 83.9433 550.406 92.0457C551.161 100.148 545.214 107.333 537.112 108.104C528.986 108.877 521.777 102.91 521.019 94.7853C520.263 86.6606 526.244 79.4639 534.37 78.7221Z" fill="black"/>
<path d="M533.432 81.7877C539.839 80.5496 546.04 84.7375 547.28 91.1431C548.52 97.5486 544.336 103.748 537.929 104.992C531.518 106.237 525.315 102.049 524.072 95.6389C522.829 89.229 527.021 83.0266 533.432 81.7877Z" fill="white"/>
<path d="M534.961 181.28C540.738 180.775 542.24 185.994 537.895 189.219C532.713 190.06 531.281 184.471 534.961 181.28Z" fill="black"/>
<path d="M535.68 182.652C539.254 182.8 539.126 185.62 537.329 187.927C533.901 187.859 534.221 184.851 535.68 182.652Z" fill="white"/>
<path d="M522.899 116.963C528.182 117.361 528.965 122.823 523.999 125.314C519.248 125.044 517.975 119.132 522.899 116.963Z" fill="black"/>
<path d="M523.222 118.309C526.302 119.496 525.827 121.787 524.041 123.895C523.481 123.74 522.938 123.566 522.478 123.187C521.954 122.745 521.646 122.097 521.634 121.411C521.613 120.013 522.347 119.236 523.222 118.309Z" fill="white"/>
<path d="M511.168 181.24C516.89 181.01 517.944 186.543 513.502 189.294C508.548 189.862 506.991 183.798 511.168 181.24Z" fill="black"/>
<path d="M511.595 182.577C515.025 182.768 514.818 185.687 513.213 187.921C509.745 187.933 510.336 184.71 511.595 182.577Z" fill="white"/>
<path d="M551.369 181.268C552.1 181.223 553.096 181.19 553.815 181.247C556.606 181.471 557.642 187.864 555.634 189.14C553.428 189.173 551.689 189.575 550.058 188.324C549.757 187.265 549.516 186.766 549.891 185.71C551.646 183.988 553.629 185.501 554.55 183.105C553.891 182.696 551.366 183.426 550.47 183.626L550.071 183.373C550.253 182.418 550.732 182.017 551.369 181.268Z" fill="black"/>
<path d="M538.008 117.012C538.91 116.991 540.132 116.893 540.936 117.347C543.709 118.914 543.709 125.263 539.867 125.312C538.38 125.331 537.454 124.965 536.299 124.088C536.116 122.856 535.869 122.464 536.509 121.325C538.023 119.764 539.458 121.624 540.875 119.162L540.653 118.734C539.452 118.538 537.929 119.117 536.646 119.354L536.11 118.891C536.634 117.974 537.185 117.642 538.008 117.012Z" fill="black"/>
<path d="M557.959 181.057C559.662 181.675 560.293 181.456 562.045 181.336C565.793 181.08 565.22 187.678 563.416 189.328L563.063 189.17C562.636 187.459 562.715 186.054 562.724 184.306C562.584 183.788 562.258 183.075 562.045 182.561C561.758 182.535 561.423 182.505 561.033 182.47C559.546 184.009 560.311 187.995 558.614 189.212C557.776 188.31 557.974 182.586 557.959 181.057Z" fill="black"/>
<path d="M541.667 180.974C543.358 181.973 543.919 181.503 545.741 181.382C549.428 181.137 548.821 187.649 547.082 189.329L546.695 189.136C546.323 187.768 546.42 186.265 546.436 184.838C546.436 184.612 546.299 183.682 546.265 183.404C545.589 182.658 545.93 182.883 544.94 182.579C543.029 183.814 544.001 187.19 542.764 189.397L542.304 189.359C541.35 187.825 541.667 183.038 541.667 180.974Z" fill="black"/>
<path d="M517.451 181.05C519.273 181.677 520.022 181.348 521.808 181.314C525.217 181.248 524.492 188.255 522.746 189.486C522.061 188.635 522.222 185.475 522.216 184.228C522.176 183.92 522 183.414 521.902 183.097C520.967 182.602 521.381 182.693 520.33 182.751C518.465 184.376 519.693 187.206 518.599 189.271L518.106 189.279C516.96 188.036 517.423 183.064 517.451 181.05Z" fill="black"/>
<path d="M525.54 184.252C525.955 180.35 529.827 180.065 531.607 182.926L531.433 183.428C529.632 183.76 528.874 181.714 527.207 183.255C528.164 185 530.178 184.13 531.506 185.601C533.029 189.552 526.591 191.27 525.409 186.383C527.573 186.327 527.271 188.665 529.821 187.403L529.909 186.972C528.861 185.804 527.058 185.603 525.54 184.252Z" fill="black"/>
<path d="M554.879 116.696C556.576 117.116 557.66 117.652 558.191 119.416L557.932 119.691C556.167 119.222 554.623 118.237 553.328 119.656C552.913 121.243 553.011 122.979 554.684 123.742C556.055 123.597 556.006 123.337 557.298 122.433L557.642 122.265L558.099 122.471L558.105 123.164C554.909 129.965 546.521 119.698 554.879 116.696Z" fill="black"/>
<path d="M504.02 181.001C505.632 181.166 508.161 181.828 507.143 184.002C505.867 183.85 506.232 183.08 504.581 182.501C502.32 183.35 502.137 186.63 504.069 187.915C505.129 187.862 505.513 187.383 506.357 186.698C506.744 186.237 506.494 186.405 507.201 186.308C508.277 188.455 505.361 189.861 503.292 189.21C502.494 188.953 501.829 188.385 501.455 187.634C500.126 184.984 501.29 182.183 504.02 181.001Z" fill="black"/>
<path d="M531.14 116.98C533.1 117.005 534.788 117.83 535.007 119.924L534.614 120.054C533.508 119.571 532.6 119.118 531.527 118.563C529.34 119.185 529.623 122.51 531.366 123.672C532.344 123.678 531.981 123.809 532.728 123.181C533.371 122.594 533.392 122.562 534.203 122.289L534.638 122.629C534.589 124.21 532.661 125.593 531.247 125.122C526.92 123.677 527.387 118.747 531.14 116.98Z" fill="black"/>
<path d="M567.365 178.898L567.98 179.22C568.443 180.385 569.181 180.986 570.067 181.872L570.019 182.469C569.376 182.709 569.15 182.807 568.541 183.128C567.551 187.276 570.022 187.286 570.25 189.247C569.132 189.369 568.864 189.431 567.755 189.117C565.799 187.422 567.343 185.645 566.591 183.269C566.493 182.961 565.78 183.011 565.46 181.868C566.414 180.792 566.688 180.508 567.249 179.181L567.365 178.898Z" fill="black"/>
<path d="M512.716 116.921C514.69 117.646 515.077 120.574 515.638 122.481C516.092 120.981 516.982 117.563 518.712 117.149C519.056 118.204 518.67 119.04 518.334 120.095C517.506 122.455 516.912 123.82 515.815 126.073C514.76 123.988 512.104 119.028 512.716 116.921Z" fill="black"/>
<path d="M544.647 113.527C545.284 113.707 545.269 113.729 545.771 114.109C546.423 116.145 546.436 123.561 545.643 125.403C545.15 125.168 544.513 124.939 544.41 124.507C543.965 122.684 543.968 114.959 544.647 113.527Z" fill="black"/>
<path d="M548.194 117.057C549.309 117.238 549.019 117.032 549.748 117.704C550.32 119.804 549.994 122.953 549.888 125.194C549.486 125.125 549.019 124.997 548.617 124.899C547.587 123.521 548.096 118.972 548.194 117.057Z" fill="black"/>
<path d="M186.576 202.978C191.788 204.241 201.268 207.193 205.982 209.691C224.269 219.38 238.469 237.715 253.448 251.391C256.761 248.539 260.612 243.371 263.548 239.971C270.288 232.166 277.104 222.976 284.166 215.533C286.027 217.365 289.006 219.257 291.117 220.888C296.618 225.136 303.512 229.276 308.846 233.608C306.592 240.426 297.997 254.704 293.859 260.624C285.966 271.913 273.843 289.752 259.81 292.752C246.65 295.566 233.836 285.273 223.345 278.36C224.808 271.307 225.138 265.898 223.497 258.532C222.698 254.944 220.036 245.58 217.055 242.836C216.627 242.442 215.845 242.697 215.351 242.836C214.71 244.32 219.686 255.611 220.515 258.726C224.366 273.201 217.679 280.556 216.524 293.878C206.73 287.282 197.79 285.287 186.159 286.562C183.282 286.878 178.827 287.75 176.117 287.321C175.67 286.273 175.918 285.871 176.05 284.605C176.207 283.59 176.396 282.929 176.057 281.945C174.933 280.832 165.86 279.885 163.511 279.509C153.603 277.913 143.678 276.421 133.737 275.034C135.353 268.504 137.052 262.082 138.938 255.623C139.467 253.812 140.223 251.003 139.357 249.241L138.596 249.268C138.111 249.623 137.466 250.207 137.279 250.763C134.92 257.752 132.081 267.543 130.747 274.65C127.593 273.985 121.269 272.831 118.283 273.066C117.344 273.581 117.04 274.026 117.225 275.057C118.71 276.486 124.719 276.673 127.019 277.008L145.187 279.818L161.327 282.289C164.946 282.841 169.37 283.652 172.955 283.706C172.132 292.663 170.878 301.298 169.958 310.22C156.745 310.125 143.532 310.101 130.318 310.153C116.741 310.159 97.2648 313.019 92.2597 296.555C91.1049 292.677 90.6403 288.627 90.8868 284.589C91.7396 270.373 100.876 244.853 107.445 232.158C115.784 216.046 129.042 208.446 146.018 203.342C147.229 205.748 148.432 207.533 150.236 209.691C157.075 217.874 172.46 224.193 181.758 216.705C185.672 213.554 186.275 207.825 186.576 202.978Z" fill="white"/>
<path d="M264.535 35.7968L464.054 35.7191L534.888 35.7231L557.35 35.7216C561.795 35.7185 567.078 35.5912 571.444 35.8776C578.397 40.321 576.962 45.8294 576.959 53.2381L558.34 53.1912L358.712 53.2089C321.375 53.2104 283.299 53.5979 246.009 53.1684C245.594 35.4157 247.389 35.7146 264.535 35.7968Z" fill="white"/>
<path d="M280.56 41.2577C282.385 41.074 284.021 42.3812 284.246 44.2008C284.47 46.0204 283.199 47.6855 281.385 47.9506C280.175 48.1273 278.964 47.635 278.22 46.6641C277.476 45.6932 277.316 44.3961 277.802 43.2738C278.288 42.1515 279.343 41.3799 280.56 41.2577Z" fill="black"/>
<path d="M255.813 41.6943C257.381 40.717 259.445 41.1962 260.423 42.7648C261.4 44.333 260.921 46.3969 259.352 47.3742C257.783 48.3515 255.719 47.8723 254.742 46.3037C253.765 44.7352 254.244 42.6716 255.813 41.6943Z" fill="black"/>
<path d="M268.499 41.3397C270.201 40.9543 271.91 41.9535 272.41 43.6251C272.909 45.2969 272.028 47.0696 270.393 47.681C269.233 48.1151 267.928 47.8665 267.008 47.0367C266.088 46.2065 265.708 44.9335 266.022 43.735C266.335 42.5369 267.29 41.6129 268.499 41.3397Z" fill="black"/>
<path d="M157.438 116.538C167.475 123.731 179.563 125.754 191.271 121.38C193.627 120.5 199.638 117.34 201.815 117.926C207.323 119.409 207.279 124.124 214.086 125.886C216.4 142.863 219.123 165.025 207.016 179.113C198.824 188.52 185.795 192.107 173.942 188.219C171.975 187.572 168.498 185.21 166.997 185.326L166.543 185.936C165.632 191.958 173.639 197.668 178.423 200.006C180.228 200.799 181.368 201.163 183.224 201.729C183.17 215.635 177.444 219.45 163.375 215.297C158.449 213.843 150.505 206.966 149.292 202C148.075 197.017 148.88 188.898 148.926 183.384C148.935 179.07 148.851 174.756 148.675 170.446C148.572 167.946 148.392 162.956 147.396 160.701C145.617 160.138 144.129 162.557 142.305 163.189C131.593 166.903 123.351 152.463 131.243 144.895C137.088 139.29 143.22 143.065 147.962 148.152C156.757 136.365 158.738 131.726 157.438 116.538Z" fill="white"/>
<path d="M195.726 140.279C197.42 141.511 199.478 146.977 200.296 149.065C202.427 154.509 200.472 156.396 195.379 157.874C194.111 157.863 193.73 157.754 193.296 156.634C194.096 154.399 196.405 154.575 196.892 153.862C199.706 149.749 190.814 144.373 195.726 140.279Z" fill="black"/>
<path d="M182.752 162.948C185.857 163.826 187.864 166.12 191.848 166.541C194.335 166.804 200.719 165.024 201.36 167.28C201.025 168.209 200.857 168.248 200.027 168.873C199.47 169.064 198.907 169.233 198.337 169.379C194.448 170.35 182.577 169.12 181.555 164.735C181.735 163.761 181.995 163.62 182.752 162.948Z" fill="black"/>
<path d="M177.145 130.746C179.207 130.534 181.869 130.343 182.622 132.814C181.513 135.535 176.941 133.385 173.006 135.322L172.728 135.461C171.424 136.64 170.383 137.943 168.771 136.544C168.051 132.796 174.573 131.329 177.145 130.746Z" fill="black"/>
<path d="M134.14 147.736C139.497 147.524 146.471 153.27 142.367 158.069C140.265 156.909 140.303 155.51 139.721 153.313C137.835 151.895 134.013 150.983 133.306 149.725C133.275 148.747 133.533 148.533 134.14 147.736Z" fill="black"/>
<path d="M204.713 128.926C207.709 128.536 212.269 128.711 213.343 132.222C213.123 133.225 213.342 132.882 212.519 133.505C211.409 133.738 210.878 133.344 209.876 132.844C206.493 131.862 202.681 133.733 200.658 131.769C200.64 130.811 200.587 131.171 201.074 130.281C202.104 129.533 203.468 129.263 204.713 128.926Z" fill="black"/>
<path d="M177.961 139.765C182.543 140.119 183.44 145.783 179.454 148.074C174.158 148.077 174.344 142.247 177.961 139.765Z" fill="black"/>
<path d="M206.515 138.207C206.758 138.22 207 138.238 207.242 138.261C211.407 138.666 211.881 143.741 208.469 146.419C203.456 146.989 203.539 141.276 206.515 138.207Z" fill="black"/>
<path d="M58.2623 313.33C63.5849 313.08 69.8313 313.214 75.22 313.22L103.146 313.26L186.902 313.287H395.786L395.692 324.008C393.516 324.577 378.949 324.065 375.71 324.062L317.737 324.078L58.2815 324.12C58.2005 320.526 58.1941 316.928 58.2623 313.33Z" fill="white"/>
<path d="M105.306 219.773L112.154 219.505C101.014 231.761 87.7634 269.971 87.7028 287.174C87.6827 292.86 89.566 301.199 93.5592 305.434C94.7191 306.665 97.2685 308.392 98.78 309.842L98.6725 310.141L97.5762 310.198L84.2854 310.177C83.1684 300.884 82.6505 291.235 81.6898 281.897C80.5064 270.394 79.3199 258.759 78.3998 247.252C77.8181 239.979 78.614 233.215 83.7943 227.655C90.1933 220.786 96.7816 220.225 105.306 219.773Z" fill="white"/>
<path d="M338.681 141.4C350.516 141.453 362.389 141.229 374.211 141.435C374.281 152.331 374.281 163.228 374.214 174.124C362.374 174.156 350.534 174.113 338.694 173.993C338.188 164.449 338.624 151.101 338.681 141.4Z" fill="#A1ECB1"/>
<path d="M358.843 148.422C365.759 147.589 366.822 153.107 366.554 158.918C366.411 162.024 365.25 164.544 362.557 166.204C361.877 166.309 360.101 166.532 359.501 166.306C353.023 163.87 353.334 151.82 358.843 148.422Z" fill="black"/>
<path d="M360.311 158.261L364.217 158.245C363.763 161.269 363.861 162.923 360.966 164.613C358.699 163.725 356.597 161.297 357.743 158.793C358.773 158.05 358.788 158.299 360.311 158.261Z" fill="#A1ECB1"/>
<path d="M359.586 150.485C362.767 150.201 364.559 152.547 363.629 155.867C363.517 156.267 362.801 156.249 362.35 156.326C360.086 156.38 358.48 156.911 357.438 154.665C357.414 153.079 358.584 151.611 359.586 150.485Z" fill="#A1ECB1"/>
<path d="M351.417 148.504C352.53 148.698 352.328 148.485 352.929 149.159C352.788 150.981 347.152 165.809 346.155 167.976C345.342 167.896 344.937 167.962 344.388 167.432C344.37 166.09 350.4 150.67 351.417 148.504Z" fill="black"/>
<path d="M338.621 70.4918C350.473 70.3648 362.325 70.3635 374.178 70.4881C374.275 73.986 374.528 101.973 373.867 103.112C363.507 103.553 349.172 103.254 338.669 103.131C338.41 92.4167 338.898 81.3253 338.621 70.4918Z" fill="white"/>
<path d="M355.613 81.6793C358.218 81.6549 361.219 82.6148 361.536 85.5698C361.128 86.4471 361.39 86.2199 360.616 86.5367C358.73 86.0611 358.136 82.924 355.918 83.8671C351.753 85.6371 352.274 95.1396 358.8 92.2934C359.54 91.339 359.824 90.7102 361.079 90.7434L361.408 91.2457C361.268 94.4682 356.893 95.9289 354.467 94.6424C349.3 91.9031 349.927 83.6311 355.613 81.6793Z" fill="black"/>
<path d="M415.368 141.496C422.8 141.232 430.411 141.533 437.86 141.396C442.135 141.318 446.611 141.339 450.874 141.499C450.907 151.685 451.3 164.007 450.849 173.969C440.2 174.469 426.258 174.052 415.326 174.012C415.14 163.61 415.189 151.881 415.368 141.496Z" fill="white"/>
<path d="M427.894 152.778C430.603 153.156 428.979 153.627 430.624 153.879C431.203 153.968 433.18 152.518 434.451 152.733C435.347 152.885 436.331 153.094 437.001 154.07C439.079 157.099 438.052 163.946 438.058 167.622C438.061 168.404 436.849 169.883 436.127 170.272C435.2 170.774 434.789 171.053 433.723 170.825C432.94 170.206 433.193 170.481 432.803 169.485C433.363 167.928 435.103 170.025 435.724 167.017C435.764 164.148 436.221 157.686 435.063 155.351C434.326 154.737 434.423 154.704 433.378 154.696C428.644 154.659 430.517 161.491 430.176 164.476C430.048 165.599 429.853 165.495 429.043 166.149C427.818 166.001 427.812 164.558 427.809 163.5C427.797 159.957 427.626 156.308 427.894 152.778Z" fill="black"/>
<path d="M338.77 105.99C340.549 105.872 342.56 105.844 344.346 105.873C354.236 106.032 364.342 105.57 374.211 106.003C374.583 115.774 374.324 128.685 374.226 138.521C362.721 138.572 350.193 138.733 338.739 138.419C338.374 129.053 338.554 115.405 338.77 105.99Z" fill="white"/>
<path d="M351.302 117.348C353.325 117.297 356.658 118.589 356.795 118.539C362.057 116.651 364.818 115.879 365.908 124.309C363.23 124.257 360.549 124.264 357.871 124.332C356.975 125.261 357.959 127.405 358.706 128.082C360.595 129.799 363.002 126.895 365.052 126.797C365.561 127.393 365.418 127.042 365.369 127.929C364.388 129.511 363.315 129.977 361.64 130.601C361.536 130.597 360.381 130.539 360.439 130.523C359.208 130.851 356.743 128.494 356.015 128.847C354.525 129.586 353.45 130.633 351.689 130.584C349.269 130.516 347.112 129.062 347.234 126.412C347.438 121.834 353.352 123.461 355.159 122.047C355.36 120.78 354.812 120.129 353.879 119.334C351.667 118.678 350.211 120.853 347.932 121.374L347.548 121.085C347.438 118.918 349.632 118.041 351.302 117.348Z" fill="black"/>
<path d="M352.079 124.389C353.072 124.317 353.687 124.194 354.641 124.489C355.406 125.252 355.22 124.875 355.387 125.894C354.781 127.67 353.925 128.075 352.35 128.874C350.095 128.819 349.169 127.682 349.873 125.553C350.619 124.668 350.985 124.653 352.079 124.389Z" fill="white"/>
<path d="M359.696 119.128C361.329 119.205 363.693 120.118 363.428 122.082C362.651 122.701 362.599 122.522 361.49 122.607L361.308 122.609C359.903 122.625 357.578 122.962 357.603 121.052C358.316 119.975 358.629 119.83 359.696 119.128Z" fill="white"/>
<path d="M415.347 70.4574C426.794 70.2569 439.347 70.295 450.791 70.4498L450.87 103.189L415.362 103.182C415.033 92.7741 415.289 80.956 415.347 70.4574Z" fill="white"/>
<path d="M432.717 81.7024C436.206 81.7097 439.591 84.8018 438.387 88.2079C436.511 90.5399 431.02 87.973 429.914 90.2678C431.133 94.1562 434.548 93.0394 437.217 91.6189C437.76 91.6789 437.799 91.7959 438.208 92.1605L438.159 92.8929C435.289 96.5391 429.363 95.4406 427.854 90.715C427.239 88.7904 427.434 86.6978 428.394 84.9193C429.439 83.0227 430.715 82.2718 432.717 81.7024Z" fill="black"/>
<path d="M432.041 83.7319C434.21 83.6009 437.23 85.185 435.871 87.2404L434.865 87.3598C433.442 87.3363 430.587 87.7269 430.2 86.1982C430.52 85.1996 431.316 84.498 432.041 83.7319Z" fill="white"/>
<path d="M415.332 212.257C427.181 212.201 439.03 212.224 450.877 212.325C450.782 223.138 450.91 234.124 450.937 244.95L415.359 244.971C415.073 234.393 415.277 222.893 415.332 212.257Z" fill="white"/>
<path d="M436.547 232.943C437.086 231.142 438.424 224.899 439.594 224.056C440.548 223.994 440.56 223.818 441.099 224.259C441.215 225.621 440.435 227.635 440.005 229.007C439.506 230.751 438.433 236.438 436.3 236.482C434.679 235.248 433.415 229.145 432.857 226.96C432.403 229.045 431.038 235.203 429.503 236.433C428.896 236.429 428.963 236.569 428.546 236.161C427.318 234.959 424.545 224.931 424.57 223.951C425.161 223.994 425.639 224.141 426.212 224.287C427.678 225.864 428.695 231.247 429.244 233.581C429.713 231.732 430.965 224.116 433.22 224.553C434.78 226.046 435.871 230.664 436.547 232.943Z" fill="black"/>
<path d="M300.32 70.4498C311.61 70.1497 324.434 70.355 335.784 70.4202L335.769 103.187C324.571 103.191 311.461 103.512 300.376 103.051C299.915 93.2268 300.303 80.4909 300.32 70.4498Z" fill="white"/>
<path d="M313.892 76.3046C315.352 77.138 314.998 81.2122 315.041 82.8762C319.416 80.9515 322.722 81.6823 323.709 87.1636C324.16 89.6571 323.167 92.0226 321.585 93.9853C319.843 95.0677 318.874 94.9544 316.881 94.7238C315.815 94.6004 313.609 94.8709 312.801 94.3664C312.204 91.0255 312.701 81.7639 312.734 77.8804C312.743 76.9504 313.243 76.7755 313.892 76.3046Z" fill="black"/>
<path d="M316.918 83.7761C322.594 83.5211 322.283 89.5504 319.334 92.7619C315.007 93.6143 314.276 89.827 314.983 86.5226C315.391 84.6044 315.342 84.8575 316.918 83.7761Z" fill="white"/>
<path d="M415.444 105.821C426.096 105.775 440.331 105.44 450.779 105.971C451.038 116.589 450.944 127.87 450.877 138.518L415.304 138.493C415.228 128.037 415.109 116.198 415.444 105.821Z" fill="white"/>
<path d="M429.612 117.411C431.111 117.28 434.826 116.963 435.901 117.956C435.465 118.746 434.18 120.234 434.064 120.748C433.726 122.273 433.704 126.845 434.283 128.111C434.993 128.418 435.219 128.447 435.986 128.599C436.456 129.378 436.306 129.135 436.236 130.222C435.002 130.265 433.768 130.292 432.534 130.302C431.172 130.302 430.405 130.337 429.518 129.456L429.6 128.99C430.249 128.733 430.889 128.459 431.526 128.169C431.943 126.707 431.666 122.673 431.678 120.978C431.69 119.43 430.642 119.243 429.622 118.346L429.612 117.411Z" fill="black"/>
<path d="M338.727 212.274C350.458 212.26 362.539 212.105 374.242 212.339C374.394 223.051 374.235 234.137 374.226 244.878L338.697 244.897L338.727 212.274Z" fill="white"/>
<path d="M351.573 224.179C352.667 224.217 354.102 224.226 354.964 224.841L355.019 225.449L353.937 226.374C353.483 227.957 353.69 231.721 353.724 233.566C355.311 234.348 355.738 234.275 356.225 235.991C353.434 235.902 352.871 237.075 351.844 236.868C350.963 234.993 351.497 226.691 351.573 224.179Z" fill="black"/>
<path d="M358.504 224.217C359.486 224.22 360.381 224.084 361.137 224.623C361.125 227.026 361.143 230.053 361.6 232.395C362.088 234.881 362.56 233.668 362.075 236.494C360.753 236.464 359.961 236.559 358.931 235.882C358.264 234.711 358.383 233.397 358.581 232.111C359.007 229.345 358.794 226.981 358.504 224.217Z" fill="black"/>
<path d="M262.807 70.5253C273.448 70.1783 286.761 70.2971 297.416 70.507C297.405 73.8745 297.628 101.802 297.179 102.892L296.385 103.103C284.936 103.199 273.487 103.211 262.038 103.14L262 82.9904C261.997 79.4237 261.958 75.7324 262.068 72.1612C262.1 71.0928 262.169 71.0386 262.807 70.5253Z" fill="white"/>
<path d="M277.188 82.0503C286.244 80.8747 284.278 87.5822 284.497 94.4042L284.179 94.6616C280.7 94.7198 277.142 95.4982 274.77 93.4345C272.092 85.1829 280.6 88.975 281.916 85.766C281.789 84.8527 281.705 84.7567 281.107 84.046C278.827 83.1135 277.17 85.2633 274.819 85.5649C273.958 84.007 276.09 82.7385 277.188 82.0503Z" fill="black"/>
<path d="M280.2 88.7282C281.442 88.7011 281.575 88.713 282.218 89.7049C282.228 91.8995 280.208 92.662 278.447 93.0915C277.334 92.7558 276.88 92.4749 276.324 91.4876C276.531 89.2299 278.307 89.0021 280.2 88.7282Z" fill="white"/>
<path d="M453.777 70.4869C462.315 70.1186 471.093 70.536 479.651 70.3913C482.686 70.3398 486.05 70.4123 489.06 70.6788L489.078 91.6899C489.084 94.88 489.252 100.053 488.947 103.103C487.415 103.187 485.648 103.195 484.103 103.16C474.103 102.934 463.713 103.593 453.747 103.05C453.573 92.3625 453.747 81.2131 453.777 70.4869Z" fill="white"/>
<path d="M475.806 81.1696C476.662 81.5757 476.446 81.3204 476.778 82.0722C475.693 83.7255 475.983 84.1136 476.507 86.0191C477.424 89.3469 477.052 92.1864 474.146 94.3719C470.876 96.8279 469.892 92.9992 466.976 95.2764C466.48 95.372 466.345 95.301 465.852 95.1981C465.401 93.9055 466.793 93.7197 466.562 93.0281C464.31 86.2698 465.215 81.1175 473.631 82.2672C474.691 82.4119 475.069 81.8111 475.806 81.1696Z" fill="black"/>
<path d="M474.039 86.0727L474.401 86.2838C475.642 88.4208 474.682 90.6154 473.18 92.283C472.363 93.1911 471.446 93.0945 470.306 93.146L469.706 92.3994C469.731 90.6757 472.838 87.4667 474.039 86.0727Z" fill="white"/>
<path d="M469.828 83.7185C471.056 83.6722 472.138 83.3748 472.79 84.5044C472.604 85.524 470.288 88.1564 469.453 89.251C469.082 89.8459 469.057 89.965 468.405 90.2617C466.812 88.4982 468.384 85.2337 469.828 83.7185Z" fill="white"/>
<path d="M300.394 105.804L335.775 105.832L335.714 138.561C323.947 138.593 312.177 138.565 300.41 138.477C300.101 131.909 300.432 125.079 300.292 118.484C300.203 114.325 300.244 109.949 300.394 105.804Z" fill="white"/>
<path d="M316.558 117.344C317.149 117.311 317.743 117.315 318.337 117.356C319.861 117.475 322.768 119.077 322.606 120.722C320.903 121.719 317.353 117.113 315.16 120.576C315.693 122.591 318.423 122.545 319.581 124.047C317.807 125.384 316.138 123.827 314.971 126.337C315.315 128.279 317.1 128.637 318.752 128.742C320.787 128.034 320.236 126.765 322.088 126.243C322.899 126.637 322.631 126.384 323.033 127.338C321.701 132.381 310.608 130.819 313.179 125.988C315.446 121.728 312.664 122.58 313.231 119.789C313.974 118.331 315.12 117.896 316.558 117.344Z" fill="black"/>
<path d="M263.441 105.838C274.64 106.01 286.176 105.596 297.334 106C297.495 112.893 297.256 120.13 297.351 127.059C297.377 128.944 297.46 136.795 297.221 138.311L296.494 138.544C285.15 138.711 273.399 138.547 262.023 138.543C262.018 134.615 261.708 107.094 262.326 106.033L263.441 105.838Z" fill="white"/>
<path d="M274.298 117.686C274.881 117.778 275.463 117.871 276.046 117.963C276.638 120.02 275.856 126.584 277.856 128.16C282.671 131.952 282.248 120.196 283.774 118.545L284.34 118.711C284.828 119.322 284.786 120.09 284.865 120.912C285.042 124.191 284.443 131.191 279.226 130.555C273.541 129.863 273.844 122.084 274.298 117.686Z" fill="black"/>
<path d="M457.12 212.172C467.753 212.126 478.387 212.168 489.017 212.3L489.026 244.724L486.293 244.867C475.437 244.959 464.581 244.97 453.725 244.9L453.768 212.325L457.12 212.172Z" fill="white"/>
<path d="M465.818 223.982C466.096 223.942 466.336 223.912 466.617 223.888L466.955 223.86C469.085 223.667 470.431 225.481 471.318 225.119C476.644 222.942 479.932 222.986 480.568 230.727C478.78 230.755 474.133 230.724 472.576 230.976C472.156 231.708 472.183 231.949 472.378 232.82C473.171 236.339 478.152 233.604 479.935 232.849L480.309 233.547C479.423 235.054 478.768 235.489 477.354 236.435C473.231 237.202 474.286 236.161 470.846 235.397C470.486 235.318 463.128 238.354 462.244 234.898C460.438 227.818 468.954 230.697 469.728 227.923C469.441 226.871 469.389 226.751 468.646 225.958C466.099 224.774 465.913 227.214 463.064 227.861L462.711 227.535C462.665 225.397 464.194 224.76 465.818 223.982Z" fill="black"/>
<path d="M465.98 231.013C467.619 230.919 470.172 230.37 470.078 232.766C469.456 233.865 469.115 233.999 468.067 234.625C466.306 234.925 464.295 234.877 464.316 232.638C464.719 231.705 465.136 231.539 465.98 231.013Z" fill="white"/>
<path d="M474.408 225.713C476.33 225.725 478.137 226.666 478.219 228.753C477.549 229.342 477.741 229.153 476.607 229.2C474.98 229.247 473.302 229.585 472.144 228.277L472.199 227.555C472.973 226.483 473.274 226.366 474.408 225.713Z" fill="white"/>
<path d="M377.249 70.4373C388.501 70.1104 401.139 70.4065 412.471 70.4577V103.187L377.185 103.156C376.987 92.6221 377.154 80.9871 377.249 70.4373Z" fill="white"/>
<path d="M397.431 76.7164C398.4 76.7128 398.665 76.6747 399.558 77.0174C399.994 78.4675 399.911 93.7669 399.089 94.5623C396.405 94.7612 393.739 95.1859 391.344 94.2665C386.179 89.4804 389.238 78.4218 397.486 82.7759L397.431 76.7164Z" fill="black"/>
<path d="M393.662 83.6944C398.818 83.7782 397.678 88.2335 397.087 91.7429L395.134 92.9465C389.903 92.7841 389.948 86.4733 393.662 83.6944Z" fill="white"/>
<path d="M454.761 105.822C465.645 105.867 478.314 105.516 489.042 105.942L489.039 127.008C489.036 130.55 489.118 134.347 488.905 137.869C488.877 138.303 488.859 138.151 488.371 138.54C476.842 138.597 465.313 138.586 453.786 138.508C453.768 133.736 453.174 109.01 454.006 106.189L454.761 105.822Z" fill="white"/>
<path d="M474.277 117.294C475.306 117.38 476.251 117.347 477.11 117.861C477 118.662 476.193 119.235 475.52 119.945C475.504 120.855 477.003 122.004 477.39 123.329C479.599 130.933 467.089 133.398 465.599 126.494C465.002 123.721 466.406 121.759 467.832 119.565C467.491 119.333 466.379 119.057 465.879 118.889L465.636 118.399C466.504 117.217 468.384 117.171 469.606 117.853C470.8 121.096 465.264 124.137 469.191 127.553C471.004 129.13 473.42 128.97 474.871 127.188C476.778 124.845 472.997 120.904 472.665 118.968C472.973 118.12 473.274 117.997 474.021 117.473L474.277 117.294Z" fill="black"/>
<path d="M377.212 105.819L412.468 105.837L412.452 138.502L377.17 138.543C377.069 127.963 376.975 116.35 377.212 105.819Z" fill="white"/>
<path d="M389.171 117.197L400.064 117.241C398.827 119.152 396.67 121.288 395.067 122.984C395.515 123.169 397.212 123.846 397.547 124.122C403.498 129.008 397.821 138.923 390.305 133.619C389.653 132.756 389.104 132.211 388.937 131.158C389.558 130.136 389.223 130.397 390.165 129.958C391.999 130.69 391.036 132.559 393.787 132.981C394.714 133.114 395.652 132.842 396.362 132.235C397.242 131.484 397.763 130.394 397.794 129.237C397.861 125.26 393.863 125.117 391.069 125.172C392.757 123.224 394.448 121.157 396.112 119.176C394.253 119.208 392.273 119.609 390.457 119.268C389.232 119.038 389.354 118.196 389.171 117.197Z" fill="black"/>
<path d="M262.048 141.49C269.01 141.128 276.348 141.551 283.348 141.392C287.922 141.288 292.787 141.353 297.35 141.513L297.372 173.985C286.249 174.237 273.176 174.191 262.021 174.03C261.947 163.183 261.956 152.336 262.048 141.49Z" fill="white"/>
<path d="M278.112 149.629C285.284 149.364 286.349 156.783 284.614 162.378C283.987 164.398 282.514 165.323 280.626 166.084C273.334 167.424 270.938 153.003 278.112 149.629Z" fill="black"/>
<path d="M276.293 158.437C278.506 158.347 280.71 158.38 282.924 158.394C282.772 160.483 282.587 161.408 281.764 163.327C276.968 165.435 276.865 162.154 276.293 158.437Z" fill="white"/>
<path d="M278.337 151.428C278.753 151.418 280.015 151.374 280.335 151.529C282.033 152.349 283.142 154.686 282.539 156.364L281.607 156.55C279.462 156.606 278.125 156.952 276.474 155.653C275.563 153.774 276.876 152.565 278.337 151.428Z" fill="white"/>
<path d="M377.224 212.267C388.629 212.042 401.06 212.201 412.477 212.282C412.654 223.019 412.501 234.181 412.507 244.953L377.209 244.921C377.042 234.292 377.13 222.895 377.224 212.267Z" fill="white"/>
<path d="M389.409 224.069C390.247 224.085 390.326 224.088 391.124 224.327C392.066 225.819 391.792 231.138 391.959 233.538C392.745 234.209 393.705 234.835 394.558 235.431L397.236 232.888C397.3 230.571 397.002 225.915 398.223 224.128L398.641 224.218C399.744 226.327 399.482 230.62 399.457 233.122C399.646 234.782 400.658 235.051 399.305 236.686C398.312 236.726 398.418 236.511 397.486 235.672C395.256 235.379 396.52 238.283 391.603 235.843C390.978 237.196 392.118 239.33 391.225 240.652C390.289 241.082 390.683 241.059 389.747 240.841C389.052 239.656 389.397 226.172 389.409 224.069Z" fill="black"/>
<path d="M377.084 141.409C388.215 141.173 401.203 141.276 412.337 141.481C412.523 144.758 412.721 172.864 412.169 174.023L377.221 174.069C376.905 163.58 377.078 151.985 377.084 141.409Z" fill="white"/>
<path d="M392.364 147.753C393.431 147.693 394.89 147.52 395.71 148.125L395.832 149.006C394.768 150.167 394.107 149.284 392.651 150.439C392.203 151.527 391.953 152.023 392.779 152.882C393.711 153.042 394.083 153.071 394.942 153.511L395.131 154.284C394.272 155.348 394.049 154.487 392.553 155.294C392.054 157.177 392.358 162.43 392.407 164.579C392.404 165.77 392.27 165.811 391.405 166.355C388.416 164.334 390.881 158.454 389.842 155.377C389.695 154.949 388.678 154.757 388.041 154.508C387.815 153.737 387.803 154.118 388.163 153.334C391.782 152.32 388.135 151.396 392.364 147.753Z" fill="black"/>
<path d="M397.523 152.697C398.461 152.808 398.97 152.753 399.628 153.399C399.936 155.902 400.003 167.298 399.372 169.521C398.763 170.438 398.022 170.682 397.038 171.146C396.06 171.155 395.838 171.234 395.033 170.766L394.905 170.202C395.414 169.25 396.618 168.584 397.544 167.958C397.468 162.872 397.459 157.784 397.523 152.697Z" fill="black"/>
<path d="M415.39 176.976C426.849 176.854 439.493 176.719 450.922 176.998L450.837 209.288L415.301 209.289C415.289 198.715 415.1 187.498 415.39 176.976Z" fill="white"/>
<path d="M427.879 187.968C428.573 187.981 428.924 188.065 429.612 188.199C431.047 189.182 432.068 191.117 433.095 192.643C434.396 190.3 434.64 189.479 436.87 187.973L437.665 188.181C437.61 190.307 435.624 192.463 434.323 194.199C435.377 195.52 438.32 199.173 438.357 200.71L437.714 201.127C437.528 201.084 437.339 201.041 437.153 200.999L436.922 200.934C435.103 200.453 433.954 197.522 433.132 195.921C432.111 197.651 430.6 200.695 428.424 201.114L428.15 200.628C428.653 198.15 430.426 196.363 432.016 194.364C430.502 192.555 428.357 190.254 427.879 187.968Z" fill="black"/>
<path d="M338.691 177.014C349.312 176.543 363.309 176.957 374.22 176.982L374.269 198.59C374.272 200.87 374.424 207.329 374.107 209.274L338.718 209.259C338.368 199.946 338.462 186.385 338.691 177.014Z" fill="white"/>
<path d="M358.309 188.173C359.388 188.275 359.717 188.114 360.421 188.724L360.4 189.826C359.69 190.747 359.473 190.541 358.078 190.921C356.472 192.213 356.46 197.364 355.671 199.49C355.189 200.79 354.976 201.236 354.272 202.474C353.986 202.232 353.572 201.99 353.651 201.533C354.102 198.939 353.898 190.788 355.217 188.951L355.866 188.883L356.807 189.701C357.542 189.539 357.746 188.934 358.309 188.173Z" fill="black"/>
<path d="M453.75 141.473C464.846 141.121 477.869 141.297 489.023 141.437L488.959 174.091L453.795 173.957C453.6 163.288 453.716 152.17 453.75 141.473Z" fill="white"/>
<path d="M477.131 152.927C484.785 152.196 484.106 163.621 480.797 165.791C479.788 166.062 479.606 165.959 478.603 165.612C478.125 164.814 478.192 165.195 478.39 164.237C478.981 164.006 479.374 163.836 479.947 163.555C481.141 160.791 481.489 154.979 477.326 154.731L477.046 154.716C476.175 155.24 475.111 156.004 474.252 156.587C474.243 159.161 474.386 160.259 475.075 162.716C475.312 163.568 475.593 164.584 475.154 165.305C474.118 165.603 473.158 166.103 472.36 165.248C473.503 161.727 470.633 156.073 471.781 153.643C473.987 152.847 473.417 155.255 477.131 152.927Z" fill="black"/>
<path d="M466.001 148.179C466.76 148.54 466.464 148.28 466.921 148.981C466.879 151.303 461.349 166.115 459.807 167.754L458.814 167.254C458.418 165.919 464.834 149.816 466.001 148.179Z" fill="black"/>
<path d="M453.738 176.969C464.14 176.487 478.326 176.967 488.972 176.994C488.719 187.308 489.008 198.87 489.023 209.259L453.725 209.277L453.738 176.969Z" fill="white"/>
<path d="M466.221 187.862C467.187 187.883 468.006 187.728 468.329 188.719C469.923 193.616 464.49 200.94 473.698 198.784C473.826 196.799 474.054 192.068 473.701 190.298C472.659 189.899 472.366 189.787 471.4 189.167L471.294 188.654L471.97 188.093C473.753 188.298 475.303 188.102 477.058 188.241C477.738 188.294 477.768 188.632 478.158 189.242L476.702 189.974C475.949 191.256 475.916 194.893 476.126 196.413C476.446 198.728 476.053 198.362 477.744 199.712L477.689 200.371C476.013 201.113 468.049 201.12 466.504 200.046C466.373 199.85 466.215 199.612 466.029 199.332C466.169 195.825 466.205 191.292 466.221 187.862Z" fill="black"/>
<path d="M377.261 176.96C388.626 176.698 400.975 176.958 412.416 177.005C412.608 187.579 412.455 198.681 412.361 209.277L377.227 209.266C377.02 198.941 377.124 187.274 377.261 176.96Z" fill="white"/>
<path d="M389.397 188.217C391.362 188.179 397.288 187.735 399.016 188.782C399.369 188.996 399.299 189.301 399.354 189.777C398.757 191.295 393.571 197.233 392.2 198.885C394.601 198.789 396.801 198.495 399.095 199.072C399.869 199.725 399.631 199.427 399.78 200.724C397.392 200.899 391.124 201.68 389.54 199.854C389.442 198.006 395.143 191.888 396.642 190.065C394.842 190.041 391.389 190.563 389.866 189.713C389.509 189.515 389.491 188.741 389.397 188.217Z" fill="black"/>
<path d="M300.37 141.518C311.305 141.107 324.672 141.381 335.72 141.426C335.854 152.234 335.714 163.336 335.705 174.168L328.986 174.112C324.285 174.08 327.908 171.39 324.766 168.84C320.589 165.45 315.266 171.496 312.984 173.986L300.446 174.005C300.362 172.207 300.333 170.353 300.356 168.552C300.471 159.592 300.033 150.461 300.37 141.518Z" fill="white"/>
<path d="M316.214 148.407C323.746 147.662 324.376 155.055 323.38 160.824C322.953 163.282 321.631 164.896 319.526 166.144C311.686 167.373 311.412 158.637 312.615 153.149C313.121 150.84 314.194 149.541 316.214 148.407Z" fill="black"/>
<path d="M315.842 158.249C318.13 158.143 320.117 157.534 321.238 159.867C321.259 161.554 320.19 162.93 319.154 164.147C315.489 165.351 313.956 160.272 315.077 158.423L315.842 158.249Z" fill="white"/>
<path d="M316.799 150.13C319.693 150.337 321.777 152.677 320.839 155.892C320.72 156.298 320.138 156.289 319.693 156.384C318.968 156.398 318.246 156.406 317.524 156.401C312.814 156.371 314.718 152.169 316.799 150.13Z" fill="white"/>
<path d="M262.046 176.98C265.758 176.773 270.647 176.914 274.427 176.917C282.051 176.911 289.675 176.952 297.299 177.037C297.261 181.484 297.263 185.931 297.303 190.378C291.659 192.059 289.998 194.297 287.704 199.468C286.463 203.303 286.313 205.297 286.026 209.356C278.545 209.085 269.578 209.288 262.012 209.273C261.916 198.57 262.02 187.698 262.046 176.98Z" fill="white"/>
<path d="M274.506 183.637C275.809 183.628 275.626 183.435 276.576 184.048C277.418 185.902 275.412 188.071 277.147 189.115C283.178 186.596 284.595 189.347 284.586 194.994C284.583 196.888 284.892 198.46 283.97 200.273C283.152 200.9 283.534 200.794 282.579 200.735C282.021 199.839 282.253 194.315 282.254 192.801C282.236 192.225 282.118 191.747 282.006 191.184C280.404 189.373 278.528 190.633 276.613 191.456C276.544 193.323 276.793 199.38 276.385 200.452C275.624 201.092 275.993 200.955 275.001 200.966L274.49 200.456C274.001 196.143 274.334 188.105 274.506 183.637Z" fill="black"/>
<path d="M86.335 220.583L86.5066 220.623L86.6105 220.926C81.3211 224.963 75.6472 232.005 75.3773 238.942C74.983 249.081 76.5226 260.04 77.529 270.205L81.2876 310.241L73.0488 310.232C72.5537 310.101 72.7414 310.171 72.3264 309.802C70.785 296.888 70.1622 283.259 68.7613 270.197C68.2966 261.487 66.5392 252.474 66.6714 243.764C66.8555 231.638 75.5192 223.65 86.335 220.583Z" fill="white"/>
<path d="M188.485 289.534C200.931 288.353 210.426 292.678 219.912 300.393C221.151 301.401 224.19 304.303 224.434 305.836C224.21 306.799 224.42 306.473 223.66 307.076C222.925 306.649 222.888 306.598 222.571 305.894C220.698 301.728 203.012 292.396 199.969 294.27C199.611 295.307 199.358 296.258 200.201 297.064C203.687 297.482 222.974 305.507 220.056 309.76C218.867 310.357 217.031 310.183 215.645 310.168C214.595 307.122 213.676 306.147 210.816 304.355C208.116 302.664 200.083 299.083 197.102 299.749C196.531 300.266 195.874 301.754 196.493 302.148C199.235 303.898 211.796 305.638 211.445 309.894C208.302 311.67 199.975 307.643 197.172 307.722C185.053 308.066 185.607 312.827 173.249 307.015C174.051 301.624 174.625 296.079 175.363 290.646C179.44 290.453 184.359 289.898 188.485 289.534Z" fill="white"/>
<path d="M331.86 212.234L335.796 212.326L335.759 244.949L307.037 244.978L310.464 238.539C311.388 236.704 312.28 234.762 313.164 232.899C312.262 232.23 310.821 231.361 309.84 230.73C312.222 230.034 314.31 228.957 316.458 227.751C316.199 231.428 315.099 237.463 320.65 236.736C321.366 236.112 321.144 236.4 321.384 235.339C320.885 234.715 320.321 234.832 319.322 234.665C318.331 233.618 318.724 228.265 318.749 226.467C321.643 225.708 320.543 225.211 322.439 223.272C326.186 219.444 329.501 217.187 331.86 212.234Z" fill="white"/>
<path d="M299.011 193.177C301.255 193.113 310.934 196.321 311.851 198.13C309.84 202.791 301.259 199.553 298.82 201.644L298.9 202.379C299.599 203.515 300.523 204.047 301.613 204.82C302.504 207.862 302.721 210.088 302.294 213.212C302.127 214.437 301.6 216.916 302.052 217.854L302.699 217.968C307.996 216.328 305.279 207.63 304.588 203.781C305.629 206.116 306.528 209.024 309.328 209.643C310.413 209.882 310.83 212.671 311.458 213.491C312.049 214.26 312.804 214.804 313.563 215.392C317.384 215.393 315.507 215.98 317.548 219.247C317.713 219.514 319.38 220.769 319.751 221.049C315.443 225.396 312.893 226.173 307.436 228.554C305.535 227.429 301.876 224.59 299.954 223.171C296.409 220.554 291.598 217.571 288.514 214.671C289.398 206.355 289.136 195.437 299.011 193.177Z" fill="white"/>
<path d="M330.507 176.827C332.131 176.739 334.084 176.863 335.732 176.924L335.729 209.362C330.65 209.793 333.17 207.753 330.574 204.532L330.379 204.293C326.917 201.093 330.214 198.001 323.968 194.826C322.484 191.276 322.006 190.023 318.514 188.174C321.217 184.641 323.462 180.828 325.72 177.007L330.507 176.827Z" fill="white"/>
<path d="M281.789 212.193L282.227 212.249C282.132 212.954 264.145 234.409 262.295 236.711L261.947 236.551C261.851 234.817 262.04 231.48 262.043 229.524L262.041 212.308C268.583 212.163 275.195 212.348 281.789 212.193Z" fill="white"/>
<path d="M320.735 171.12C321.592 171.041 321.701 171.071 322.518 171.345C326.116 175.367 312.963 190.006 310.071 193.255C309.096 192.78 307.905 192.298 306.893 191.859C305.483 191.347 304.018 190.896 302.587 190.438C306.254 186.322 317.061 173.535 320.735 171.12Z" fill="white"/>
<path d="M323.164 198.462C330.668 201.665 320.571 210.667 316.363 212.458C315.802 212.537 315.623 212.433 315.093 212.261C314.38 211.479 314.185 210.002 313.932 208.907C318.545 206.017 319.858 202.635 323.164 198.462Z" fill="white"/>
<path d="M316.802 191.188C319.437 191.248 320.946 193.983 319.876 196.489C317.975 200.948 315.172 204.648 310.754 206.766C309.785 206.148 308.868 205.233 308.015 204.449C312.963 202.748 317.094 200.109 313.819 194.633C314.8 193.388 315.742 192.354 316.802 191.188Z" fill="white"/>
<path d="M300.374 177.007L310.559 176.978L305.117 182.992C303.345 184.817 301.815 186.646 300.172 188.586C300.279 184.727 300.347 180.867 300.374 177.007Z" fill="white"/>
<path d="M327.853 206.415C328.377 206.673 328.8 207.313 329.005 207.862C330.629 212.22 324.3 217.079 321.317 218.493C318.146 216.116 319.776 214.646 322.277 212.546C324.666 210.538 326.128 209.019 327.853 206.415Z" fill="white"/>
<path d="M209.866 39.3653C212.795 39.9466 212.476 44.5911 214.592 47.0808C216.817 49.6995 221.124 49.4171 222.38 51.6406L222.133 52.4467C221.242 53.395 219.358 53.7079 217.974 54.227C213.267 55.9927 213 59.6163 211.27 63.8355C210.813 63.749 210.279 63.6095 209.818 63.5007C208.324 62.1704 207.833 57.3184 205.71 55.6978C203.935 54.3427 199.702 53.9988 198.668 52.0665C199.019 50.0029 203.763 49.7357 205.572 48.1894C208.246 45.9049 208.095 41.4804 209.866 39.3653Z" fill="black"/>
<path d="M210.476 46.2181C210.662 46.3762 210.726 46.4295 210.843 46.6543C212.394 49.6297 213.427 50.3228 216.388 51.5087C213.201 53.3947 212.178 54.3223 210.589 57.6225C209.634 56.9577 209.308 54.0993 204.836 51.7488C207.796 50.0026 208.7 49.16 210.476 46.2181Z" fill="white"/>
<path d="M331.317 279.542C334.937 279.017 338.291 281.529 338.809 285.147C339.327 288.766 336.811 292.118 333.188 292.629C329.577 293.138 326.238 290.628 325.72 287.019C325.205 283.41 327.71 280.065 331.317 279.542Z" fill="black"/>
<path d="M331.253 282.575C332.509 282.188 333.877 282.515 334.824 283.429C335.772 284.342 336.146 285.699 335.802 286.968C335.458 288.238 334.452 289.221 333.176 289.534C331.278 289.999 329.355 288.871 328.834 286.988C328.313 285.105 329.385 283.15 331.253 282.575Z" fill="white"/>
<path d="M104.949 69.4305C105.834 69.4545 106.346 69.5276 107.086 70.0626C108.074 70.7766 108.726 71.8648 108.889 73.0727C109.235 75.7529 107.799 76.7548 105.47 76.9592C100.265 75.7699 99.858 71.579 104.949 69.4305Z" fill="black"/>
<path d="M83.1989 184.152C85.9563 184.767 89.3183 187.02 87.4505 190.188C85.6873 189.918 83.5377 187.908 82.8677 186.253C82.4893 185.318 82.8141 184.984 83.1989 184.152Z" fill="black"/>
<path d="M77.1697 184.189C80.811 186.04 76.546 189.098 74.7557 190.516C71.4142 188.121 75.0786 185.998 77.1697 184.189Z" fill="black"/>
<path d="M86.296 174.748L87.5965 175.23C89.1833 177.133 86.2875 179.24 84.8789 180.688C80.812 178.783 84.1245 176.75 86.296 174.748Z" fill="black"/>
<path d="M74.3547 174.672C75.7907 175.075 77.9266 177.316 78.3455 178.788C78.6413 179.829 78.248 180.06 77.6983 180.874C75.8873 180.107 73.7252 178.493 73.1877 176.528C73.4077 175.341 73.3785 175.662 74.3547 174.672Z" fill="black"/>
</svg>
