<svg width="561" height="367" viewBox="0 0 561 367" fill="none" xmlns="http://www.w3.org/2000/svg">
<path d="M262.134 60.6396C281.163 58.0887 303.729 65.8245 316.801 79.7209C328.867 92.5486 335.792 112.563 335.45 129.944C348.349 134.951 350.4 148.665 348.469 160.883C347.434 167.429 344.39 171.908 339.002 175.623C342.755 188.716 348.601 197.914 345.33 212.756C343.125 222.76 336.501 230.722 327.966 236.163C330.363 237.52 333.855 240.414 336.019 242.222C352.805 256.248 357.344 277.279 361.051 297.788C362.009 303.087 363.464 311.665 363.845 317.02L483.353 317.028L522.349 317.063C528.178 317.055 539.938 316.636 546.252 317.387C546.635 317.433 546.789 318.145 546.915 318.542C546.704 319.556 546.898 319.279 546.268 319.991C544.436 320.67 497.038 320.251 492.299 320.254L303.921 320.273L111.922 320.249L49.6649 320.254L29.3637 320.218C26.8258 320.216 20.2271 320.944 18.5018 319.454C18.1494 318.466 18.1827 318.898 18.5424 317.734C19.1123 317.219 19.3785 317.077 20.2688 317.066C26.1932 317.006 32.1813 317.028 38.1014 317.028H73.0404L173.092 317.03C173.6 311.676 174.529 305.697 175.475 300.368C178.671 282.379 182.426 262.356 194.862 248.236C198.908 243.643 203.84 239.746 208.788 236.227C202.646 232.622 196.316 225.698 193.583 219.069C187.277 203.776 192.423 190.294 198.294 176.018C186.659 168.286 185.807 151.822 190.742 139.6C192.634 134.913 196.869 131.738 201.593 130.055L201.562 129.71C201.384 127.529 201.745 122.814 202.015 120.633C203.746 106.674 208.368 93.4201 217.43 82.5525C229.03 68.6413 244.333 62.1739 262.134 60.6396Z" fill="black"/>
<path d="M246.222 225.221C246.974 225.816 247.467 230.693 247.889 231.963C248.779 234.67 250.166 237.186 251.979 239.384C262.964 252.764 284.182 248.495 289.211 231.98C289.923 229.638 290.134 227.676 290.323 225.273C304.592 227.892 320.367 234.136 331.798 243.122C348.453 256.217 353.027 274.261 356.887 294.131C358.339 301.595 359.763 309.436 360.588 317.044H323.29C322.252 309.003 323.109 298.401 321.868 290.27C321.761 289.568 321.257 289.308 320.707 289.065C317.696 290.111 319.082 297.076 319.2 299.738C319.455 305.497 319.644 311.263 319.762 317.031L312.453 316.998L217.194 317.011C217.325 309.655 217.989 298.379 218.143 290.7C218.153 290.198 217.343 289.689 216.828 289.464C215.79 289.508 216.186 289.369 215.341 290.026C214.523 291.494 213.973 313.254 213.743 317.022L176.394 316.984C176.742 313.265 177.698 307.669 178.324 303.977C180.817 289.275 184.129 270.779 191.918 258.049C203.771 238.677 225.087 230.23 246.222 225.221Z" fill="white"/>
<path d="M279.955 108.107C280.711 108.73 282.839 113.684 283.877 115.293C290.994 126.438 301.491 135.009 313.837 139.749C313.976 147.326 313.478 155.36 313.872 162.847C314.768 179.834 306.26 196.765 291.55 206.043C281.637 212.18 269.704 214.159 258.341 211.551C239.603 206.914 226.159 190.955 223.534 171.783C222.945 167.477 223.189 162.259 223.175 157.877C223.133 151.463 223.144 145.049 223.206 138.636C244.899 136.934 267.896 126.957 279.955 108.107Z" fill="white"/>
<path d="M282.094 178.781C282.68 178.763 283.201 179.031 283.779 179.244C284.34 179.975 284.203 179.624 284.184 180.632C282.746 183.413 278.374 185.663 275.498 186.531C269.095 188.464 263.384 187.721 257.562 184.695C256.296 183.914 254.775 182.319 256.143 180.949C258.035 180.406 258.869 181.54 260.553 182.343C268.022 185.904 276.01 184.151 282.094 178.781Z" fill="black"/>
<path d="M264.972 150.459C265.149 150.488 265.325 150.516 265.502 150.544C270.488 150.853 263.233 163.479 265.823 166.592C267.159 168.198 268.527 168.007 270.48 168.454C271.614 168.713 271.666 168.738 272.232 169.596C272.308 170.573 272.209 170.668 271.801 171.602C263.684 172.961 260.889 166.89 262.528 159.844C263.274 156.639 263.39 153.491 264.972 150.459Z" fill="black"/>
<path d="M246.774 139.241C249.027 139.157 254.156 139.18 255.351 141.509C255.328 142.661 255.439 142.202 254.836 143.262C253.112 144.254 250.659 142.338 246.715 142.483C246.591 142.511 246.467 142.538 246.343 142.566L246.14 142.619C243.173 143.361 242.004 145.261 239.13 145.052C238.342 144.596 238.563 144.917 238.35 144.128C239.083 140.805 243.932 139.62 246.774 139.241Z" fill="black"/>
<path d="M286.614 139.229C286.965 139.207 287.315 139.195 287.666 139.194C290.46 139.177 297.842 140.155 297.67 144.1C296.292 145.787 294.262 144.264 292.706 143.449C286.959 141.03 286.88 143.713 281.618 143.393C281.083 143.361 280.925 143.002 280.705 142.627C281.048 139.899 284.527 139.565 286.614 139.229Z" fill="black"/>
<path d="M287.929 149.781C293.224 150.743 293.303 157.073 288.814 159.334C283.584 158.574 283.212 151.857 287.929 149.781Z" fill="black"/>
<path d="M247.038 150.105C252.723 149.578 253.506 156.309 249.239 159.168C248.977 159.177 248.725 159.184 248.463 159.177C247.407 159.155 246.409 158.689 245.716 157.892C243.603 155.509 244.77 151.947 247.038 150.105Z" fill="black"/>
<path d="M262.905 63.9303C264.075 63.7695 265.467 63.7657 266.659 63.7402C307.085 62.8723 331.135 90.9793 331.993 129.961C330.253 128.083 328.664 126.268 326.67 124.658C324.325 110.126 322.304 99.8996 312.5 88.129C302.417 76.0186 289.2 70.8617 273.961 69.3164C257.618 68.7418 243.994 70.9567 230.947 81.5633C217.357 92.6108 212.108 107.943 210.272 124.752C207.231 126.189 206.562 127.722 204.856 130.526C204.749 114.288 209.975 96.3131 220.684 83.9041C231.688 71.1525 246.383 65.2381 262.905 63.9303Z" fill="white"/>
<path d="M286.288 212.591C286.882 213.022 286.743 223.287 286.743 224.918C286.726 242.698 266.734 250.557 254.527 237.246C248.63 229.235 249.999 222.26 250.244 212.588C261.804 217.594 274.641 216.73 286.288 212.591Z" fill="white"/>
<path d="M263.412 72.6857C272.63 71.3511 286.362 73.9371 294.561 78.2833C309.355 86.1289 315.71 96.0012 320.814 111.242C318.126 106.728 315.782 102.798 312.237 98.8958C301.518 87.0984 288.731 81.6112 273.036 80.7025C266.582 80.3355 259.317 80.6765 253.019 82.1803C240.533 85.0575 229.466 92.2569 221.777 102.505C219.88 105.083 217.915 108.76 216.164 111.609C221.894 88.3084 239.943 74.6212 263.412 72.6857Z" fill="white"/>
<path d="M212.262 127.737C217.031 127.058 219.498 128.049 219.581 133.303C219.788 146.206 219.713 159.129 219.68 172.035C219.671 175.547 219.935 177.257 216.755 179.28C215.19 179.482 213.373 179.586 211.865 179.042C211.047 178.747 210.116 178.139 209.782 177.299C209.018 175.374 208.969 131.218 209.719 129.522C210.164 128.516 211.321 128.153 212.262 127.737Z" fill="white"/>
<path d="M320.471 127.68C321.52 127.547 322.583 127.55 323.632 127.688C325.133 127.893 326.144 128.331 327.078 129.547C327.906 132.588 328.051 175.413 327.199 177.438C326.736 178.536 325.451 178.846 324.429 179.209C317.502 180.196 317.121 177.143 317.217 171.134C317.436 157.462 316.751 143.603 317.631 129.984C317.699 128.935 319.658 128.055 320.471 127.68Z" fill="white"/>
<path d="M330.842 132.4C340.145 134.268 344.705 140.276 345.566 149.709C346.22 156.909 345.585 163.877 340.78 169.693C337.411 172.978 335.271 173.717 330.801 174.476L330.842 132.4Z" fill="white"/>
<path d="M205.435 132.615L205.79 132.875C206.172 135.097 206.015 143.833 206.015 146.513C206.054 155.906 206.02 165.299 205.912 174.692C201.642 173.911 199.749 173.003 196.459 170.242C189.992 162.514 189.588 147.409 195.071 138.86C197.494 135.081 201.125 133.429 205.435 132.615Z" fill="white"/>
<path d="M395.834 56.4797C396.836 56.398 398.748 56.7475 398.88 57.8825C400.017 64.6854 398.565 76.018 399.326 82.4312C401.835 103.558 371.534 90.8237 388.32 80.8098C390.355 79.5955 394.108 80.8334 395.976 81.7024C395.872 77.2009 395.872 72.5948 395.823 68.0834C389.416 69.8387 381.937 72.2166 375.571 73.6577C375.777 79.9885 375.539 86.4091 375.703 92.7174C375.856 98.58 369.783 101.759 364.787 99.9396C362.935 99.2595 361.437 97.857 360.637 96.0529C359.939 94.5033 359.889 92.7384 360.5 91.1516C361.157 89.4067 362.505 88.0082 364.223 87.2825C367.041 86.0714 369.622 86.7377 372.314 87.7826C372.328 84.1679 371.882 65.231 372.876 63.3382C375.051 61.8236 392.204 57.392 395.834 56.4797Z" fill="black"/>
<path d="M395.272 60.0417L395.71 60.1179C396.001 60.9916 395.847 63.9336 395.828 65.0201C390.421 65.9463 381.674 68.583 376.166 70.0904L375.728 69.8576C375.448 68.6632 375.539 66.7044 375.544 65.415C382.228 63.7205 388.64 61.8321 395.272 60.0417Z" fill="white"/>
<path d="M390.358 83.5768C396.754 83.283 397.913 89.0323 392.221 90.5882C386.249 90.7906 384.318 85.5036 390.358 83.5768Z" fill="white"/>
<path d="M366.266 90.1284C371.769 89.3903 375.5 94.2352 369.263 96.8201C367.178 97.3013 364.787 97.0951 363.626 95.0108C363.212 94.2779 363.135 93.4023 363.417 92.6094C363.927 91.1598 364.99 90.7243 366.266 90.1284Z" fill="white"/>
<path d="M139.466 215.557C140.057 215.504 140.784 215.471 141.347 215.689C141.815 215.871 142.138 216.147 142.322 216.603C143.09 218.508 143.192 246.774 142.31 248.864C141.643 250.445 140.278 251.584 138.717 252.229C136.665 253.076 133.484 253.463 131.405 252.519C129.773 251.777 128.162 250.288 127.505 248.599C126.919 247.081 126.978 245.39 127.669 243.917C129.932 239.003 135.297 238.76 139.687 240.799C139.578 236.29 139.544 231.78 139.586 227.269C133.09 229.242 125.872 231.096 119.298 232.958C119.09 240.071 119.748 247.4 119.113 254.43C118.746 258.486 112.542 260.322 109.063 259.378C107.124 258.868 105.478 257.586 104.508 255.831C103.673 254.296 103.451 252.539 103.976 250.864C104.53 249.115 105.763 247.662 107.398 246.831C110.353 245.308 113.088 246.003 116.026 246.939C115.77 241.277 115.53 228.161 116.609 222.889C116.96 221.176 136.575 216.354 139.466 215.557Z" fill="black"/>
<path d="M139.15 219.171C139.831 219.545 139.594 223.175 139.609 224.101C133.054 225.707 126.529 227.435 120.037 229.284L119.597 229.266C118.991 228.629 119.19 225.729 119.204 224.727C125.565 222.798 132.676 220.986 139.15 219.171Z" fill="white"/>
<path d="M110.404 249.269C116.074 249.005 118.785 253.809 112.554 256.349C106.893 256.958 104.222 251.705 110.404 249.269Z" fill="white"/>
<path d="M133.966 242.736C139.755 242.393 142.065 247.276 136.075 249.737C130.322 250.128 127.774 245.286 133.966 242.736Z" fill="white"/>
<path d="M93.5081 133.043C97.2653 132.911 96.9944 135.19 96.9727 138.231C96.8873 148.299 97.036 158.406 96.8174 168.466C96.8421 169.002 96.2071 172.202 95.7494 172.378C92.5894 173.592 85.155 165.71 82.9907 163.991L81.3124 162.723C70.7183 162.805 71.3363 163.456 71.133 152.535C70.9438 142.374 71.9556 143.108 81.3776 143.366C85.1542 140.591 89.3403 135.602 93.5081 133.043Z" fill="black"/>
<path d="M93.2265 137.156C94.0836 138.165 93.6456 165.135 93.6459 168.939C90.1188 165.91 86.8213 162.682 83.1641 159.785C81.9969 159.321 76.2303 159.431 74.5325 159.397C74.3854 155.06 74.287 150.931 74.4237 146.59C78.68 146.494 82.3374 147.407 85.7475 144.148C88.2142 141.792 90.7113 139.457 93.2265 137.156Z" fill="white"/>
<path d="M442.16 133.049C443.672 133.063 445.327 133.378 445.37 135.21C445.664 146.856 445.483 158.567 445.392 170.22C445.609 171.114 444.234 172.815 443.357 172.565C439.651 171.508 434.416 166.239 431.482 163.721C428.505 161.39 423.054 163.851 421.207 162.006C418.991 159.79 419.161 146.85 420.846 144.243C421.714 142.901 428.256 143.249 430.006 143.27C434.255 139.889 437.509 136.153 442.16 133.049Z" fill="black"/>
<path d="M442.009 136.897C442.634 137.919 442.237 164.95 442.234 168.847C439.593 166.21 434.898 162.179 431.959 159.899C430.891 159.195 424.793 159.398 423.199 159.394C423.106 155.171 423.144 150.774 423.133 146.538C425.766 146.496 428.461 146.518 431.102 146.509C434.205 144.373 439.503 139.591 442.009 136.897Z" fill="white"/>
<path d="M405.717 199.174C407.602 199.34 408.191 201.351 409.571 202.44C413.488 205.531 417.901 208.647 417.953 214.187C417.97 215.686 417.885 216.665 416.397 217.405C415.228 217.307 415.173 216.972 414.904 215.639C413.647 209.417 412.691 208.838 407.802 205.343L408.002 230.998C407.692 236.691 402.427 239.762 397.277 238.136C395.398 237.544 393.831 236.227 392.925 234.478C392.125 232.932 391.996 231.126 392.569 229.483C394.426 224.195 400.184 224.175 404.638 225.833L404.517 204.847C404.514 202.661 404.241 200.654 405.717 199.174Z" fill="black"/>
<path d="M399.348 227.94C405.054 227.968 407.155 232.8 400.633 235.186C398.655 235.298 396.365 234.509 395.636 232.492C395.357 231.708 395.426 230.842 395.826 230.112C396.614 228.657 397.896 228.305 399.348 227.94Z" fill="white"/>
<path d="M169.478 56.2241C171.577 56.6881 180.117 64.9678 180.895 67.5354C181.445 69.352 182.45 73.4981 180.249 74.4021C178.773 73.9812 178.128 71.7354 178.06 70.3687C177.879 66.711 174.368 64.4811 171.704 62.4902C171.879 70.8652 171.733 79.7968 171.741 88.215C170.84 93.992 164.812 96.4503 159.947 94.1662C158.274 93.3788 156.993 91.9469 156.395 90.1976C155.824 88.5305 155.965 86.7018 156.786 85.1424C157.684 83.4301 159.239 82.1551 161.094 81.6093C163.779 80.8033 166.086 81.4113 168.462 82.6722C168.511 77.1256 168.508 71.5784 168.451 66.0318C168.441 63.6274 167.924 57.7995 169.478 56.2241Z" fill="black"/>
<path d="M162.091 84.6962C168.047 83.6875 171.392 88.7466 165.405 91.3959C159.78 92.146 156.337 87.5511 162.091 84.6962Z" fill="white"/>
<path d="M384.584 119.536C386.2 120.031 387.03 120.985 388.024 122.333C398.581 136.617 401.047 155.457 394.957 172.07C393.062 177.248 389.281 184.473 384.852 187.84C384.019 187.223 383.6 187.023 383.135 186.097C383.066 184.708 386.896 180.373 387.931 178.687C397.354 163.335 397.247 142.433 387.334 127.33C386.049 125.377 384.307 123.79 383.324 121.619C383.488 120.641 383.926 120.295 384.584 119.536Z" fill="black"/>
<path d="M151.199 119.554C152.114 119.883 152.667 120.294 153.146 121.12C153.143 121.319 153.141 121.518 153.138 121.716C150.927 124.999 148.294 128.765 146.614 132.26C139.618 146.816 140.208 163.565 147.98 177.72C149.428 180.357 152.121 182.814 153.245 185.591C153.518 186.266 153.017 186.898 152.688 187.484C150.009 187.571 147.804 183.607 146.498 181.586C140.952 172.842 138.155 162.637 138.468 152.288C138.692 141.338 143.177 127.261 151.199 119.554Z" fill="black"/>
<path d="M373.903 128.853C375.013 128.977 375.908 129.518 376.631 130.368C387.761 143.432 387.284 166.116 375.024 178.37C373.859 178.288 373.492 178.159 372.999 177.117C373.054 174.862 376.103 171.962 377.146 170.015C382.639 159.756 382.691 147.766 377.483 137.37C376.555 135.521 373.75 132.914 373.164 130.758C372.964 130.016 373.517 129.436 373.903 128.853Z" fill="black"/>
<path d="M161.683 128.638C162.82 128.976 163.207 129.324 163.636 130.364C163.535 131.1 159.322 137.1 158.319 139.278C154.011 148.64 154.234 160.277 159.034 169.414C160.246 171.722 163.049 174.708 163.708 176.506C163.62 177.34 163.235 177.641 162.682 178.289C161.345 178.159 160.503 177.587 159.673 176.529C152.62 167.538 150.423 155.249 153.079 144.227C154.369 138.874 157.45 132.21 161.683 128.638Z" fill="black"/>
<path d="M433.488 87.1959C437.147 86.3107 440.823 88.5793 441.672 92.2446C442.522 95.9097 440.215 99.5635 436.542 100.376C432.918 101.178 429.327 98.9122 428.488 95.2976C427.65 91.6832 429.883 88.0688 433.488 87.1959Z" fill="black"/>
<path d="M434.12 90.5444C435.287 90.2007 436.547 90.5099 437.424 91.354C438.298 92.1983 438.651 93.4475 438.35 94.6252C438.048 95.8029 437.136 96.7275 435.964 97.0466C434.175 97.5327 432.329 96.4892 431.825 94.7068C431.318 92.9247 432.343 91.068 434.12 90.5444Z" fill="white"/>
<path d="M108.137 136.531C109.45 136.764 110.73 137.972 111.516 139.014C118.27 147.962 117.751 161.841 108.789 169.077C107.832 168.571 107.612 168.492 106.948 167.653C106.943 166.678 110.592 162.172 111.544 159.546C113.479 154.209 113.254 148.418 110.419 143.431C109.428 141.688 107.693 140.27 106.848 138.305C107.047 137.409 107.42 137.27 108.137 136.531Z" fill="black"/>
<path d="M456.292 136.496C457.766 136.591 458.985 137.692 459.897 138.795C467.09 147.495 466.205 161.364 457.675 168.785C456.64 168.835 456.185 168.507 455.621 167.74C455.508 166.134 459.456 161.897 460.258 159.394C462.589 152.109 461.428 145.589 456.369 139.82C455.161 138.44 455.465 137.959 456.292 136.496Z" fill="black"/>
<path d="M364.108 138.159C365.373 138.541 365.995 139.129 366.817 140.126C373.383 148.077 372.492 162.381 364.592 168.997C363.735 168.454 363.146 168.224 362.746 167.313C362.782 166.246 364.927 163.59 365.699 162.226C368.518 157.256 368.751 150.327 366.074 145.27C365.247 143.704 363.343 141.806 362.796 139.945C362.943 139.126 363.486 138.765 364.108 138.159Z" fill="black"/>
<path d="M171.891 138.205C172.972 138.414 173.391 138.769 173.823 139.708C173.606 140.908 171.089 144.298 170.293 145.854C167.72 150.885 167.997 156.848 170.585 161.806C171.486 163.531 173.058 165.266 173.671 167.073C173.464 168.021 173.235 168.017 172.503 168.794C171.129 168.366 170.331 167.636 169.456 166.522C163.352 158.748 164.02 144.475 171.891 138.205Z" fill="black"/>
<path d="M385.077 262.539C386.786 262.826 395.875 273.096 397.691 275.14C395.913 277.425 391.928 281.138 389.711 283.256C389.503 283.428 389.227 283.538 388.969 283.666C388.019 283.469 387.49 282.76 386.769 282.045C388.26 279.884 391.393 276.975 393.379 275.039C391.467 273.438 384.301 266.365 383.789 264.341C384.058 263.338 384.293 263.343 385.077 262.539Z" fill="black"/>
<path d="M450.759 143.168C454.829 143.249 456.708 150.736 456.207 153.923C455.626 157.599 454.604 160.142 451.736 162.531C447.113 161.553 452.654 156.765 453.024 153.647C453.503 149.589 450.178 147.689 449.638 144.623C449.915 143.656 449.852 143.943 450.759 143.168Z" fill="black"/>
<path d="M101.848 143.079C106.391 143.534 108.16 150.441 107.656 154.187C107.202 157.564 105.873 160.358 103.222 162.512C102.085 162.466 101.692 162.269 101.214 161.26C101.286 159.636 103.946 156.658 104.451 155.046C105.587 151.415 102.788 148.317 101.351 145.292C101.012 144.579 101.499 143.763 101.848 143.079Z" fill="black"/>
<path d="M83.5983 208.624C84.7987 208.118 86.1795 208.306 87.1999 209.116C88.2205 209.925 88.7183 211.227 88.4986 212.511C88.2786 213.794 87.376 214.856 86.1442 215.28C84.3264 215.905 82.3404 214.977 81.6537 213.182C80.9673 211.387 81.8274 209.371 83.5983 208.624Z" fill="black"/>
<path d="M205.824 40.7271C207.642 40.1399 209.594 41.1256 210.201 42.9371C210.807 44.7485 209.842 46.7106 208.037 47.3367C206.852 47.7475 205.538 47.4903 204.595 46.663C203.653 45.8356 203.227 44.5656 203.482 43.3375C203.736 42.1094 204.63 41.1125 205.824 40.7271Z" fill="black"/>
<path d="M452.493 214.314C453.717 214.027 455.002 214.422 455.851 215.348C456.7 216.273 456.985 217.586 456.596 218.78C456.204 219.975 455.202 220.867 453.969 221.112C452.106 221.483 450.29 220.293 449.887 218.438C449.485 216.583 450.646 214.748 452.493 214.314Z" fill="black"/>
<path d="M115.007 88.0266C117.256 87.842 120.758 87.0497 122.201 89.0082C122.363 90.4162 122.255 90.5356 121.096 91.1543C119.224 91.1995 114.159 91.7522 113.737 89.4412C114.179 88.6217 114.247 88.6034 115.007 88.0266Z" fill="black"/>
<path d="M107.536 75.9764L108.91 76.1183C111.037 77.6032 110.591 82.581 109.386 84.4171C105.525 84.1769 106.4 78.1543 107.536 75.9764Z" fill="black"/>
<path d="M95.682 87.9924C97.6951 87.8628 102.097 87.1365 103.016 89.2426C102.964 90.2001 102.88 90.2609 102.379 91.1176C100.282 91.2578 95.9858 91.9992 94.9564 89.863C94.9772 88.9066 95.1133 88.823 95.682 87.9924Z" fill="black"/>
<path d="M107.548 94.8555C108.015 94.9087 108.887 94.9303 109.201 95.1864C111.074 96.7146 110.405 101.655 109.335 103.267C105.633 103.278 106.612 96.9852 107.548 94.8555Z" fill="black"/>
<path d="M341.123 46.3286C342.87 46.2557 347.176 45.849 347.286 48.2148C346.856 49.06 346.738 49.1249 345.919 49.6187C344.243 49.7066 339.846 50.1538 339.589 47.8239C340.035 46.9722 340.304 46.8615 341.123 46.3286Z" fill="black"/>
<path d="M335.488 37.6868C336.066 37.6728 336.504 37.7613 337.071 37.8476C339.046 39.1759 338.342 42.8322 337.693 44.762C336.797 44.7885 336.69 44.8088 335.836 44.5875C333.987 43.0527 334.472 39.5692 335.488 37.6868Z" fill="black"/>
<path d="M335.849 51.1278C339.643 51.4676 338.674 56.2518 337.137 58.4083C333.746 57.909 334.387 53.2654 335.849 51.1278Z" fill="black"/>
<path d="M326.98 46.3455C328.859 46.2546 332.754 45.8101 333.417 48.0425C333.105 48.8811 333.009 48.9583 332.313 49.5327C330.116 49.5453 328.61 49.6745 326.547 48.9803C325.87 48.3128 326.002 48.6338 325.922 47.7902C326.259 46.9985 326.336 46.9196 326.98 46.3455Z" fill="black"/>
</svg>
