<svg width="613" height="349" viewBox="0 0 613 349" fill="none" xmlns="http://www.w3.org/2000/svg">
<path d="M347.677 61.7862C348.195 61.7694 348.713 61.7673 349.23 61.7793C351.775 61.8466 354.184 62.9352 355.917 64.8C357.3 66.2938 357.908 67.4929 358.159 69.4531C358.82 74.6211 358.997 80.147 359.308 85.364L361.02 113.767C361.658 123.482 362.218 133.202 362.697 142.925C362.978 147.926 363.487 153.15 363.403 158.162C363.367 160.225 362.409 161.532 361.526 162.901C358.201 168.071 351.299 165.87 349.287 167.607C349.799 170.428 351.613 169.293 353.606 171.487C354.846 172.85 354.139 175.481 354.744 175.941C355.989 176.889 357.369 177.962 358.671 179.196L389.512 179.214C391.419 179.212 393.398 179.188 395.31 179.21C403.679 179.31 412.581 177.67 412.856 189.146C413.024 196.085 412.943 203.137 412.937 210.093L412.97 242.861L412.976 261.814C413 270.956 414.82 280.745 402.144 280.661C388.348 280.475 374.562 280.58 360.766 280.641C355.717 280.664 348.536 281.687 344.738 277.946C343.513 276.759 342.702 275.208 342.427 273.524C341.915 270.327 342.179 256.923 342.179 252.847L342.164 208.089C339.557 217.2 331.942 233.294 327.503 241.716C319.32 257.25 306.928 278.346 289.428 283.932C276.192 288.156 256.642 280.356 244.676 274.008C243.367 279.842 241.458 285.166 240.14 290.812C239.136 295.112 239.436 302.487 239.506 307.051L474.467 307.087L530.239 307.099C533.753 307.093 551.434 306.797 554.109 307.38C554.966 308.132 554.762 307.752 554.96 308.778L554.529 309.371C553.367 310.044 552.14 310.29 550.802 310.296C542.912 310.347 534.974 310.224 527.084 310.233L474.129 310.269L314.432 310.272L130.995 310.281L78.2371 310.278L62.752 310.293C60.5433 310.293 58.1264 310.314 55.9129 310.257C55.0991 310.236 54.9865 309.874 54.6064 309.332C54.4894 308.135 54.3909 308.566 54.8452 307.584C56.4179 306.746 89.3696 307.084 93.8453 307.084C96.4715 281.155 100.201 255.135 109.737 230.749C102.136 224.568 96.2183 216.754 94.4086 207.024C91.8258 193.139 97.7283 179.146 107.067 169.033C112.525 163.122 117.689 159.093 120.313 151.141C122.195 145.435 121.768 140.701 121.909 134.756C122.2 122.486 125.094 109.973 132.101 99.7134C141.317 86.2189 155.659 78.6399 171.507 75.6223C187.06 72.6606 204.137 75.501 217.426 84.4176C232.03 94.2162 237.542 110.809 239.221 127.622C240.057 135.986 239.794 146.178 242.297 154.238C245.48 164.483 253.271 174.53 255.106 185.365C256.868 195.775 254.145 204.161 248.342 212.613C258.232 219.479 267.965 226.569 277.532 233.877C284.625 224.639 291.479 212.625 297.87 202.813C300.415 198.906 304.692 191.524 307.491 188.214C308.571 188.55 309.787 189.076 310.849 189.506C311.089 181.573 310.451 176.33 313.606 168.881C309.047 169.627 303.606 169.543 298.967 169.966C287.759 170.987 284.8 167.39 284.137 157.145L281.099 102.978L280.025 85.2811C279.574 77.8007 277.343 66.9999 287.921 65.6297C294.159 64.8218 300.681 64.6755 306.979 64.2938L347.677 61.7862Z" fill="black"/>
<path d="M308.634 192.279C318.769 197.485 328.862 202.219 338.889 207.744C336.237 213.963 333.756 220.971 330.79 227.092C322.208 244.815 309.11 272.886 289.747 280.272C276.148 285.459 257.06 276.261 244.812 270.528C244.892 262.134 243.101 256.516 239.735 248.894C238.91 247.027 238.235 244.59 236.96 243.08C235.965 242.607 236.412 242.688 235.22 242.877C233.308 245.225 238.783 254.311 239.628 257.678C240.445 260.93 240.951 262.443 241.326 265.877C242.308 274.874 238.488 282.048 236.778 290.533C235.805 295.364 236.182 302.014 236.362 307.051L141.191 307.042C142.18 293.777 145.468 279.711 146.713 266.387C146.85 264.914 147.494 263.494 146.378 262.475C145.435 262.208 145.312 262.179 144.379 262.459C143.314 263.857 141.415 280.379 141.044 283.152C139.771 290.681 138.807 299.499 137.842 307.12L97.212 307.045C97.2883 302.954 98.5203 293.924 99.1937 289.799C102.457 269.817 105.534 246.449 114.931 228.405C125.34 208.416 141.637 202.509 161.601 196.361C170.323 220.049 203.632 224.502 204.596 196.871C222.198 201.196 229.117 203.581 244.15 213.913C251.57 219.062 258.925 224.303 266.213 229.636C268.316 231.171 276.342 237.956 278.496 237.544C282.727 234.609 304.59 198.523 308.634 192.279Z" fill="white"/>
<path d="M347.925 65.0834C356.815 64.157 355.483 76.1269 355.803 82.1081L356.98 102.529C358.009 120.052 359.168 137.569 360.215 155.092C360.628 162.014 357.189 163.39 350.993 163.75C344.92 164.102 338.904 164.383 332.813 164.541C334.055 160.654 335.118 154.23 329.338 153.996C325.593 153.844 318.395 162.869 316.054 165.514L307.536 166.073C302.998 166.322 293.778 167.95 289.946 165.237C288.257 164.041 287.744 161.674 287.619 159.673C286.428 140.577 285.37 121.468 284.338 102.361L283.278 84.3984C282.973 78.8961 280.952 69.6252 288.505 68.8886C295.149 68.2409 301.768 67.9032 308.431 67.4929L347.925 65.0834Z" fill="white"/>
<path d="M320.442 86.332C320.783 86.3045 321.125 86.2973 321.466 86.3104C336.566 86.9414 345.178 101.646 333.127 113.144C328.736 117.332 322.663 117.812 316.814 117.321C314.318 118.77 308.308 122.554 305.767 120.638C305.012 118.894 306.913 115.353 307.709 113.095C297.041 100.642 305.461 87.4335 320.442 86.332Z" fill="black"/>
<path d="M319.82 89.5694C339.524 88.0243 341.957 114.984 318.431 114.198C318.305 114.152 318.179 114.109 318.051 114.069C315.982 113.429 312.184 116.037 309.87 117.202C310.403 115.474 310.678 113.639 310.993 111.856C309.155 108.945 306.814 107.585 306.32 103.85C305.213 95.479 312.543 90.6993 319.82 89.5694Z" fill="white"/>
<path d="M339.559 136.318C340.631 136.238 341.14 136.248 342.193 136.306C343.091 136.753 343.169 136.836 343.627 137.729C343.597 138.077 343.636 138.379 343.46 138.603C343.091 139.071 342.394 139.399 341.792 139.458C337.641 139.866 333.289 140.056 329.134 140.288L306.724 141.655C304.86 141.828 303.22 141.878 302.821 139.638L303.306 138.991C305.351 137.904 335.773 136.54 339.559 136.318Z" fill="black"/>
<path d="M335.157 146.489C337.042 146.359 339.739 145.834 341.107 147.017C341.43 148.071 341.412 147.624 341.155 148.715C339.766 149.956 317.105 150.907 313.459 151.146C311.415 151.287 307.88 152.09 306.677 150.368C306.587 149.157 306.467 149.59 307.018 148.65C308.805 147.81 331.463 146.728 335.157 146.489Z" fill="black"/>
<path d="M359.895 182.434C374.202 182.09 388.776 182.528 403.098 182.502C407.322 182.494 409.438 184.538 409.689 188.74C409.914 192.515 409.764 196.475 409.746 200.291L409.731 221.371L409.77 253.355C409.773 256.994 410.503 272.207 408.375 275.591C406.858 278.007 398.546 277.424 395.226 277.36C380.542 277.371 364.738 277.681 350.015 277.059C348.805 276.953 347.731 276.315 346.959 275.412C344.612 272.665 345.363 266.114 345.381 262.552L345.423 247.138C345.411 231.655 345.097 215.025 345.537 199.655C349.623 196.094 354.25 191.141 357.255 186.584C358.228 185.109 358.306 183.918 359.201 182.565L359.895 182.434Z" fill="white"/>
<path d="M363.987 202.776C368.207 202.766 391.284 202.208 393.251 203.619C394.75 207.291 393.053 223.156 393.82 228.249C393.999 229.441 393.742 233.1 393.427 234.277C392.515 235.126 392.494 234.899 391.066 235.181C387.178 235.254 363.643 235.918 361.999 234.36C360.401 230.169 362.281 213.586 361.452 208.186C361.32 207.334 361.517 204.324 361.721 203.452C362.628 202.75 362.676 202.948 363.987 202.776Z" fill="black"/>
<path d="M364.645 206.239L390.536 206.241L390.578 231.743C381.988 231.836 373.26 231.755 364.66 231.749C364.708 223.245 364.705 214.742 364.645 206.239Z" fill="white"/>
<path d="M357.096 261.694C361.478 261.414 396.277 261.021 398.097 261.881C398.585 262.112 398.63 262.492 398.809 262.951C398.731 263.92 398.713 264.039 398.076 264.764C386.151 265.72 372.61 264.412 360.542 264.896C359.147 264.952 357.671 264.901 356.71 263.866C356.501 262.919 356.731 262.568 357.096 261.694Z" fill="black"/>
<path d="M361.64 252.386C365.022 252.116 392.422 251.774 393.987 252.88C394.415 253.755 394.194 254.315 394.017 255.299C391.35 255.841 363.053 255.806 361.799 254.99C361.275 254.123 361.496 253.383 361.64 252.386Z" fill="black"/>
<path d="M202.048 98.6335C207.995 101.174 213.695 103.759 218.312 108.51C227.41 117.871 230.202 133.466 230.227 145.997C230.246 155.553 226.516 166.858 219.473 173.576C212.391 180.333 202.014 183.365 192.318 181.985C189.485 181.582 184.55 180.006 181.994 179.959L181.611 180.573C181.5 181.906 181.96 182.848 182.728 183.906C187.509 190.49 193.522 193.267 201.229 194.593C201.226 204.5 198.974 211.142 188.043 212.444C185.006 212.534 181.985 211.977 179.18 210.809C173.507 208.473 165.398 200.819 164.933 194.685C164.169 184.6 164.879 173.261 163.476 163.005C163.225 161.167 164.462 157.018 162.77 156.419C161.123 156.708 159.529 158.39 158.071 159.218C146.867 165.581 137.221 147.473 147.503 140.746C150.818 138.577 153.685 139.181 157.36 139.971C176.29 134.097 195.034 117.283 202.048 98.6335Z" fill="white"/>
<path d="M208.28 132.969C209.745 133.328 210.063 134.037 210.85 135.268C214.776 141.405 220.336 147.537 210.196 150.866C209.291 150.673 208.695 150.243 208.272 149.439C208.675 147.356 211.792 147.118 212.373 146.069C213.581 143.891 207.457 138.12 207.391 135.14C207.363 133.847 207.534 133.99 208.28 132.969Z" fill="black"/>
<path d="M198.948 155.826C202.73 157.028 206.511 160.758 211.543 158.711C212.872 158.17 215.45 156.781 216.636 156.654C217.6 157.041 217.296 156.771 217.792 157.654C217.728 159.175 217.908 158.623 216.937 159.83C211.415 163.351 205.922 162.864 200.099 160.307C199.029 159.837 198.072 158.98 197.707 157.857C197.914 156.621 197.957 156.901 198.948 155.826Z" fill="black"/>
<path d="M191.126 126.347C192.87 126.199 195.135 126.066 195.423 128.29C193.741 131.054 189.093 128.669 185.21 133.273C184.615 134.244 184.291 134.283 183.311 134.241C182.514 133.585 182.755 133.933 182.453 132.87C183.073 128.892 187.71 127.214 191.126 126.347Z" fill="black"/>
<path d="M148.679 144.533C153.451 144.446 162.001 149.528 157.407 154.114C154.73 153.288 155.473 150.441 153.183 148.928C151.615 147.891 148.441 148.521 147.659 146.839C147.764 145.834 148.146 145.373 148.679 144.533Z" fill="black"/>
<path d="M217.655 119.239C219.535 118.971 224.177 118.537 225.266 120.325C224.498 124.443 222.286 121.872 218.48 122.47C216.244 123.159 214.38 125.553 212.207 123.746C212.035 121.049 215.648 119.822 217.655 119.239Z" fill="black"/>
<path d="M191.941 134.638C196.363 134.916 197.646 140.219 194.055 142.901C188.705 142.531 188.536 137.707 191.941 134.638Z" fill="black"/>
<path d="M219.715 128.384C224.457 128.641 225.334 133.759 221.62 136.474C217.138 136.39 216.013 131.042 219.715 128.384Z" fill="black"/>
<path d="M329.356 157.099C333.507 159.871 325.893 169.133 324.561 172.47L324.507 172.614C325.432 174.614 327.129 176.398 328.069 178.392C329.344 181.094 326.476 187.644 328.826 189.617C332.05 189.063 331.708 183.738 331.864 181.239C332.059 181.445 332.223 181.613 332.433 181.808L332.684 182.041C334.307 183.552 335.579 183.135 336.955 183.939C337.605 184.319 337.937 186.984 339.67 187.906C340.963 188.594 342.933 188.147 343.172 188.4C345.669 191.045 343.867 190.962 347.518 193.024C345.896 194.798 344.453 196.24 342.72 197.908C340.613 199.213 338.213 200.813 336.453 202.541C333.07 200.768 315.213 192.336 313.998 190.649C314.357 184.379 313.896 175.535 316.901 170.211C319.128 166.271 325.701 159.524 329.356 157.099Z" fill="white"/>
<path d="M340.903 167.675C342.238 167.561 345.01 167.203 346.082 167.834C347.216 170.874 340.805 177.311 338.682 179.287C337.659 179.934 336.884 180.416 335.671 180.047C331.936 177.314 338.901 170.029 340.903 167.675Z" fill="white"/>
<path d="M348.65 172.267C355.902 174.362 346.602 183.593 343.112 185.277C341.99 185.144 341.284 184.645 340.628 183.752C340.592 183.512 340.55 183.234 340.502 182.918C342.738 179.982 346.656 175.09 348.65 172.267Z" fill="white"/>
<path d="M353.924 179.183C354.612 179.804 355.277 181.15 355.764 182.014C355.492 182.643 355.205 183.267 354.905 183.884C353.382 186.978 351.601 188.689 348.377 189.774C347.249 189.271 347.258 189.258 346.893 188.378C347.162 186.664 352.289 181.376 353.924 179.183Z" fill="white"/>
<path d="M331.681 167.996L336.533 167.939C333.693 171.178 332.795 172.548 331.463 176.507L331.307 176.914C330.945 176.718 328.745 172.569 328.311 171.848C329.356 170.128 329.987 169.085 331.681 167.996Z" fill="white"/>
<path d="M454.623 65.656C470.648 64.9547 487.275 65.9957 503.298 65.5093C518.563 65.046 517.503 71.1379 517.482 83.5211L517.449 104.303L517.47 139.566C517.473 145.755 517.566 151.946 517.347 158.13C517.156 163.46 513.971 166.18 508.91 166.952C495.42 167.139 481.881 166.856 468.382 166.973C464.075 167.011 454.219 167.68 450.884 165.58C448.933 164.332 447.559 162.355 447.071 160.089C446.589 157.943 446.721 150.416 446.718 147.857L446.715 125.623L446.724 92.1019C446.73 86.1198 446.643 80.126 446.879 74.1505C447.068 69.3798 450.103 66.5578 454.623 65.656Z" fill="black"/>
<path d="M454.572 68.9167C463.219 68.3968 472.13 68.7901 480.813 68.7796C489.433 68.7695 498.221 68.3663 506.814 68.7955C508.096 68.8593 509.407 69.0418 510.637 69.4187C511.927 69.8147 512.729 70.6201 513.325 71.8075C514.058 73.2726 514.049 74.9389 514.106 76.5421C514.393 84.2928 514.459 157.823 513.639 160.026C512.968 161.815 511.604 162.798 509.921 163.546C505.599 163.951 455.323 163.886 453.949 163.367C452.45 162.789 451.243 161.635 450.6 160.163C449.343 157.235 450.322 84.9713 450.121 76.3846C450.103 75.5908 450.283 72.9572 450.672 72.1266C451.516 70.3274 452.839 69.6483 454.572 68.9167Z" fill="white"/>
<path d="M482.019 88.1686C482.573 88.5604 483.612 89.5095 483.875 90.0689C485.758 94.0681 501.107 117.008 499.511 119.342C497.422 120.178 486.15 119.821 483.172 119.8C480.505 119.804 465.428 120.551 464.533 118.84C464.862 115.869 479.373 90.3416 482.019 88.1686Z" fill="black"/>
<path d="M481.947 93.5551C483.623 95.1707 493.824 113.584 495.584 116.612C491.72 116.429 486.886 116.535 482.947 116.521C478.227 116.523 473.504 116.496 468.783 116.441L481.947 93.5551Z" fill="white"/>
<path d="M464.144 138.683C475.587 138.23 488.17 138.666 499.658 138.792C500.367 138.799 500.696 139.455 500.984 139.975C500.84 141.27 501.038 140.777 500.197 141.827C496.084 142.043 465.724 142.361 464.15 141.627C463.587 141.365 463.536 141.053 463.303 140.52C463.396 139.549 463.512 139.44 464.144 138.683Z" fill="black"/>
<path d="M469.22 147.995C472.959 147.851 493.797 147.169 495.83 148.725C496.332 149.109 496.311 149.322 496.407 149.906C495.937 150.676 495.836 150.699 495.066 151.22L479.852 151.27C476.509 151.279 472.992 151.477 469.687 150.972C468.457 150.784 468.307 150.461 467.574 149.566C468.038 148.466 468.065 148.694 469.22 147.995Z" fill="black"/>
<path d="M431.39 179.355C439.609 178.76 450.935 179.481 459.472 179.228C468.421 179.438 477.619 178.885 486.545 179.36C497.003 179.916 494.734 193.593 494.722 200.584L494.707 224.297L494.737 255.357C494.743 261.212 494.878 267.151 494.578 272.987C494.375 276.912 490.951 279.509 487.452 280.473C471.178 281.271 454.114 280.047 437.75 280.699C435.32 280.795 431.183 280.842 429.007 279.785C426.861 278.753 425.221 276.898 424.458 274.641C423.284 271.047 424.092 242.552 424.009 236.531C423.778 220.26 423.937 203.504 424.152 187.214C424.209 182.815 427.415 180.477 431.39 179.355Z" fill="black"/>
<path d="M434.7 182.423L468.589 182.42C474.207 182.409 482.366 182.156 487.733 182.622C489.619 183.842 491.181 185.119 491.313 187.535C491.573 192.359 491.481 197.223 491.484 202.057L491.496 227.801V256.622C491.493 261.542 491.54 266.47 491.436 271.387C491.376 274.142 489.885 275.471 487.94 277.152L484.575 277.395L450.908 277.392C445.131 277.396 439.352 277.482 433.575 277.273C430.148 277.149 427.466 275.728 427.313 271.975C427.137 267.609 427.238 263.182 427.244 258.806L427.262 233.166L427.259 204.641C427.262 199.128 427.163 193.632 427.448 188.126C427.705 183.206 430.51 182.588 434.7 182.423Z" fill="white"/>
<path d="M459.029 199.789C461.118 200.717 476.084 216.018 478.302 218.723C476.404 221.426 462.273 235.735 459.534 237.752C457.658 237.345 441.965 221.018 440.261 218.728C441.094 217.783 441.959 216.884 442.86 216.009C448.334 210.704 453.521 205.052 459.029 199.789Z" fill="black"/>
<path d="M459.241 204.144C460.214 204.917 463.288 208.187 464.291 209.201L473.994 218.865C469.37 223.693 464.108 228.752 459.355 233.566C458.927 233.377 446.218 220.371 444.623 218.779C448.589 215.322 455.329 208.087 459.241 204.144Z" fill="white"/>
<path d="M441.474 252.338C452.926 251.826 465.171 252.458 476.679 252.432C477.326 252.431 477.556 252.902 477.829 253.354C477.865 254.421 477.793 254.553 477.311 255.513C466.958 256.243 454.943 255.036 444.458 255.585C443.003 255.661 441.776 255.626 440.923 254.423C440.833 253.368 440.911 253.246 441.474 252.338Z" fill="black"/>
<path d="M448.81 261.68C454.123 261.224 462.576 261.627 468.116 261.623C469.154 261.623 469.657 261.932 470.235 262.64C470.376 263.595 470.214 263.801 469.777 264.683C468.685 264.832 467.547 264.925 466.383 264.903C460.69 264.797 454.811 265.289 449.163 264.688C449.163 264.688 448.615 264.147 448.559 264.09C448.298 263.045 448.49 262.679 448.81 261.68Z" fill="black"/>
<path d="M373.31 65.6258C383.409 65.157 394.855 65.773 405.119 65.5378C412.488 65.8215 420.141 65.0951 427.481 65.6554C437.394 66.4121 435.847 76.1296 435.847 82.6786L435.835 103.226L435.814 139.591C435.808 145.935 435.883 152.286 435.703 158.626C435.562 163.509 432.279 166.026 427.801 166.965C410.321 167.609 391.775 166.582 374.208 166.941C363.637 167.157 365.468 153.564 365.471 146.242L365.474 124.079V92.6885C365.468 86.9573 365.432 81.2431 365.537 75.5118C365.636 69.9697 367.8 66.9107 373.31 65.6258Z" fill="black"/>
<path d="M373.595 68.9395C375.16 68.8021 376.708 68.8153 378.276 68.8147C393.787 68.8239 409.558 68.6773 425.035 68.8332C433.326 68.9167 432.587 73.662 432.575 80.0165C432.512 105.949 432.623 131.891 432.509 157.823C432.494 161.12 430.707 162.835 427.708 163.676C417.585 164.143 405.31 163.404 394.99 163.726C391.266 163.843 375.37 163.901 372.317 163.342C371.434 162.692 369.216 161.026 369.132 159.936C368.348 149.788 368.752 135.57 368.701 125.588C368.74 109.151 368.617 92.7083 368.764 76.2724C368.8 72.1044 369.443 70.2642 373.595 68.9395Z" fill="white"/>
<path d="M383.918 88.7029C388.608 88.573 401.392 88.4867 405.822 88.9243C406.672 89.5218 407.456 90.3081 408.22 91.0231C408.486 92.8819 408.438 96.4237 408.462 98.433C423.039 98.4234 421.057 98.3647 421.201 114.659C421.237 118.611 422.099 122.321 417.968 124.139C414.808 124.38 410.045 124.242 406.702 124.29C403.649 124.334 396.091 124.857 393.999 122.727C392.589 121.292 392.928 116.392 392.949 114.29C388.046 114.281 383.583 115.805 380.491 111.388C380.144 107.197 379.889 95.1638 380.997 90.998C381.32 89.7792 382.802 89.1494 383.918 88.7029Z" fill="black"/>
<path d="M396.331 101.798C402.997 101.616 410.973 101.601 417.618 101.782C418.028 105.117 417.891 117.454 417.657 120.806C411.814 121.069 402.12 120.992 396.298 120.702C396.073 114.661 396.166 107.847 396.331 101.798Z" fill="white"/>
<path d="M385.262 92.0324C389.824 91.9962 400.692 91.6733 404.993 92.2228C405.28 94.1998 405.227 96.4985 405.247 98.5165C401.362 98.6658 395.535 97.3393 393.275 100.916C392.829 102.994 392.975 108.728 392.984 111.108C389.884 111.092 386.86 111.102 383.766 110.889C383.415 108.459 382.975 95.2992 383.99 92.497C384.116 92.1501 384.783 92.1291 385.262 92.0324Z" fill="white"/>
<path d="M383.718 138.618C394.37 138.29 405.948 138.671 416.699 138.657C417.831 138.656 418.157 139 418.63 139.901C418.639 140.891 418.51 141.017 417.909 141.822C409.552 142.385 393.008 141.692 384.038 141.793C383.379 141.801 383.008 141.024 382.754 140.513C383.011 139.22 382.802 139.716 383.718 138.618Z" fill="black"/>
<path d="M391.772 147.998C394.418 147.913 397.067 147.872 399.716 147.873C402.856 147.851 406.017 147.754 409.157 148.017C411.467 148.211 412.787 149.937 410.411 151.222C406.157 151.252 401.892 151.31 397.642 151.311C395.484 151.312 391.676 151.752 390.273 149.963C390.294 148.576 390.623 148.467 391.772 147.998Z" fill="black"/>
<path d="M240.996 49.7962C243.463 50.5517 243.689 54.0486 245.097 56.3551C247.02 59.5024 252.089 59.3183 253.238 61.7916C252.599 64.2848 247.426 64.6234 245.546 66.7778C243.638 68.9625 243.599 71.4842 241.905 74.1715C239.043 73.4483 239.164 69.2906 237.252 66.8416C235.299 64.3411 230.539 63.9915 229.564 62.3028C230.574 59.8577 235.505 59.0989 237.306 57.2677C239.288 55.2518 238.802 52.0722 240.996 49.7962Z" fill="black"/>
<path d="M241.401 57.1187C243.735 59.6571 243.573 60.2498 246.899 61.9283C244.211 63.48 243.325 64.0858 241.474 66.5994C241.271 66.5761 237.629 62.7742 237.139 62.2199C237.115 61.2058 238.245 60.8056 239.013 60.0651C239.957 59.1549 240.641 58.1725 241.401 57.1187Z" fill="black"/>
<path d="M545.004 166.551L546.079 167.028C547.366 168.466 547.21 172.437 547.285 174.415C548.758 173.06 552.415 169.888 554.382 171.734C554.457 174.219 550.763 175.943 548.925 177.028C550.766 178.134 554.672 180.081 554.304 182.602L553.657 182.901C551.018 182.805 549.536 181.451 547.279 179.992C547.222 182.777 547.318 184.963 546.243 187.574C543.029 188.312 543.633 182.287 543.547 180.194C541.652 181.266 538.704 183.747 536.641 182.669C536.183 181.948 536.127 181.852 536.219 181.012C536.821 180.311 540.604 177.832 541.751 176.977C540.063 175.876 536.18 173.887 536.626 171.543L537.192 171.264C539.799 171.302 541.257 172.592 543.508 173.991C543.562 171.424 543.214 168.298 545.004 166.551Z" fill="black"/>
<path d="M70.3867 246.844C74.0826 246.116 77.6759 248.499 78.4428 252.188C79.2096 255.876 76.8639 259.494 73.1838 260.299C70.7689 260.828 68.2564 260.018 66.6039 258.179C64.9517 256.341 64.4144 253.756 65.1968 251.411C65.9795 249.066 67.9613 247.322 70.3867 246.844Z" fill="black"/>
<path d="M71.1526 250.138C73.0901 249.8 74.9375 251.087 75.2936 253.021C75.6498 254.955 74.3816 256.815 72.4513 257.19C70.4938 257.571 68.6018 256.281 68.2406 254.32C67.8796 252.359 69.1879 250.48 71.1526 250.138Z" fill="black"/>
<path d="M269.173 37.5633C271.96 36.7716 274.858 38.405 275.624 41.1988C276.39 43.9929 274.73 46.8753 271.929 47.6155C269.164 48.3461 266.327 46.7124 265.571 43.9545C264.815 41.1967 266.422 38.3448 269.173 37.5633Z" fill="black"/>
<path d="M269.655 40.7893C270.662 40.2939 271.88 40.7076 272.377 41.7136C272.874 42.7196 272.463 43.9384 271.458 44.437C270.45 44.9375 269.228 44.5247 268.729 43.516C268.231 42.5074 268.646 41.2859 269.655 40.7893Z" fill="black"/>
<path d="M114.946 66.9083C116.221 66.5354 117.598 66.8796 118.548 67.8087C119.499 68.7377 119.874 70.1071 119.529 71.3906C119.185 72.6743 118.175 73.6719 116.888 74.0009C114.943 74.4974 112.96 73.3442 112.43 71.4091C111.901 69.4738 113.02 67.4713 114.946 66.9083Z" fill="black"/>
<path d="M522.325 217.809C524.151 217.021 526.267 217.866 527.045 219.694C527.827 221.521 526.97 223.634 525.139 224.404C523.319 225.169 521.224 224.32 520.451 222.505C519.676 220.69 520.514 218.591 522.325 217.809Z" fill="black"/>
<path d="M83.7595 126.206C87.8461 128.054 83.488 131.033 81.5356 132.559C81.1123 132.43 80.6068 132.201 80.1883 132.028C78.5493 129.813 82.1147 127.472 83.7595 126.206Z" fill="black"/>
<path d="M90.5854 126.259C92.4164 126.781 94.8336 128.829 95.2099 130.799C95.3263 131.407 94.643 132.03 94.2667 132.507C92.2993 132.325 89.7007 129.842 89.4438 127.797C89.7836 126.692 89.5468 127.101 90.5854 126.259Z" fill="black"/>
<path d="M80.7666 116.627C82.652 117.212 84.6365 119.001 85.2196 120.937C85.0232 122.239 85.0932 121.849 84.1172 122.952C82.1001 122.263 80.2003 120.638 79.6613 118.521C79.9211 117.26 79.8097 117.653 80.7666 116.627Z" fill="black"/>
<path d="M93.15 116.664C97.0872 118.474 93.085 121.462 90.9817 122.855C87.2115 120.819 91.1236 118.114 93.15 116.664Z" fill="black"/>
</svg>
