<svg width="566" height="340" viewBox="0 0 566 340" fill="none" xmlns="http://www.w3.org/2000/svg">
<path d="M255.986 47.0723C259.223 46.7912 264.387 46.9385 267.793 46.9388L289.221 46.9493L356.279 46.9501L445.849 46.9479L474.205 46.9341C479.409 46.9275 484.682 46.8619 489.883 46.9946C492.542 47.0513 494.587 47.7443 496.773 49.2312C502.85 53.3667 502.173 59.4787 502.17 65.8895L502.145 79.9586V129.437L502.126 226.626L502.143 259.007C502.143 264.608 502.093 270.317 502.098 275.906C502.107 282.996 498.265 287.767 491.262 288.842C475.857 289.235 458.839 288.862 443.315 288.862H348.82L287.615 288.867L268.43 288.906C262.735 288.92 253.897 289.788 249.251 286.407C246.683 284.569 244.972 281.769 244.51 278.642C244.109 275.948 244.248 271.23 244.256 268.4L244.251 253.25L244.253 196.578L244.246 104.018L244.205 75.1433C244.196 69.9797 244.012 64.631 244.274 59.4887C244.652 52.0728 248.978 48.0602 255.986 47.0723Z" fill="black"/>
<path d="M255.474 50.1102C266.416 49.5662 281.303 50.0096 292.438 50.0137L361.334 50.0032L446.123 49.9974C460.707 49.993 475.291 49.9009 489.872 50.0378C496.129 50.0966 499.017 54.9465 499.072 60.7198C499.136 67.4032 499.125 74.0805 499.127 80.7622L499.133 126.487L499.127 227.824L499.133 257.936C499.15 263.86 499.232 269.809 499.158 275.729C499.133 277.802 498.992 279.638 497.914 281.445C496.322 284.116 494.169 285.329 491.273 286.106L341.291 286.1L285.946 286.103C276.215 286.1 266.477 286.167 256.751 285.995C253.724 286.482 247.933 282.526 247.56 279.38C246.913 273.92 247.167 265.766 247.169 260.161L247.155 219.656L247.15 115.532C247.147 97.5905 247.029 79.646 247.182 61.7064C247.21 58.485 247.411 55.8927 249.604 53.3476C251.337 51.3358 252.981 50.7302 255.474 50.1102Z" fill="white"/>
<path d="M450.155 110.922C450.672 110.884 451.189 110.856 451.706 110.836C458.347 110.593 465.723 110.762 472.394 110.953C474.885 111.024 476.861 112.706 476.93 115.35C477.068 120.753 477.007 126.234 477.004 131.671L477.001 164.291L476.993 267.045C479.389 267.028 484.942 266.247 486.21 268.247C486.138 269.155 486.29 268.898 485.768 269.475C483.866 270.214 445.753 269.812 440.565 269.812L352.658 269.836L291.299 269.819L271.104 269.82C268.038 269.821 264.921 269.847 261.853 269.846C260.888 269.845 260.69 269.626 260.121 269.083C259.968 268.331 259.979 268.243 260.291 267.541C261.938 266.672 266.747 267.024 268.846 267.069C268.896 259.022 268.904 250.976 268.87 242.929C268.87 238.95 268.813 235.067 269.004 231.065C269.236 226.197 271.459 225.955 275.872 225.794C279.059 225.677 282.348 225.932 285.556 225.876C288.867 225.818 292.325 225.655 295.6 226.051C297.603 226.343 299.314 227.81 299.449 229.903C299.706 233.866 299.582 237.908 299.574 241.887C299.524 250.283 299.527 258.678 299.576 267.073L313 267.084C313.19 262.298 313.047 256.332 313.049 251.472L313.083 222.303C313.091 216.949 313.002 211.543 313.199 206.208C313.461 202.234 314.448 200.205 318.787 200.163C325.666 200.097 332.721 200.135 339.583 200.237C342.576 200.282 343.682 202.693 343.787 205.445C343.972 210.265 343.875 215.219 343.864 220.099L343.831 248.02C343.779 254.353 343.798 260.685 343.895 267.017C348.231 267.155 353.206 267.029 357.592 267.02C357.984 246.769 357.406 226.047 357.619 205.741C357.702 197.681 357.5 189.481 357.65 181.415C357.697 180.564 357.937 177.639 358.589 177.079C361.745 174.359 368.207 175.76 372.123 175.591C376.047 175.423 379.607 175.464 383.459 175.643C384.283 175.718 386.475 176.299 386.892 177.06C388.558 180.095 388.113 186.883 388.116 190.07L388.13 205.734C388.138 225.591 387.68 247.355 388.238 267.013L401.929 267.073C402.283 240.895 401.675 214.274 401.962 188.05C402.001 176.752 401.81 165.499 401.993 154.199C402.07 149.42 402.932 147.456 408.125 147.398C412.088 147.059 417.433 147.917 421.233 147.513C435.287 146.021 432.595 152.031 432.556 164.248L432.523 186.641L432.553 267.042L446.269 267.063L446.303 165.236L446.3 132.974C446.292 127.281 446.269 121.541 446.305 115.848C446.314 114.918 446.499 113.663 446.996 112.873C447.825 111.561 448.787 111.279 450.155 110.922Z" fill="black"/>
<path d="M451.363 113.749C454.779 113.737 471.507 113.306 473.475 114.279C474.503 116.629 474.014 145.8 474.014 150.808L474.019 219L474.014 251.699C474.014 254.985 474.243 263.922 473.892 266.626C473.226 267.191 473.135 267.011 472.104 267.043L449.144 267.031C448.809 254.401 449.058 240.867 449.058 228.156L449.088 155.906L449.08 128.068C449.08 125.333 448.906 116.165 449.403 114.188C450.191 113.673 450.349 113.819 451.363 113.749Z" fill="white"/>
<path d="M405.947 150.507C408.728 150.313 428.145 149.875 429.262 150.996C430.083 154.162 429.776 171.894 429.773 175.975L429.759 232.321L429.781 255.536C429.784 257.804 429.931 264.983 429.643 266.857L428.991 267.046L404.839 267.021C404.458 239.85 404.828 211.886 404.803 184.646L404.781 160.956C404.778 158.074 404.726 154.781 404.82 151.868C404.845 151.08 405.414 150.828 405.947 150.507Z" fill="white"/>
<path d="M364.597 178.435C367.745 178.353 382.293 178.055 384.438 178.873C385.217 180.068 385.129 185.573 385.126 187.146C385.057 213.744 385.427 240.415 385.098 267.009L380.729 267.013L360.405 267.027C359.932 238.679 360.698 209.386 360.441 180.97C360.433 179.981 360.43 179.693 360.941 178.913C361.925 178.376 363.431 178.464 364.597 178.435Z" fill="white"/>
<path d="M316.907 203.292C320.213 203.077 338.436 202.568 340.374 203.809C341.349 206.428 340.987 216.9 340.99 220.183L341.007 245.249L341.018 259.567C341.021 261.21 341.112 265.324 340.899 266.759L340.249 267.016L315.982 267.056C315.758 247.147 316.062 227.144 316.015 207.226C316.012 205.775 315.918 204.367 316.907 203.292Z" fill="white"/>
<path d="M272.679 228.968C275.639 228.795 294.768 228.283 296.086 229.349C297.559 234.075 296.056 247.05 296.57 252.567C296.724 254.235 296.705 265.595 296.354 266.797L295.774 267.03L271.721 267.039C271.495 254.875 271.697 242.441 271.802 230.27C271.809 229.502 272.15 229.353 272.679 228.968Z" fill="white"/>
<path d="M465.557 72.82C467.892 72.6627 470.977 72.7003 473.304 72.8827C472.931 77.4241 470.656 88.3964 469.291 93.113C469.189 93.471 468.956 93.4115 468.517 93.5028C467.685 93.2183 467.436 93.3004 467.027 92.6815C466.676 90.1354 468.603 80.9935 469.31 78.1961C461.66 85.1924 450.622 93.4226 442.431 99.9229L402.896 131.547C396.786 136.424 390.711 141.344 384.673 146.306C381.063 149.267 376.288 153.442 372.468 155.781C365.048 153.702 356.588 150.661 349.14 148.27C347.078 149.552 343.701 152.191 341.617 153.736L325.97 165.508C311.582 176.202 297.263 186.986 283.014 197.859C281.392 199.084 278.224 201.893 276.066 201.161L275.939 200.753C276.646 197.913 284.365 193.023 287.112 190.944L306.516 176.246C320.315 165.967 334.203 155.122 348.134 145.032C351.827 145.851 356.666 147.584 360.377 148.77C363.752 149.848 368.599 151.286 371.719 152.657C377.708 148.696 383.987 142.645 389.752 138.171C406.865 124.891 423.475 110.857 440.529 97.5181C445.75 93.4502 450.926 89.3238 456.056 85.1399C459.759 82.1697 463.822 79.0464 467.284 75.8556C464.617 75.8921 454.616 76.9508 453.165 75.0303C453.107 74.1457 453.071 74.478 453.549 73.6224C454.726 72.8656 463.504 72.9192 465.557 72.82Z" fill="black"/>
<path d="M291.479 70.1572C296.108 70.3949 303.028 69.1289 306.809 72.255C309.714 74.6565 309.727 80.0559 307.171 82.7635C305.079 84.9773 303.139 85.1645 300.204 85.2648L295.694 85.1974L295.658 93.9055L291.52 93.9785C291.46 86.0382 291.446 78.0977 291.479 70.1572Z" fill="black"/>
<path d="M295.732 73.7806C300.24 73.6589 307.984 73.7659 303.7 80.8376C301.398 82.1603 298.305 81.7031 295.738 81.4961L295.732 73.7806Z" fill="white"/>
<path d="M320.572 70.2114C323.833 70.1735 326.953 70.139 330.367 70.2017C337.245 70.328 340.263 77.4871 336.162 82.7466C334.476 84.9118 331.845 85.1023 329.222 85.2247L324.671 85.3497L324.607 93.7698C323.222 93.746 321.744 93.8342 320.354 93.8909C320.437 89.2788 320.462 84.6658 320.423 80.0529C320.406 77.2148 320.249 72.8808 320.572 70.2114Z" fill="black"/>
<path d="M324.682 73.7789C328.987 73.6808 337.06 73.9412 332.602 80.7177C330.314 82.0442 327.188 81.6675 324.593 81.5594C324.566 79.0224 324.646 76.3286 324.682 73.7789Z" fill="white"/>
<path d="M346.343 76.0782C355.024 75.3518 358.501 83.0382 355.052 90.4818C354.029 92.6926 351.838 93.5575 349.591 94.1325C338.301 95.6025 335.684 79.2985 346.343 76.0782Z" fill="black"/>
<path d="M346.537 79.5824C353.369 78.6901 354.013 87.8375 349.563 90.654C343.008 91.6994 342.123 82.9857 346.537 79.5824Z" fill="white"/>
<path d="M283.669 69.8946C285.744 70.1763 286.444 70.231 288.563 70.1641C286.283 74.086 283.923 77.9617 281.488 81.7893C283.976 85.4365 286.153 89.8496 288.84 93.7971C287.112 93.8698 285.382 93.9237 283.652 93.9583C282.024 91.1432 280.422 88.3124 278.846 85.4663C277.136 88.2844 275.464 91.128 273.835 93.9956C272.167 93.8662 270.434 93.8154 268.757 93.743C271.237 89.763 273.633 85.732 275.945 81.6522C273.653 78.4911 270.898 73.6244 268.927 70.2332L273.856 70.1218L278.52 78.6812C280.3 76.2617 282.179 72.601 283.669 69.8946Z" fill="black"/>
<path d="M371.15 76.4624L371.634 76.6078L371.755 77.6239C372.438 77.8777 374.599 76.1796 376.282 76.0989C384.371 75.7114 382.313 87.8856 382.299 93.7949L377.99 93.7825C378.076 89.7799 378.098 85.7759 378.051 81.7728C377.957 81.5378 377.432 80.2961 377.249 80.2173C370.968 77.5004 371.446 84.2291 371.57 88.1332C371.631 90.0607 371.595 92.0303 371.609 93.7775C370.282 93.769 368.84 93.858 367.505 93.9135L367.566 76.4829C368.688 76.5362 370.011 76.4818 371.15 76.4624Z" fill="black"/>
<path d="M402.941 76.0895C407.926 76.2214 409.145 77.133 410.789 81.7003C408.869 81.7324 406.953 82.1078 405.693 80.298C404.662 78.8222 400.553 78.8761 400.741 81.3402C402.374 83.5582 406.124 83.5526 408.045 85.0406C413.976 89.635 409.468 93.1205 404.532 94.2743C401.794 94.3193 397.071 93.4729 396.38 89.6702C396.286 89.1585 396.639 88.926 396.982 88.5902C400.755 87.4121 400.392 90.469 403.079 91.2389C404.043 91.5153 406.555 90.2382 406.683 88.8506C405.367 86.8191 400.716 86.6397 398.892 85.1299C393.53 80.6983 398.03 76.8632 402.941 76.0895Z" fill="black"/>
<path d="M386.9 71.9664C388.163 71.8774 389.694 71.8995 390.982 71.884C391.181 73.3842 391.245 74.9518 391.333 76.4668L393.165 76.4082C394.058 76.8599 393.74 76.6006 394.335 77.5322C394.326 78.5041 394.409 78.1196 393.801 79.0605C392.627 79.6794 392.616 79.4541 391.104 79.4215C391.09 81.5948 390.449 89.5242 392.165 90.7087C393.083 90.7245 393.262 90.6675 394.047 91.0744C394.561 91.8876 394.387 92.6431 394.332 93.6468C393.229 94.1358 391.322 94.3456 390.112 94.1764C384.656 93.4129 387.898 81.6489 386.555 79.6855C385.623 79.5755 385.212 79.6302 384.548 78.9925C384.167 78.1038 384.289 77.611 384.38 76.667C385.366 75.5801 385.494 76.7563 386.806 75.8701C386.77 74.3929 386.784 73.4356 386.9 71.9664Z" fill="black"/>
<path d="M359.382 76.5343L363.462 76.4721V93.874L359.297 93.9312C359.233 88.1321 359.261 82.3325 359.382 76.5343Z" fill="black"/>
<path d="M360.383 69.7498C361.165 69.3923 362.082 69.4907 362.771 70.0063C363.459 70.5221 363.813 71.3726 363.688 72.2246C363.567 73.0762 362.989 73.7935 362.185 74.0948C360.996 74.5385 359.673 73.9622 359.186 72.7915C358.703 71.6209 359.23 70.2761 360.383 69.7498Z" fill="black"/>
<path d="M160.447 55.1248C169.401 54.3306 180.239 57.104 188.355 60.8102C189.896 61.4311 192.426 63.6856 193.854 64.1613C202.328 66.9847 208.135 70.1984 213.424 77.7304C218.4 84.5696 220.951 97.0432 218.358 105.226C215.831 113.196 215.543 113.523 215.734 122.165C215.823 125.635 215.747 129.107 215.508 132.569C215.012 139.447 213.584 141.591 212.568 147.569C213.041 148.249 215.206 147.874 216.248 148.554C221.262 151.829 215.809 161.969 213.694 165.76C216.631 167.888 216.81 168.088 218.578 171.196C221.941 172.221 222.591 173.76 223.509 176.99C224.107 177.284 224.675 177.635 225.204 178.039C231.742 182.996 223.715 197.931 219.76 202.682C218.836 203.792 217.973 205.028 217.087 206.177C218.808 206.417 220.42 206.434 221.625 207.699C222.618 209.981 218.813 233.584 217.898 237.806C213.588 257.678 209.523 279.289 191.931 291.482C192.407 297.749 192.916 304.013 193.459 310.276L429.773 310.356L495.007 310.362L515.718 310.414C518.744 310.406 521.853 310.138 524.877 310.318C525.88 310.379 526.035 310.448 526.678 311.141C526.88 312.325 526.947 311.88 526.546 312.9C526.35 313.013 526.153 313.123 525.954 313.237C519.319 313.248 505.169 313.237 499.324 313.237L388.987 313.228L137.858 313.237L61.912 313.234L38.9929 313.242C35.7522 313.245 29.668 313.43 26.7252 313.079L26.363 312.515C26.3698 311.36 26.1944 311.551 26.7691 310.746C29.2573 309.812 87.0855 310.362 93.9651 310.368C93.9065 283.187 96.9933 253.127 101.963 226.393C105.286 208.515 115.632 182.056 132.981 173.325C134.048 168.233 134.746 163.436 135.661 158.336C132.195 163.008 128.675 166.799 122.715 168.04C88.2338 175.219 76.2746 124.718 111.983 116.875C111.279 113.938 110.781 111.251 110.534 108.23C109.557 95.4156 113.713 82.7383 122.085 72.9892C132.483 60.8401 144.906 56.3109 160.447 55.1248Z" fill="black"/>
<path d="M133.373 176.588C134.048 176.688 141.636 182.777 142.908 183.661C149.362 188.146 163.104 195.788 170.939 192.155C174.612 196.916 179.777 206.523 182.029 212.103C180.171 220.327 176.991 229.303 175.012 237.978C172.453 232.434 169.704 226.98 166.772 221.624C161.65 212.226 155.651 201.517 145.035 197.587C143.67 197.082 140.411 195.797 139.772 197.665C139.831 197.941 139.955 198.894 140.261 198.982C155.908 203.507 161.708 219.257 168.838 232.223C170.584 235.398 172.281 238.843 173.9 242.124C173.156 244.542 170.862 251.204 172.272 253.348C173.128 253.812 172.747 253.733 173.712 253.652C174.663 252.889 177.474 240.159 178.069 237.882C181.1 226.286 184.391 214.759 187.938 203.311C194.908 204.433 202.189 206.007 209.132 207.362C212.422 208.005 215.747 209.069 219.064 209.645C216.084 231.136 212.82 258.498 201.521 277.288C196.613 285.454 190.558 290.042 181.276 292.118C180.438 292.259 179.594 292.367 178.748 292.439C158.425 294.153 140.159 270.461 130.255 255.309C128.971 253.344 124.443 245.328 123.463 244.503C122.512 244.446 122.374 244.535 121.508 244.951C120.92 246.613 126.609 255.173 127.823 257.005C136.638 270.311 147.115 284.53 161.807 291.665C171.182 296.22 179.55 296.378 189.248 292.939C189.279 297.948 190.097 305.232 190.549 310.379C159.503 310.144 127.715 310.813 96.7418 310.249C96.7832 294.169 98.2717 276.766 99.9045 260.773C102.629 234.082 108.188 191.886 133.373 176.588Z" fill="white"/>
<path d="M198.183 85.2717C199.673 86.2262 201.878 88.7552 203.05 90.1569C208.613 96.8124 210.862 103.145 212.413 111.527C209.943 110.546 201.879 108.415 201.379 112.665C201.787 113.598 201.522 113.274 202.453 113.854C203.428 114.086 204.241 113.553 205.155 113.114C207.835 113.266 209.784 114.084 212.445 114.578C213.936 135.514 211.428 159.342 188.617 167.254C183.497 163.281 178.755 161.517 175.909 167.947C175.651 168.53 173.059 168.059 172.492 167.932C168.74 167.086 165.124 165.723 161.747 163.885C160.714 163.325 156.747 160.719 156.209 160.667L155.789 161.179C155.536 162.239 155.743 162.92 156.067 163.924C158.444 171.299 163.226 176.987 170.171 180.51C169.729 183.813 169.289 187.037 168.363 190.245C167.96 190.264 167.555 190.273 167.151 190.27C157.176 190.226 142.871 181.025 135.985 174.024C138.374 163.863 139.954 152.604 141.908 142.296C142.184 140.845 144.562 138.413 143.762 137.14C142.183 136.595 140.08 136.875 138.391 136.815C119.808 136.154 128.681 104.347 145.418 121.724C148.004 119.374 152.363 119.261 155.656 118.263C173.926 112.728 188.504 101.63 198.183 85.2717Z" fill="white"/>
<path d="M195.951 122.111L196.839 122.526C197.84 123.881 199.982 131.32 200.32 133.204C201.084 137.475 197.967 138.962 194.292 139.436C193.081 138.847 192.299 138.276 192.768 136.945C193.943 135.854 196.198 135.298 197.779 134.802C196.668 131.835 194.676 126.97 194.812 123.683C194.847 122.83 195.366 122.572 195.951 122.111Z" fill="black"/>
<path d="M178.951 142.191C181.37 142.57 183.779 145.634 186.602 146.882C189.097 147.985 196.031 146.947 197.078 148.642C196.874 149.75 196.932 149.43 196.13 150.365C192.493 151.322 187.436 150.594 184.106 148.93C181.663 147.709 177.03 145.433 178.951 142.191Z" fill="black"/>
<path d="M178.503 110.628C178.97 110.588 179.437 110.553 179.905 110.523C181.717 110.41 183.333 110.349 184.75 111.602C185.192 112.598 185.222 112.271 185.016 113.157C183.371 114.692 179.335 113.164 176.996 113.805C175.346 114.552 172.743 116.522 171.323 114.71C171.542 111.673 176.249 111.048 178.503 110.628Z" fill="black"/>
<path d="M134.406 121.622C138.77 121.93 142.546 125.582 142.441 130.149C142.415 131.282 141.522 131.921 140.708 132.595C139.167 132.117 139.374 128.294 138.032 126.728C136.543 124.99 133.232 125.371 132.926 123.301C133.281 122.373 133.629 122.199 134.406 121.622Z" fill="black"/>
<path d="M205.955 118.824C210.53 118.829 210.928 124.24 207.188 126.878C202.425 126.204 202.336 121.219 205.955 118.824Z" fill="black"/>
<path d="M179.366 119.684C183.991 119.855 184.179 125.434 180.446 127.594C180.284 127.57 180.122 127.544 179.961 127.514C175.913 126.727 175.878 121.927 179.366 119.684Z" fill="black"/>
<path d="M212.859 150.908C214.135 150.771 214.337 150.703 215.101 151.632C215.959 155.077 211.555 163.324 210.001 166.493C209.413 167.69 207.93 170.091 207.704 171.255C208.054 172.187 207.812 171.857 208.68 172.471C211.483 172.572 211.081 168.633 213.25 169.245C214.282 170.132 214.654 170.972 215.321 172.166C214.542 173.509 213.585 174.732 213.768 176.168C214.458 177.051 214.184 176.967 215.086 177.278C216.597 176.744 216.601 175.369 218.224 174.466C218.797 174.476 218.722 174.355 219.176 174.67C222.579 177.026 217.4 180.178 221.016 182.14C222.14 181.928 222.1 181.055 223.452 180.42C225.582 181.859 224.176 186.903 223.727 188.868C222.217 195.48 217.108 200.061 214.28 205.715C210.09 204.503 205.838 203.518 201.541 202.765C198.319 202.281 195.131 201.592 191.996 200.703C191.546 195.948 188.788 193.799 187.519 189.4C186.442 185.67 186.49 182.101 184.862 178.409C183.726 175.831 179.117 170.535 179.206 167.998C179.326 167.775 179.426 167.442 179.659 167.322C186.625 163.719 191.414 181.597 196.678 175.802C201.784 170.178 206.895 154.832 212.859 150.908Z" fill="white"/>
<path d="M175.152 171.158C178.921 171.719 182.387 180.176 183.234 183.572C183.897 186.231 184.033 189.11 185.023 191.795C185.811 193.93 188.754 197.739 188.711 199.817C188.069 200.457 187.172 200.308 186.018 200.461C185.302 201.32 184.492 204.134 184.085 205.343C183.804 206.17 183.753 206.425 183.214 207.103C182.648 206.624 181.761 204.703 181.437 203.972C178.944 198.351 175.052 193.385 172.135 188.087C172.227 185.024 174.249 174.057 175.152 171.158Z" fill="white"/>
<path d="M199.162 165.599C199.232 165.642 199.285 165.87 199.323 165.979C197.908 167.945 195.451 172.914 194.42 173.588C193.539 173.544 193.827 173.567 193.009 172.717C192.326 171.743 191.567 170.778 190.841 169.833C194.149 168.516 196.091 167.401 199.162 165.599Z" fill="white"/>
<path d="M212.745 24.7661C216.067 25.4651 215.069 30.5113 217.601 32.637C219.221 33.997 224.938 35.1806 224.839 37.4423C223.209 38.6893 219.746 39.8787 217.627 41.2495L217.369 41.4195C215.994 43.9747 215.523 46.6154 213.826 49.1027C211.014 48.753 211.245 44.3053 209.55 41.9773C207.804 39.5799 203.188 38.9455 202.191 37.1944C202.587 35.13 206.268 35.1082 208.372 33.092C211.098 30.4798 211.009 28.0166 212.745 24.7661Z" fill="black"/>
<path d="M213.127 31.3972C213.49 31.7226 214.17 32.8247 214.507 33.2633C216.237 35.5159 216.948 35.9026 219.482 36.9558C216.203 38.5527 215.197 39.1061 213.456 42.4293C212.574 42.4069 212.013 40.7972 211.353 39.9882C210.203 38.5803 209.035 37.7992 207.558 36.8242C211.092 35.5267 211.366 34.6836 213.127 31.3972Z" fill="white"/>
<path d="M521.579 204.975C522.923 204.568 524.382 204.925 525.385 205.907C526.388 206.888 526.778 208.338 526.402 209.69C526.026 211.042 524.943 212.083 523.578 212.404C521.555 212.88 519.518 211.664 518.979 209.657C518.44 207.65 519.592 205.578 521.579 204.975Z" fill="black"/>
<path d="M68.9326 168.345C73.6842 167.781 76.6402 171.396 72.273 174.783C67.7282 176.092 65.127 171.951 68.9326 168.345Z" fill="black"/>
<path d="M97.9517 53.9925C99.621 53.8659 101.084 55.1002 101.241 56.7673C101.398 58.4341 100.191 59.9199 98.5274 60.107C97.4238 60.2311 96.3394 59.7499 95.691 58.8485C95.0427 57.9468 94.9316 56.7653 95.4003 55.7586C95.869 54.7516 96.8446 54.0766 97.9517 53.9925Z" fill="black"/>
</svg>
