<svg width="150" height="106" viewBox="0 0 150 106" fill="none" xmlns="http://www.w3.org/2000/svg">
<path d="M74.6478 10.1713C75.5769 9.12313 76.5907 8.15333 77.6788 7.27139C81.7985 3.95728 86.0755 2.98977 91.1119 1.97046C102.363 -0.306317 113.89 -0.413592 125.284 0.653957C127.418 0.942394 129.684 1.11759 131.783 1.60941C134.395 2.2217 137.494 2.32441 139.267 4.53491C139.682 6.42931 139.564 10.1164 139.533 12.2039C139.477 16.1002 139.372 19.9419 139.392 23.8478L139.425 58.9141C139.434 66.8802 139.509 74.8636 139.373 82.8264C139.344 84.4882 139.269 86.1721 137.954 87.3334C137.595 87.6507 136.695 88.3392 136.238 88.34C132.699 88.3453 128.411 87.3685 124.851 87.0901C115.149 86.3312 103.944 86.667 94.3928 88.4849C92.4401 88.8708 90.5116 89.3697 88.6168 89.9792C85.9951 90.8067 83.4083 91.9039 80.7629 92.7039C77.5038 93.6894 77.8213 89.7156 79.2614 89.055C90.7269 83.7953 101.989 82.3988 114.466 82.5566C118.515 82.5773 122.561 82.7825 126.59 83.1715C129.46 83.469 132.55 84.0029 135.442 84.386C135.745 82.0135 135.626 77.0267 135.633 74.5212L135.61 54.7284L135.58 25.4064C135.581 19.4093 135.755 12.3656 135.388 6.48009C128.945 4.90384 121.172 4.30208 114.579 4.11013C105.679 3.85102 96.7681 4.59369 88.1675 6.93217C84.2742 7.78568 77.8947 10.4886 76.8116 14.8587C76.3008 16.9193 76.5302 22.4745 76.5365 24.8832L76.58 42.888L76.5743 77.6735C76.5839 80.854 76.7768 85.5093 76.5902 88.7799C76.5141 89.0494 76.0938 89.4257 75.8451 89.5041C72.6889 90.4997 72.4599 88.8248 72.4373 86.3987C72.3466 76.6522 72.3071 66.9222 72.3221 57.184L72.2584 32.8323L72.2624 22.2997C72.26 20.5608 72.3285 17.7448 72.1341 16.1038C72.0485 15.3799 71.859 14.6721 71.5713 14.0024C69.0545 8.24245 59.127 6.16766 53.5577 5.31517C43.4234 3.83934 33.138 3.71505 22.9711 4.94535C19.8351 5.31022 16.0433 5.72688 13.1848 7.00859C13.0235 10.876 13.1515 15.8428 13.1585 19.7759L13.1866 43.1122L13.1948 67.0202C13.1964 70.5071 12.8287 81.0563 13.8111 83.9447C17.3956 84.003 21.0351 83.1905 24.6125 82.9321C27.2261 82.7435 29.8568 82.6994 32.4761 82.6393C40.5822 82.4531 47.3931 82.7444 55.3333 84.4812C58.1204 85.0909 69.2372 88.2076 70.4851 90.2373C70.7569 90.6793 70.8542 91.1987 70.7164 91.7028C70.4634 92.6287 69.6693 93.1477 68.8935 93.6017C66.961 93.118 65.0904 91.9878 63.2019 91.2954C47.7486 85.6295 30.2986 86.0202 14.1902 88.0788C11.0834 88.4758 9.38269 86.6723 9.30081 83.672C9.10606 76.5465 9.10682 69.4429 9.11355 62.3164L9.10276 33.8521L8.94559 14.9726C8.91347 11.8524 8.69994 8.60859 8.90408 5.49747C8.93975 4.95348 9.12333 4.31389 9.51041 3.9131C11.8533 1.4869 30.6193 0.205431 34.7228 0.100187C45.6669 -0.315457 59.2922 0.58756 69.2514 5.5725C70.8746 6.38513 73.3107 8.83291 74.6478 10.1713Z" fill="#262626"/>
<path d="M146.018 13.2614C148.661 13.6031 148.839 15.477 148.9 17.6615C149.121 25.5035 149.029 33.3511 149.023 41.196C149.053 51.9193 149.026 62.6428 148.939 73.3657C148.892 78.1575 148.876 82.9494 148.888 87.7414C148.933 97.2385 150.555 101.705 138.089 100.488C136.53 100.335 134.628 100.199 133.035 100.101L123.883 99.6238C121.549 99.4814 118.873 99.1525 116.583 99.087C107.375 98.8237 98.2887 98.759 89.2032 100.537C86.8653 100.995 84.8949 101.464 82.6542 102.327C79.9521 103.367 77.8838 105.705 74.979 105.752C70.8697 105.828 67.9454 102.685 64.1365 101.492C57.0669 99.2775 50.0813 99.0137 42.7683 98.9021C31.0082 98.7227 19.411 99.9284 7.69881 100.641C4.18919 100.855 0.450928 99.3253 0.212383 95.385C-0.0817674 91.9997 0.0119247 88.638 0.0223349 85.2055C-0.00711822 79.8744 0.00836958 74.5432 0.0690532 69.2123L0.0966033 19.847C0.0903826 17.861 -0.132801 15.5799 1.33655 14.0234C2.53804 12.7507 3.7512 13.5048 4.78498 14.5005C4.02136 22.197 4.16647 29.0082 4.18195 36.7299L4.18843 62.1048L4.17358 82.2355C4.17294 85.4442 3.99394 93.5262 4.7262 96.3307C7.30729 96.9747 12.7783 96.2991 15.6014 96.0329C31.8398 94.5009 48.5023 93.5345 64.4434 97.7305C67.8328 98.6227 71.1896 100.412 74.6216 101.464C76.5881 100.97 78.6528 99.8685 80.5981 99.1664C93.2453 94.6025 108.562 93.988 121.861 95.1057L133.572 96.0462C137.314 96.3425 140.526 96.6987 144.302 96.4545C144.699 94.3974 144.728 89.8916 144.742 87.7683L144.714 73.4735C144.768 62.5326 144.765 51.5915 144.707 40.6507C144.716 34.5696 144.677 28.4886 144.591 22.408C144.559 20.92 144.5 19.2745 144.338 17.8033C144.076 15.3883 143.08 14.2395 146.018 13.2614Z" fill="#262626"/>
<path d="M104.24 20.5347C104.341 20.5252 104.441 20.5172 104.541 20.5106C107.563 20.3139 111.183 20.7905 113.526 22.8802C116.688 25.7012 116.665 29.6661 113.877 32.7169C115.774 33.9818 117.238 35.2751 118.024 37.5106C118.596 39.1121 118.495 40.8777 117.742 42.4026C116.42 45.1146 113.635 46.6229 110.912 47.5762L110.722 47.6331C107.401 48.6236 100.646 49.7502 97.146 48.9975C96.0452 48.7608 96.5739 43.0333 96.5896 41.7085C96.665 35.2835 95.776 28.3489 96.6224 22.0182C96.7703 20.9119 103.264 20.6039 104.24 20.5347Z" fill="#262626"/>
<path d="M105.297 36.2749C113.387 35.0275 117.94 41.9066 109.025 44.0506C106.327 44.6665 103.432 44.7732 100.678 44.7249C100.621 42.1354 100.598 39.5454 100.609 36.9554C102.156 36.6273 103.721 36.3999 105.297 36.2749Z" fill="white"/>
<path d="M105.332 24.9838C112.779 24.7264 114.371 30.3938 106.845 31.703C104.548 31.9304 102.879 31.9713 100.569 31.935C100.519 29.6782 100.476 27.5943 100.697 25.3457C102.177 25.096 103.826 25.0455 105.332 24.9838Z" fill="white"/>
<path d="M40.9695 19.2326C41.0761 19.228 41.1823 19.2303 41.2889 19.2338C42.5324 19.2753 43.6741 19.6685 44.5297 20.6044C45.5738 21.7467 49.2438 30.7438 50.0196 32.7601C50.7415 34.6367 55.0325 46.8619 54.9257 47.9466C54.8725 48.4875 54.6175 48.8317 54.2101 49.1747C53.739 49.5716 53.1617 49.8986 52.5249 49.8375C49.8152 49.5778 49.1269 45.2096 47.6676 43.4937C46.7819 42.4523 44.7611 42.3934 43.4988 42.271C42.1173 42.1157 37.8183 41.9817 36.5326 42.2784C34.0586 42.8493 34.6277 48.4939 31.8029 49.1983C29.7283 49.7157 28.6327 48.1272 29.2739 46.2925C30.5467 42.5202 31.8449 38.7116 33.1968 34.958C34.9223 30.1668 36.1458 25.1025 38.679 20.6481C39.1444 19.8296 40.0895 19.4098 40.9695 19.2326Z" fill="#262626"/>
<path d="M41.3948 25.6013C42.5004 26.2029 45.9841 36.2206 46.4676 37.8717C45.1372 37.9085 43.7784 37.8681 42.4459 37.8446C40.6431 37.6938 38.9559 37.5718 37.1641 37.3011C38.4472 33.1005 39.7822 29.6653 41.3948 25.6013Z" fill="white"/>
<path d="M28.854 62.6708C31.1411 62.5912 33.5453 62.7057 35.8344 62.7268C41.6732 62.7982 47.5311 62.8066 53.3252 63.6288C54.9208 63.8551 58.9659 63.701 59.3639 65.6595C59.7417 67.5182 59.072 67.9535 57.4694 68.1697C52.3675 68.0874 47.3022 67.355 42.2149 67.1069C39.7998 66.9892 29.3672 67.1922 28.1591 66.4896C27.6558 66.197 27.3377 65.7034 27.198 65.1461C27.0647 64.6143 27.0683 63.9629 27.3701 63.4894C27.7055 62.9633 28.2741 62.7749 28.854 62.6708Z" fill="#262626"/>
<path d="M115.401 62.3075C117.026 62.2758 120.511 61.7775 120.914 63.8821C121.012 64.3988 120.894 64.9331 120.588 65.3607C120.122 66.0209 118.98 66.354 118.214 66.3676C109.751 66.5189 102.053 66.5251 93.6485 67.9823C92.6142 68.1367 91.5513 68.3938 90.5088 68.4552C89.8874 68.4918 89.3275 68.3788 88.857 67.946C88.4472 67.5689 88.2334 67.0073 88.2137 66.4575C88.1929 65.8755 88.3855 65.2913 88.7942 64.8697C90.5989 63.008 111.437 62.3908 115.401 62.3075Z" fill="#262626"/>
</svg>
