<svg width="145" height="102" viewBox="0 0 145 102" fill="none" xmlns="http://www.w3.org/2000/svg">
<path d="M47.0406 85.7543C44.0104 85.9433 38.3629 85.9177 34.9667 85.8399C27.0277 85.6582 12.0005 86.6686 5.59284 81.6971C1.84926 78.7923 0.763512 72.8027 0.49802 68.3879C-0.127394 56.1478 -0.163785 43.8847 0.388981 31.6411C0.639864 24.9072 0.519668 11.1493 4.93834 5.75778C8.08002 1.92442 17.7346 0.485527 22.5089 0.378613C28.9126 0.0493704 35.167 0.062917 41.5184 0.0433935C50.8085 -0.0216846 60.099 -0.0135833 69.3889 0.0678308C77.3975 0.0287839 85.4064 0.0518936 93.4147 0.137292C102.553 0.32323 111.706 0.673722 120.92 1.55175C128.781 2.30081 137.925 2.72209 141.439 11.4113C143.353 16.6888 143.785 24.9512 144.078 30.735C144.709 41.8605 144.486 53.0179 143.411 64.1094C143.073 67.4395 142.553 72.0793 141.475 75.2632C140.796 77.2498 139.722 79.078 138.315 80.6372C136.085 83.1118 133.288 83.9291 130.08 84.4541C125.649 85.1791 121.172 85.4857 116.703 85.9032C116.616 87.7022 116.582 89.5031 116.598 91.3039C116.6 92.5693 116.788 96.9872 116.239 98.0677C112.373 105.616 106.682 98.3047 102.668 95.6109C98.2592 92.6512 93.9932 88.4765 89.2261 86.2712C86.526 85.0223 81.1416 85.4463 78.056 85.4811L62.4403 85.7146C60.3348 85.7311 57.7633 85.8156 55.7042 85.7234C52.9969 85.7809 49.7368 85.8481 47.0406 85.7543Z" fill="#292829"/>
<path d="M34.3962 81.7372C26.8127 80.9117 13.0065 83.0783 7.32694 76.9085C4.40121 73.7303 4.49551 64.0367 4.45553 59.6216C4.41569 56.0425 4.40692 52.463 4.42884 48.8837C4.5072 38.628 4.4048 28.2611 5.56173 18.0625C5.95552 14.5921 6.61785 10.0389 9.56735 7.78504C11.9071 5.99725 14.935 5.4559 17.7896 5.10926C23.2517 4.48026 28.8602 4.57947 34.3577 4.54189C42.2829 4.45609 50.2086 4.42913 58.1344 4.46114C70.8698 4.37215 83.6058 4.45304 96.3391 4.70379C107.049 4.90062 118.071 4.90593 128.584 7.1312C133.221 8.11269 136.969 10.4584 137.963 15.428C139.685 24.0257 139.614 33.0785 139.693 41.8221C139.72 50.5941 139.638 59.1727 138.617 67.8717C138.253 71.1161 137.295 75.7524 134.368 77.7554C129.779 80.8962 123.258 81.4641 117.814 81.828C115.626 81.9742 112.135 81.3063 112.01 84.471C111.855 88.4166 113.574 93.2718 111.008 96.7292C108.495 94.7847 105.92 92.9092 103.435 90.9315C100.89 88.9064 98.3712 86.8789 95.7741 84.9188C94.4942 83.953 93.1401 82.7811 91.6815 82.1092C87.4841 80.1758 67.1382 81.4537 61.2183 81.587C58.4497 81.6492 54.5155 81.394 51.9246 81.7206C51.9036 81.7232 51.8826 81.7263 51.8616 81.7292C50.804 81.6265 47.081 81.7275 45.8245 81.7313L34.3962 81.7372Z" fill="white"/>
<path d="M91.6049 28.1405C92.9532 27.8972 94.64 28.0956 95.9688 28.4898C97.7161 29.0082 99.4178 30.5927 98.6429 32.5704C97.7666 34.8069 94.3136 32.8985 92.6962 32.9301C91.3211 32.957 89.9657 33.5888 88.7464 34.1871C91.112 36.9426 92.5882 39.9857 93.2297 43.5726C93.4494 44.8497 93.0391 46.3847 91.5994 46.6664C89.7018 47.0379 87.6831 47.0522 85.755 47.1311L76.8677 47.4766C75.0568 47.5438 72.9017 47.5652 71.1275 47.7883C71.9372 53.8593 77.1036 57.956 83.3851 56.2909C85.4606 55.7408 89.327 50.9438 91.2625 51.5857C94.5901 52.6896 90.0042 57.8625 88.2789 58.732C84.9312 60.7886 81.3243 61.4414 77.6395 60.7317C73.4478 59.9242 70.7414 58.0732 68.4387 54.6657C67.2659 56.1721 64.5688 57.9626 62.8665 58.8506C58.3272 61.3723 51.5833 62.3803 47.3565 58.5845C44.2248 55.5963 44.7442 49.4184 47.7466 46.5717C52.8491 41.7338 59.8657 41.8416 66.3648 41.7472C66.4461 40.2034 66.4904 38.9545 66.3408 37.4132C65.6706 36.3727 64.772 35.4983 63.7133 34.8571C59.2691 32.1471 54.4835 34.7242 50.2346 35.75C46.4555 34.2478 48.9717 31.9314 51.4348 31.0082C53.7297 30.1481 55.1485 29.6555 57.5741 29.3754C62.4054 28.8175 65.684 30.582 69.2625 33.5278C70.14 32.5794 71.0715 31.4153 71.9106 30.7097C75.704 27.5196 80.5755 28.2393 84.9818 29.3643C85.4676 29.4883 90.321 28.315 91.6049 28.1405Z" fill="#292829"/>
<path d="M77.7751 32.7765C83.9653 32.0652 86.6413 37.1944 87.7062 42.4405C86.0649 42.6744 82.5905 42.6915 80.7906 42.743C77.7527 42.9371 74.0586 43.0048 70.9986 43.0515C70.8982 37.7445 72.2087 34.1892 77.7751 32.7765Z" fill="white"/>
<path d="M59.0578 46.2103C60.6329 45.985 64.3054 46.0811 65.7067 46.5537C68.0014 47.3276 64.3232 51.6058 63.6079 52.3546C61.6384 54.4168 59.6248 55.9039 56.9644 56.8446C53.8844 57.5171 50.4067 57.0788 49.7966 53.2376C49.5906 51.9409 50.456 50.5275 51.25 49.5411C53.3448 46.9395 55.9232 46.4865 59.0578 46.2103Z" fill="white"/>
<path d="M38.4877 17.475C41.2121 17.6538 41.3769 19.5865 40.7807 21.7048C40.0529 24.2905 38.6566 26.633 37.9079 29.1519L30.2128 54.318C29.1111 57.9063 28.2724 61.588 26.9703 65.1163C26.5067 66.3728 26.1451 66.8705 24.9476 67.4676C22.194 67.4153 21.5794 66.1545 22.4733 63.7222C23.8464 59.9858 25.0509 56.2479 26.2676 52.4659C27.5974 48.3325 29.0768 44.3788 30.0875 40.1324C30.9677 36.4341 32.6774 32.885 33.7255 29.2286C34.7248 25.9729 35.4622 22.5754 36.672 19.393C37.0447 18.4128 37.52 17.8647 38.4877 17.475Z" fill="#292829"/>
<path d="M118.057 16.931C120.327 16.8126 120.88 18.4343 120.255 20.3553C116.837 30.8664 113.353 41.3612 109.895 51.8583C108.775 55.2549 107.061 64.4131 104.076 65.9468C101.585 66.0537 101.256 64.4377 101.927 62.4298C102.917 59.4669 103.627 56.3559 104.654 53.4008C105.837 49.9967 107.169 46.6359 108.258 43.198C109.293 39.6825 110.313 36.3612 111.567 32.9112C113.194 28.4358 114.349 23.7267 115.853 19.2085C116.242 18.0404 116.972 17.4193 118.057 16.931Z" fill="#292829"/>
<path d="M34.3963 81.7372L45.8245 81.7313C47.0811 81.7275 50.8041 81.6265 51.8617 81.7292C52.6625 81.8042 58.9987 81.7645 59.1127 81.8787C57.8689 82.0637 55.3124 81.6046 54.7386 82.1796C55.0233 83.6329 53.6571 84.047 55.361 85.2082C55.8778 85.5604 59.2383 85.1002 59.3839 85.4089C58.1798 85.5796 56.6837 85.5421 55.7042 85.7234C52.9969 85.7809 49.7368 85.8481 47.0406 85.7543C45.9961 85.6205 43.8173 85.6821 42.6575 85.6825L34.6639 85.678C34.0115 85.6772 31.6631 85.7108 31.2098 85.6331C32.79 85.6476 34.2419 85.4865 35.8301 85.5982C39.0009 85.8213 40.4005 86.0147 41.6075 82.8816C42.2416 82.5905 44.4358 82.3899 45.641 82.0149C44.4296 82.0169 33.7224 82.1209 32.9689 81.8552C33.4444 81.798 33.9186 81.77 34.3963 81.7372Z" fill="black"/>
</svg>
