<svg width="164" height="164" viewBox="0 0 164 164" fill="none" xmlns="http://www.w3.org/2000/svg">
<path d="M72.4782 41.5354C73.9755 41.2766 76.3173 41.542 76.3261 43.6932C76.3273 44.0044 75.7286 44.9847 75.4321 45.0867C73.1296 45.8798 70.5645 45.9783 68.2905 46.9831C64.1567 48.586 62.9627 51.877 59.8775 54.169C53.4999 53.9397 49.4196 54.1879 45.2939 60.1239C44.4424 61.3493 43.4922 63.7436 42.4867 64.7185C40.7888 66.3652 38.2479 66.6726 36.3327 68.2951C32.2974 71.7138 33.5902 75.1549 33.107 79.2617C29.7389 82.0985 26.2685 82.4574 25.3868 87.7038C24.7672 91.3917 25.2539 94.3915 27.356 97.5094C26.5172 99.4245 25.595 101.394 25.7353 103.574C25.9946 107.6 29.4891 109.352 32.9824 110.098C34.2491 110.369 36.8641 110.197 37.8054 111.061C38.8704 112.147 38.4107 114.177 38.5416 115.533C38.9971 120.255 43.2652 122.536 47.3387 123.643C51.2063 124.695 54.7909 124.189 58.6649 123.894C58.8581 124.011 59.0506 124.131 59.2328 124.265C62.0801 126.363 55.2513 137.427 55.8458 141.032C55.9821 141.858 56.5427 142.236 57.19 142.689C60.8501 139.814 64.6805 132.742 67.8049 128.896C72.9225 122.596 76.3902 120.627 84.5755 120.633C86.8832 120.634 89.4492 120.614 91.7252 120.374C95.3324 119.994 99.0883 118.138 100.751 114.785C101.758 112.753 101.786 111.764 103.301 109.814C104.875 111.69 106.519 113.101 108.991 113.64C111.963 114.288 116.013 113.548 118.539 111.858C119.522 111.21 120.34 110.341 120.928 109.322C121.522 108.303 121.956 107.154 121.532 105.986C118.944 98.86 123.235 101.457 127.645 102.751C132.649 104.053 141.502 103.435 145.881 100.841C155.228 95.3051 152.427 79.4207 146.26 72.5633C143.814 69.8432 140.866 66.8274 137.122 65.8683C135.499 65.4522 133.793 65.4147 132.131 65.0103C131.44 63.1621 131.518 61.1184 130.516 59.3126C128.534 55.7392 124.602 52.4496 120.824 50.9726C119.865 50.6022 118.879 50.304 117.874 50.0805C115.166 49.4883 111.703 50.0708 111.786 46.6218C112.551 44.8407 113.815 45.0036 115.532 45.2783C122.583 46.4058 129.66 49.5298 133.331 55.9781C134.192 57.4918 134.97 59.4902 136.187 60.7353C137.023 61.4628 139.474 62.4939 140.603 63.0229C145.315 65.2305 148.532 68.3742 151.439 72.6682C155.511 78.6825 156.858 86.5675 155.438 93.694C154.484 98.4862 153.332 100.71 149.359 103.702C144.465 107.387 131.899 108.07 126.057 107.007C124.388 112.437 123.383 114.297 117.965 116.502C113.405 118.666 106.017 116.008 102.464 119.608C95.2004 126.967 85.0865 122.313 76.9484 126.02C73.7954 127.456 69.6729 133.45 67.5907 136.303C65.429 139.265 63.6227 143.425 60.1922 145.314C58.1097 146.837 52.8062 145.841 51.8291 143.328C50.4635 139.817 53.9951 132.078 55.2153 128.704C45.9091 128.614 35.506 125.51 33.8258 114.989C23.7675 113.463 20.7077 106.523 21.9409 97.5806C21.8994 97.1774 21.8626 96.6211 21.7902 96.2328C20.3044 88.2567 21.4323 80.8329 29.2024 76.5533C28.2804 72.2612 30.8772 66.6018 34.5742 64.3269C35.9005 63.5109 38.0299 62.7555 39.1616 61.7101C40.4521 60.5179 41.0809 58.1226 42.3411 56.8169C47.7549 50.4499 50.6854 50.3836 58.1982 49.5499C63.5053 45.2951 64.7106 42.5628 72.4782 41.5354Z" fill="#2B2A2B"/>
<path d="M105.12 21.9238C106.652 21.7167 108.02 22.8431 107.755 24.4791C107.212 27.827 105.815 31.0855 104.643 34.268C103.168 38.2748 101.715 42.2897 100.284 46.3129C103.731 47.4013 108.775 47.1932 110.127 51.377C110.748 53.5257 109.248 55.8279 107.935 57.401C104.024 62.0906 99.5792 66.1617 95.7421 70.9249C94.8144 72.0764 92.7963 74.022 91.7982 75.1203C89.6065 77.5318 83.2156 85.8665 80.5149 86.6187C79.9691 86.3831 78.9165 85.976 78.6973 85.4666C77.9213 83.6637 79.5985 79.9715 80.0937 78.3127C81.5553 73.4179 84.0819 68.2085 85.2006 63.3035C81.0573 62.1473 72.7918 62.8326 74.4542 55.4607C75.0379 52.8721 78.4974 49.9112 80.372 47.9413L89.4755 38.387C91.7843 35.9318 94.0319 33.4936 96.3859 31.0554C98.782 28.5736 102.248 23.7033 105.12 21.9238Z" fill="#2B2A2B"/>
<path d="M100.517 32.6325C101.389 33.8229 94.1975 47.5715 96.3021 49.5184C98.5845 51.6297 102.71 49.2027 106.048 52.2817C105.077 55.247 102.377 57.4362 100.29 59.6942L92.7079 67.8681C91.498 69.1817 86.2457 75.6782 84.8751 76.2113L84.7985 75.9932C96.7565 51.5751 84.4319 62.5702 78.4551 56.9412C80.1662 53.0798 85.6358 48.3198 88.5433 44.9166C92.1747 40.6662 96.6073 36.7336 100.517 32.6325Z" fill="white"/>
<path d="M63.1237 89.2263C65.1971 88.9894 66.8318 89.9798 68.4293 91.1981C71.7129 93.702 72.9906 96.9885 73.4727 100.99C75.845 100.54 82.9693 100.104 84.785 102.536C85.814 103.913 84.7294 105.026 83.4923 105.811C81.0757 105.384 78.8877 104.662 76.3976 105.075C72.0737 105.794 67.909 107.479 64.3365 110.012C62.2753 111.609 57.5333 117.596 55.2802 116.057C53.6162 113.876 56.9516 111.108 58.3746 109.558C61.0788 106.612 65.5364 105.101 68.4868 102.518C68.6694 100.094 68.6172 97.8446 67.089 95.82C65.5621 93.7971 63.4115 93.1342 61.463 91.6744C61.9462 90.5469 62.1733 89.9972 63.1237 89.2263Z" fill="#2B2A2B"/>
<path d="M114.509 66.1448C117.162 66.3804 118.984 68.5601 119.961 70.8717C121.19 73.783 120.707 77.0191 120.57 80.0965C122.69 80.3049 133.263 81.0376 131.638 85.5585C130.601 88.4415 127.434 85.3208 125.902 84.8639C121.05 83.4166 114.714 84.436 110.175 86.4925C107.886 87.5673 105.936 89.1796 103.837 90.8404C102.465 91.9261 99.5038 92.9534 99.5969 89.8462C99.6161 89.2072 100.855 87.9453 101.341 87.4176C104.03 84.4954 107.659 82.9933 111.39 81.8861C113.004 81.3917 114.359 80.9353 115.819 80.0278C115.883 79.8222 115.943 79.6153 115.999 79.4074C116.446 77.7403 116.636 75.104 116.167 73.4388C115.489 71.0331 110.386 68.1215 114.509 66.1448Z" fill="#2B2A2B"/>
<path d="M71.0107 9.93259C71.5348 9.93632 72.5426 9.99458 72.7667 10.5024C74.2994 13.9755 69.4656 21.2617 69.0855 24.3577C70.2056 26.245 84.4634 20.5842 78.9116 32.3307C78.0028 34.2533 76.731 39.4796 74.7377 40.0139C74.3349 39.8379 73.6628 39.6065 73.4417 39.2303C71.9722 36.7269 74.6436 31.6855 75.1348 28.5201C69.9976 28.6792 66.1803 31.6176 64.1538 25.9452C65.0611 21.7452 67.4112 16.761 68.6697 12.5706C69.122 11.0646 69.5825 10.5448 71.0107 9.93259Z" fill="#2B2A2B"/>
<path d="M58.7509 68.5836C59.9057 68.6271 61.2861 69.3566 61.3802 70.515C61.6229 73.498 55.8462 73.3836 53.8444 74.776C52.2052 75.9162 51.1421 76.5098 50.1036 78.3017C47.2509 82.9882 46.7424 89.1313 47.5224 94.4783C47.7272 95.8828 49.4015 99.0108 46.7147 99.4764C45.6811 99.6555 44.8977 99.0784 44.1162 98.4631C42.9198 97.0336 42.8429 92.8516 42.6714 90.8852C41.2994 90.5091 39.3062 90.2362 39.0014 88.6154C38.3339 86.3066 42.5065 86.0202 43.0495 84.8056C45.2637 79.8538 46.3441 74.3288 51.4891 71.3562C53.4828 70.2043 56.2988 69 58.7509 68.5836Z" fill="#2B2A2B"/>
<path d="M26.7434 39.7112C29.528 39.392 37.7919 44.6057 32.9805 47.3969C30.9457 47.4998 28.7045 45.4189 27.1397 44.2247C25.1027 42.6703 24.6069 41.5099 26.7434 39.7112Z" fill="#2B2A2B"/>
<path d="M8.93291 66.1306C11.4933 65.896 20.0086 66.891 15.6082 71.1254C14.3556 71.6681 12.3477 71.0043 11.0284 70.816C8.5856 70.4671 6.40453 68.0984 8.93291 66.1306Z" fill="#2B2A2B"/>
<path d="M145.319 50.6414C149.007 50.2678 152.057 55.773 147.759 56.558C146.34 56.0001 143.748 54.5529 143.105 53.1209C142.424 51.6052 144.275 51.0205 145.319 50.6414Z" fill="#2B2A2B"/>
</svg>
