<svg width="129" height="101" viewBox="0 0 129 101" fill="none" xmlns="http://www.w3.org/2000/svg">
<path d="M63.3033 0.0146983C72.0481 -0.151257 80.6337 1.07577 88.7522 4.32415C91.2189 5.28049 93.5377 6.15314 95.8063 7.592C105.986 14.0508 114.724 23.4193 117.724 35.3661C118.258 37.4938 117.287 39.7447 117.563 41.7091C118.213 46.332 119.187 51.2363 120.198 55.7851C124.471 57.1477 127.926 58.163 128.616 63.3564C129.379 70.0485 128.961 77.4282 127.923 84.0778C126.798 91.2897 118.809 93.9707 112.493 92.7418C108.235 100.469 98.3931 101.675 91.8764 95.8037C90.8553 94.8839 90.2181 93.4254 89.9892 92.0802C89.3831 88.5188 89.7136 84.7853 89.6017 81.1808C89.6273 75.645 89.482 70.0985 89.6161 64.5632C89.7995 61.5334 89.4206 57.6242 91.8936 55.4122C94.0088 53.5201 96.9819 53.2982 99.6823 53.388C104.513 53.5489 109.354 55.1733 112.711 58.7259C113.687 57.6839 114.695 56.8402 115.827 55.9775C114.668 50.7281 114.396 48.229 112.773 42.8082C111.714 42.8705 110.654 42.937 109.612 42.9521C103.022 43.2556 100.863 38.0209 97.7109 33.3745C94.4639 28.5879 91.1379 25.6295 86.002 22.9817C78.5299 19.1293 72.9107 18.615 64.7488 18.562C51.9624 18.6922 40.0547 22.1068 32.1556 32.7248C26.2078 40.7194 27.6862 43.6565 16.5165 41.9327C15.1496 45.4723 13.6682 52.4859 13.4755 56.2467C14.4461 57.2499 14.8704 57.6168 15.9912 58.4714C20.4418 56.1181 23.065 54.1314 28.3996 53.7699C32.2718 53.5075 38.0139 54.3409 38.8877 59.0365C39.7655 63.7547 39.6049 68.8498 39.9383 73.6409C40.2218 77.7152 40.5882 81.7897 40.9359 85.86C41.1281 89.1704 41.3319 92.8752 38.8745 95.4591C33.974 100.612 25.3944 102.042 20.2001 96.4795C19.2274 95.4379 18.2937 94.2788 17.2535 93.3574C15.1491 93.2294 13.0931 93.5384 10.9762 93.0098C8.24766 92.3286 4.58874 90.0498 3.21316 87.5551C1.16886 83.8476 0.94975 77.5613 0.545858 73.3502C0.293682 70.7211 -0.388806 66.3948 0.297005 63.9565C1.83395 58.4921 4.65787 57.9759 8.65994 55.5654C9.14562 54.2559 9.78476 50.9814 10.1602 49.4188C10.7471 46.9765 11.6017 44.2483 11.9153 41.8047C12.0398 40.8347 11.7281 38.8098 11.7329 37.6943C11.7642 30.4924 17.036 21.5517 21.8818 16.614C33.5154 4.75984 47.2732 0.423812 63.3033 0.0146983Z" fill="#2A292A"/>
<path d="M61.1702 4.27686C67.4978 3.70907 77.3822 4.86475 83.423 6.80796C85.8486 7.60135 88.1797 8.76509 90.4927 9.826C100.877 14.5889 111.44 25.5727 113.361 37.1472C111.347 38.9714 108.99 39.1295 106.433 39.2339C104.41 37.2969 103.396 34.5696 101.939 32.2298C100.855 30.4895 99.4239 28.6715 98.151 27.0458C96.6653 25.1483 94.9508 23.9947 93.1373 22.5446C86.0638 16.888 77.3492 15.0595 68.4694 14.231C65.9191 14.0942 63.3626 14.1212 60.8158 14.3122C49.291 15.2426 37.1695 19.0282 30.0445 28.5641C27.7531 31.2363 26.6253 34.6588 24.4234 37.3688C23.9735 37.9226 22.9788 38.8072 22.204 38.7776C20.1753 38.7 17.3378 37.5612 15.8289 36.2331C17.8285 26.0306 25.3997 18.0056 33.8414 12.3364C35.7362 11.0639 38.0471 10.2375 40.0341 9.1481C46.7843 5.44773 53.6426 4.83548 61.1702 4.27686Z" fill="white"/>
<path d="M28.4599 57.8999C28.8308 57.8696 29.2025 57.8473 29.5744 57.8333C33.8778 57.6868 34.4221 59.1342 35.0068 63.0917C35.6258 67.2819 35.4804 71.548 35.8495 75.7753C35.9312 79.878 37.0585 84.2727 37.0085 88.3476C36.9365 94.2126 32.2928 95.9413 27.5211 95.9707C26.0387 95.7228 24.5766 95.2495 23.3701 94.3237C22.6809 93.7946 22.0808 93.1164 21.7218 92.3199C20.7369 90.1338 20.298 84.3529 19.9425 81.6469C19.4382 77.8074 17.8223 64.5529 20.1567 61.5943C22.0007 59.2572 25.6261 58.2154 28.4599 57.8999Z" fill="white"/>
<path d="M97.8217 57.3984C99.2267 57.2909 100.673 57.4419 102.055 57.6965C104.631 58.1708 107.808 59.0504 109.345 61.3561C111.539 64.647 109.872 85.3158 108.938 89.8606C108.481 92.0805 107.465 93.1652 105.623 94.3841C103.232 95.6488 99.7342 95.7312 97.328 94.5762C92.7065 92.3411 93.5732 88.1712 93.664 83.9579C93.8165 76.8797 93.7141 69.8425 93.7754 62.7724C93.8043 59.4276 94.5933 58.3094 97.8217 57.3984Z" fill="white"/>
<path d="M10.1899 59.6309C11.6048 59.8631 13.3761 61.2921 14.5153 62.1434C14.1592 65.7378 14.5729 68.9112 14.7213 72.4716C14.9527 78.0247 15.7768 83.6029 15.9173 89.138C13.6055 89.2671 12.6832 89.2451 10.4376 88.7583C6.68742 87.5985 6.11932 85.2566 5.53681 81.5409C5.33447 80.2504 5.00066 78.604 4.93058 77.3021C4.5887 70.955 1.03419 60.9625 10.1899 59.6309Z" fill="white"/>
<path d="M119.931 59.6157C122.287 59.4056 124.318 61.3017 124.417 63.6677C124.704 70.5395 125.496 79.1058 123.103 85.6047C122.52 87.1865 120.162 88.2125 118.691 88.6363C116.826 88.9469 115.695 88.9546 113.845 88.6766C113.804 85.7502 114.385 82.6569 114.489 79.6894C114.691 73.9565 114.793 68.2199 114.86 62.4852C116.088 60.6848 117.868 59.9557 119.931 59.6157Z" fill="white"/>
</svg>
