<svg width="138" height="111" viewBox="0 0 138 111" fill="none" xmlns="http://www.w3.org/2000/svg">
<path d="M11.8844 9.87843C11.9436 9.87359 12.0026 9.86874 12.0618 9.8639C20.1348 9.58554 28.2445 9.89811 36.3081 10.1574C43.9487 10.4031 51.5198 10.4406 59.1714 10.6677C68.5987 10.9474 78.1651 10.3793 87.5833 11.2061C89.8512 11.4051 94.2727 12.1488 96.1743 13.6245C96.4867 13.9049 96.7919 14.4011 96.7601 14.8271C96.637 16.4738 95.5809 16.8534 94.118 16.6739C92.5598 16.4829 91.1291 16.1853 89.6239 15.9381C87.8562 15.6626 86.0763 15.4724 84.2902 15.3678C78.7503 15.0077 73.4812 15.0096 67.9584 14.9551L48.7345 14.83C48.6031 19.9991 49.1603 25.4514 49.0096 30.4983C48.9262 41.15 39.1561 34.3631 33.9341 38.1293C32.5872 39.1008 32.2654 42.8547 33.66 44.0358C37.3681 47.1364 44.0265 42.0191 47.524 46.0738C50.0557 49.0088 49.153 57.0234 49.0237 60.8021C52.0175 60.7947 58.0219 60.8831 60.6955 60.3256C61.8648 56.4594 58.7392 53.2778 60.1656 49.8162C62.041 45.2652 67.4724 43.1561 72.0206 45.1166C77.5988 47.521 79.3889 52.6226 76.8214 58.0775C75.9586 59.9156 74.5521 62.4165 72.632 63.3274C71.2384 63.9884 70.7065 62.4953 70.4514 61.5021C71.1133 59.7945 72.2133 58.4205 73.036 56.67C75.4028 51.6341 72.032 47.0014 66.4989 48.7883C64.9227 49.2973 64.0227 50.7461 63.4101 52.2581C63.8156 53.9275 64.8193 55.6613 65.2674 57.3613C66.0728 60.4166 65.3599 63.2181 62.0817 64.1286C58.7388 64.5604 52.3184 64.6317 48.7261 64.7787C48.6078 68.5483 48.2516 76.4135 49.0669 79.8709C51.8743 78.8295 55.3849 77.7645 58.4006 78.488C60.382 78.9782 62.0828 80.2451 63.1198 82.0031C65.5259 86.0514 64.7925 92.5049 60.4273 94.9409C57.026 96.8387 52.6673 95.8284 49.1616 94.831C49.2235 98.3974 49.2409 102.081 49.4027 105.636C55.9522 105.637 88.9043 104.449 92.1635 106.646C92.4585 106.845 92.626 107.164 92.6801 107.511C92.7931 108.234 92.5201 109.035 92.0851 109.608C91.7289 110.078 91.1335 110.338 90.5572 110.397C88.186 110.638 83.697 109.61 80.9248 109.474C74.6827 109.165 68.3282 109.406 62.0737 109.407C56.7715 109.397 51.4694 109.477 46.1698 109.648C43.0382 109.761 39.8899 110.024 36.7547 110.163C33.3477 110.288 29.9392 110.364 26.5301 110.39C21.6739 110.466 16.677 110.562 11.8283 110.241C9.06309 110.058 6.16289 109.41 3.95051 107.653C1.33761 105.577 0.802072 102.17 0.525372 99.0404C-0.0778258 92.2184 0.000280097 85.1984 0.0116326 78.3467C-0.0190949 69.6088 0.011027 60.871 0.102301 52.1336C0.104118 45.307 0.14514 38.4803 0.225516 31.6541C0.285155 27.2477 0.345701 23.0608 0.783606 18.6658C1.49216 11.5519 5.6761 10.3997 11.8844 9.87843Z" fill="#2A292A"/>
<path d="M13.4511 13.9652C16.9192 13.612 23.8076 14.0163 27.5252 14.1153C33.1188 14.2644 38.9242 14.3662 44.4918 14.6557C44.5141 14.8536 44.5325 15.0518 44.5469 15.2506C44.8926 20.0772 44.907 25.8192 44.7263 30.6555C44.5489 35.4056 39.2677 32.4346 36.4559 32.757C28.7664 33.6387 25.9446 42.4097 31.7552 47.5667C36.2877 51.9369 42.298 46.9778 44.2451 48.6912C45.5175 50.8002 44.884 58.3274 44.7045 60.9191C41.8903 61.1332 36.3315 61.1298 33.9691 61.9681C23.9345 67.2675 37.2073 71.5883 30.2304 76.7945C29.1983 77.5648 27.1205 77.6443 25.8724 77.3632C24.5705 77.0617 23.4383 76.2623 22.7185 75.1363C20.9043 72.2558 23.4975 67.8561 24.2283 64.7819C22.0754 62.2951 19.2067 62.6208 16.1073 62.3035L4.09917 61.1267C3.86213 52.748 3.84321 44.5161 4.0197 36.13C4.11249 30.6048 4.00154 25.1853 4.76201 19.6991C5.50476 14.3409 8.99211 14.2858 13.4511 13.9652Z" fill="white"/>
<path d="M39.197 65.1498C40.7769 65.0192 42.6191 65.0416 44.2226 65.0242C44.5074 69.3149 44.2004 73.6624 44.2793 77.9608C44.307 79.4702 44.4833 81.1012 45.6537 82.1898C48.4544 84.795 52.8693 82.121 56.0476 82.0721C57.048 82.0568 58.0405 82.6497 58.7226 83.3452C59.8693 84.5148 60.3481 86.1074 60.303 87.7213C60.2673 88.9976 59.9296 90.2951 58.9525 91.1789C58.2017 91.858 57.2069 92.1778 56.213 92.2618C51.8434 92.631 49.7748 89.2025 46.7478 89.0642C46.1117 89.0351 45.4964 89.2071 45.0263 89.6494C43.9096 90.6997 45.3179 98.0608 45.4324 99.9115C45.5526 101.855 45.523 103.809 45.4651 105.755C39.8386 105.956 34.1899 105.92 28.5569 105.958C23.07 105.995 17.1812 106.301 11.7361 105.906C9.93616 105.687 7.776 105.373 6.45093 104.017C3.53651 101.034 4.27927 85.6247 4.25686 81.1919L4.20252 65.4283C9.27135 65.219 14.3465 65.6472 19.3088 66.7029C18.1793 71.0942 16.4757 75.8344 20.7155 79.3057C22.7035 80.9085 25.9056 81.7945 28.4011 81.435C34.8674 80.5036 37.9613 74.7117 35.3104 68.71C35.1246 68.2892 34.5913 66.5984 34.5403 66.1711C35.3783 65.2045 37.976 65.2242 39.197 65.1498Z" fill="white"/>
<path d="M120.355 0.0136706C124.494 -0.185831 127.785 1.83568 131.333 3.63029C136.324 6.12179 139.375 10.6203 136.872 16.2068C133.993 22.636 130.542 28.7919 127.417 35.0892L112.653 64.5848L107.31 75.2863C106.463 76.953 104.554 80.7977 103.509 82.1361C101.115 85.2048 95.4031 90.0552 92.0788 92.0101C90.1779 93.1025 85.8223 95.3453 83.8999 95.6989C76.8591 96.6469 78.9779 81.3186 78.4507 77.263C77.6087 70.7839 80.615 68.1731 83.2267 63.1168C90.602 48.5435 98.2668 34.1184 106.216 19.8502C109.27 14.2708 111.81 8.28271 115.514 3.09732C116.74 1.38112 118.26 0.344559 120.355 0.0136706Z" fill="#2A292A"/>
<path d="M118.389 23.8069C121.27 24.9759 123.456 26.1941 126.032 27.9262C123.995 32.343 121.884 36.2372 119.605 40.5247C118.323 43.0902 117.224 45.7417 115.976 48.3239C114.7 50.9657 113.22 53.5027 111.911 56.1271L105.479 69.0822C104.194 71.6156 102.923 74.2801 101.382 76.6563L100.538 77.6833C98.2748 76.1444 96.4813 74.4299 94.7272 72.3467C95.7175 69.4201 97.7475 65.697 99.1338 62.8646C104.124 52.671 109.706 42.7602 114.853 32.644C116.324 29.7529 117.974 27.0793 118.389 23.8069Z" fill="white"/>
<path d="M111.44 19.5702C113.089 20.5371 114.537 21.7479 116.167 22.7053C114.213 25.2389 111.502 30.7624 109.881 33.7819C106.316 40.398 102.865 47.0751 99.5296 53.8103C98.2043 56.4415 91.4725 70.657 89.5306 71.2201C87.7574 70.6139 86.0645 69.7942 84.4892 68.7792C85.8121 67.1842 86.5351 65.1415 87.603 63.4114C90.0986 59.3679 92.0553 55.0847 94.2899 50.9198L107.405 26.6834C108.723 24.2589 110.138 22.0549 111.44 19.5702Z" fill="white"/>
<path d="M120.47 4.86862C121.971 4.80958 123.697 5.18603 125.1 5.70068C128.79 7.05269 131.633 8.28225 133.416 11.9216C132.806 15.0587 130.262 21.1136 128.195 23.508L126.496 23.0263C123.491 21.7409 115.538 17.2494 113.307 15.0882C115.022 12.2897 115.917 9.61534 117.579 6.8818C118.303 5.69266 119.13 5.10717 120.47 4.86862Z" fill="white"/>
<path d="M82.7812 71.6042C83.166 71.7879 84.0265 72.364 84.4167 72.6185C87.3304 74.5186 90.1125 74.9509 93.4903 75.6025C95.0668 77.0045 96.7851 79.5146 98.2435 81.2254C96.609 83.0548 94.9779 84.5376 93.107 86.0885C90.9674 87.8947 86.7469 90.1584 84.1424 91.3959C81.9711 87.9573 82.4968 75.8535 82.7812 71.6042Z" fill="white"/>
<path d="M115.869 95.4102C117.013 95.4019 121.028 95.2103 121.609 95.9282C124.873 99.9655 119.907 100.276 117.66 100.337C115.521 100.375 110.874 101.063 110.687 98.1008C110.647 97.4095 110.891 96.7318 111.361 96.224C112.326 95.1989 114.429 95.4313 115.869 95.4102Z" fill="#2A292A"/>
<path d="M133.076 80.3961C136.713 80.4464 136.944 83.9661 133.587 85.462C133.095 85.3957 132.624 85.2281 132.201 84.97C129.823 83.4987 129.917 80.8904 133.076 80.3961Z" fill="#2A292A"/>
</svg>
