<svg width="130" height="104" viewBox="0 0 130 104" fill="none" xmlns="http://www.w3.org/2000/svg">
<path d="M55.9823 1.99298C60.4369 2.04375 64.9711 3.00127 68.865 5.20722C78.0797 10.4277 76.0575 24.8195 76.1659 33.7005C76.2396 37.5891 76.2643 41.4786 76.2403 45.3679C76.2521 49.2461 76.4086 52.535 75.6929 56.4008C73.8816 66.1841 66.1162 71.5655 56.3079 71.7126C51.3631 71.4884 46.2007 69.5774 42.5118 66.2483C37.9132 62.0983 36.3294 58.2012 36.1539 52.0461C35.9968 46.5426 36.1058 41.0395 36.1008 35.4845C36.0951 29.2102 35.2141 22.0046 36.5918 15.8745C37.1831 13.2438 39.2112 10.2046 41.0485 8.28898C45.5451 3.60099 49.7437 2.25456 55.9823 1.99298Z" fill="#282728"/>
<path d="M54.7666 6.32412C58.9445 5.56383 65.246 7.96199 68.209 10.9736C72.8079 15.6483 72.1296 21.7769 72.0984 27.7881L72.0441 38.1377L57.7355 38.1944C51.8299 38.2469 45.9241 38.2417 40.0186 38.1787L40.0019 28.3108C40.0018 22.6178 39.5155 17.0123 43.2147 12.2536C45.9648 8.7159 50.4323 6.88393 54.7666 6.32412Z" fill="white"/>
<path d="M44.3842 42.3103C45.2611 42.2704 46.2216 42.2653 47.0996 42.2702C55.4099 42.3163 63.7732 42.1124 72.0773 42.398C72.464 45.4148 72.4053 51.9249 72.0003 55.0184C71.467 59.091 68.8135 62.5674 65.4915 64.9326C59.1842 68.9677 49.3571 67.9292 44.2303 62.4067C39.3388 57.1377 39.8411 49.1031 40.042 42.4239L44.3842 42.3103Z" fill="white"/>
<path d="M83.3846 26.1934C86.2551 26.4612 85.5776 30.6197 85.5429 32.7453C85.5114 34.6818 85.502 36.6187 85.5145 38.5554C85.4977 50.0373 86.6301 60.9629 78.9154 70.5347C73.4705 77.2903 66.7555 79.5558 58.4988 80.7049C58.3702 85.0313 58.3577 89.3603 58.4616 93.6873C62.4191 93.6841 67.9936 93.7181 71.78 94.5621C74.2414 95.1106 79.0774 97.4713 79.2107 100.352C79.3182 102.672 77.4083 103.21 75.4498 103.152C69.4606 103.16 63.4552 103.072 57.4664 103.094C52.7945 103.118 48.1226 103.114 43.4507 103.082C41.9527 103.085 35.5473 103.483 34.317 102.635C32.7127 101.063 33.4598 98.8323 34.7658 97.6175C39.9115 92.832 47.9555 93.5592 54.5092 93.5575C54.5872 89.222 54.5759 84.8855 54.4756 80.5505C52.0429 80.4994 49.7898 80.0084 47.4369 79.47C41.617 77.866 36.9735 75.2179 32.9978 70.3177C24.8265 60.2465 27.6362 46.8281 26.8339 34.8778C26.7747 33.5774 26.5354 30.4254 27.9779 29.7424C32.2178 27.735 31.2084 35.2304 31.21 37.4171L31.1866 48.0021C31.1791 54.3424 30.9718 59.2488 34.3958 64.8767C37.9988 70.7987 43.2299 74.5452 49.9791 76.1747C56.539 77.7586 63.9147 76.6648 69.744 73.2858C71.9573 71.9773 73.4612 70.4702 75.1366 68.5988C81.3874 61.6171 81.5006 54.775 81.529 46.0234C81.5289 42.4417 81.5471 38.8602 81.5837 35.2788C81.5885 33.7367 81.5158 32.1692 81.52 30.6278C81.5264 28.2709 81.242 27.468 83.3846 26.1934Z" fill="#282728"/>
<path d="M47.9672 97.2807C50.1506 97.1181 53.3248 97.1174 55.5343 97.1803C60.5228 97.3223 69.5198 96.7292 73.458 100.081C70.3381 99.8951 67.338 99.9436 64.2172 99.9592C55.7863 100.004 46.4795 99.7313 38.1223 100.093C41.6401 97.8227 43.8625 97.5373 47.9672 97.2807Z" fill="white"/>
<path d="M93.6247 42.115C94.8745 42.069 96.1597 42.4266 97.1753 43.1898C100.916 46.0013 104.926 48.5144 108.604 51.3942C109.399 52.0164 110.96 53.6335 111.375 54.5156C112.592 57.0977 110.905 59.5083 108.952 61.1067C106.419 63.2363 103.794 64.7208 101.053 66.4495C98.5661 68.018 96.2427 69.609 93.6651 70.9462C92.2424 71.3772 91.2199 71.1143 90.6749 69.593C89.8585 67.3173 93.9726 66.0951 95.3481 65.0746C98.6605 62.6169 105.458 59.8882 107.322 56.2221C104.087 52.3142 99.76 50.182 95.5993 47.4543C93.9716 46.3872 90.4459 43.7313 93.6247 42.115Z" fill="#282728"/>
<path d="M10.1266 28.5453C11.2427 28.5501 11.3876 28.6655 12.2083 29.4401C12.552 30.9471 12.4131 32.1784 12.9498 33.8055C13.8111 37.5204 17.5628 37.1478 19.535 39.186C21.6426 41.3639 15.7088 42.3528 14.7748 43.0295C12.4305 44.7279 12.5559 47.1603 12.0755 49.7179C11.4219 50.4709 10.9622 51.1894 9.8691 50.7749C8.2476 49.2879 8.48116 47.528 7.51966 45.54C6.65096 43.3963 4.38459 43.0983 2.27001 42.4759C-0.779902 41.5783 -0.628387 39.4477 1.95828 37.8679C3.97957 36.7745 6.24557 36.147 7.48962 34.0476C8.48575 32.3664 8.16776 29.3958 10.1266 28.5453Z" fill="#282728"/>
<path d="M9.80479 36.6336C10.292 36.9841 11.8263 39.0862 12.4737 39.7785C11.9508 40.3564 10.5263 41.9788 9.89865 42.3057C8.74559 41.0979 8.25974 40.7277 6.84814 39.8197C8.61081 38.9492 8.83917 38.3217 9.80479 36.6336Z" fill="white"/>
<path d="M109.608 0.0694065C109.754 0.0562395 110.685 -0.022763 110.782 0.00642155C112.933 0.650382 111.631 5.48321 113.045 7.12569C114.639 9.22508 119.156 8.42271 120.722 10.3048C121.786 12.1353 119.509 12.7246 118.369 12.8459C113.425 13.3712 112.704 15.2922 112.189 19.9157C112.118 20.5548 111.827 20.7324 111.379 21.0131C107.374 22.2448 109.236 17.1807 107.287 14.8459C105.907 13.1928 99.6853 13.2029 100.269 10.849C100.829 8.59184 105.369 8.80374 107.411 7.54147C108.965 5.18241 107.707 1.23774 109.608 0.0694065Z" fill="#282728"/>
<path d="M125.681 27.7509C126.598 27.6889 127.524 27.6347 128.385 28.0579C130.058 28.8794 130.05 31.2533 129.268 32.7006C128.768 33.6258 128.237 33.7967 127.245 34.0816C126.949 34.0981 126.654 34.0981 126.359 34.1066C122.437 34.2212 122.359 29.1462 125.681 27.7509Z" fill="#282728"/>
</svg>
