<svg width="123" height="121" viewBox="0 0 123 121" fill="none" xmlns="http://www.w3.org/2000/svg">
<path d="M59.17 0.147879L59.264 0.142535C68.4337 -0.31686 77.8138 0.459986 87.0153 0.704129L99.1514 0.975157C101.76 1.03411 104.429 0.991858 107.016 1.3569C108.152 1.51722 109.344 1.82966 110.203 2.63322C112.957 5.20874 113.116 18.0262 113.248 21.8779C113.508 29.456 113.977 37.0244 114.197 44.6035C114.389 51.2133 114.687 57.7834 115.005 64.3854C115.33 71.1149 115.659 77.9004 116.626 84.5768C116.831 85.9924 117.135 87.5209 117.789 88.8024C119.18 91.5253 122.42 93.655 122.486 96.9401C122.524 98.8159 121.128 100.465 119.894 101.749C117.355 104.388 114.674 106.905 112.044 109.453C109.23 112.181 104.327 117.483 100.845 119.118C99.9909 119.519 98.9123 119.679 97.9731 119.743C94.563 119.973 90.9992 119.736 87.5699 119.751C79.3024 119.752 71.0348 119.814 62.7682 119.937C48.5039 119.995 34.2688 120.14 20.0095 120.497C17.0041 120.573 11.2728 120.669 8.57119 119.559C6.04944 116.057 4.84727 101.475 4.44482 96.6059C2.92602 78.2214 2.43807 59.786 1.5804 41.3667C1.11917 31.4616 -0.144962 21.5526 0.0136801 11.6253C0.0509194 9.29321 -0.17619 4.73549 1.43378 2.92796C2.19994 2.06779 4.95314 1.86539 6.077 1.77321C8.46081 1.57767 10.8648 1.60522 13.2545 1.54894C19.3103 1.4065 25.3633 1.43839 31.4182 1.33235C40.6566 1.17054 49.9332 0.521941 59.17 0.147879Z" fill="#272627"/>
<path d="M55.7545 4.13801C69.1017 3.66726 83.0429 4.16055 96.3814 4.83119C99.3151 4.97865 104.071 5.00403 106.784 5.63125C108.776 8.83784 108.295 13.4548 108.662 17.1263C109.068 21.1824 109.13 25.4497 109.268 29.5237L110.277 60.7103C110.529 69.2903 110.996 82.2758 113.812 90.5945C114.332 92.1305 116.278 94.0701 117.444 95.169C116.162 95.5178 114.109 95.7239 112.735 95.892C109.906 96.2511 107.074 96.5764 104.238 96.8683C102.089 97.0745 99.8301 97.1433 97.7201 97.6052C96.9458 97.7747 95.7401 98.0776 95.2089 98.7207C93.7327 100.508 95.2273 113.09 95.5771 115.852L66.5916 115.801C58.4691 115.841 50.3468 115.934 42.2255 116.08C32.1704 116.349 22.0323 116.769 11.9718 116.466C10.4313 111.425 9.68804 103.141 9.10607 97.8126C7.80604 86.229 6.87539 74.6069 6.31513 62.964C6.03225 57.2858 6.01805 51.6316 5.72097 45.939C5.25022 36.9184 4.709 27.7928 4.48239 18.7705C4.39706 15.3769 4.19383 9.56091 4.79968 6.29388C7.31257 5.6912 10.9249 5.69504 13.5711 5.63292L24.4635 5.3831L55.7545 4.13801Z" fill="white"/>
<path d="M68.8812 16.2767C70.5578 15.9784 71.5975 16.5591 72.6558 17.833C74.3145 19.8301 75.5466 22.1351 77.042 24.2621C81.258 30.2588 85.2157 36.2546 89.8159 41.9754C90.0383 39.1962 90.1355 36.4084 90.1066 33.6205C90.0994 31.3756 89.6906 20.2698 90.1696 18.7899C90.3155 18.339 90.6027 17.9905 91.0266 17.7769C91.5743 17.5009 92.3253 17.399 92.9054 17.6301C93.2227 17.7566 93.4321 17.9862 93.5692 18.2883C94.3245 19.9527 94.4342 38.7192 94.2948 41.6914C94.2246 43.1841 94.1699 45.1448 93.5587 46.5275C93.0686 47.6358 92.3709 48.1503 91.26 48.5696C91.1431 48.5656 91.0262 48.5594 90.9097 48.5509C88.2241 48.3497 84.853 43.1502 83.2838 41.0286C79.8763 36.4223 76.5737 31.7001 73.4279 26.9114C72.5604 25.5908 71.6802 24.224 70.6584 23.02C69.8015 30.3645 71.2124 38.8569 70.4808 46.012C69.876 46.9939 68.7909 48.2032 67.5234 47.9484C67.2207 47.7776 66.9902 47.5892 66.8129 47.2876C65.7329 45.4514 66.0622 21.7859 66.8135 18.9718C67.1666 17.6493 67.7106 16.9558 68.8812 16.2767Z" fill="#272627"/>
<path d="M69.4711 69.0659C71.9866 68.8849 73.9974 68.8901 76.2314 70.2686C78.0247 71.2998 80.222 74.4518 78.659 76.467C76.3368 79.461 70.2983 79.7214 66.7265 80.3623C71.1528 85.686 72.9069 84.497 78.4825 82.3239C79.1628 82.46 80.0899 83.117 80.2367 83.8003C80.6589 85.765 77.7258 87.3342 76.2618 87.7123C73.5109 88.4101 70.5492 88.2911 68.0096 86.8805C63.3139 84.2726 61.6423 77.2728 64.1358 72.6529C65.2265 70.6321 67.2683 69.6117 69.4711 69.0659Z" fill="#272627"/>
<path d="M69.6751 72.7377C70.9396 72.5936 75.2445 72.6397 74.5384 74.7867C73.5964 75.7197 72.5708 75.6437 71.2118 75.808C69.5955 76.0248 68.051 76.1616 66.43 76.3035C67.3332 74.5254 67.8886 73.7221 69.6751 72.7377Z" fill="white"/>
<path d="M51.0827 99.9915C56.787 99.7996 62.7651 99.8928 68.483 99.9596C70.5627 100.069 72.6943 100.05 74.7545 100.355C77.0432 100.695 77.918 103.716 74.9028 103.795C71.7502 103.878 68.5968 103.744 65.4415 103.752C59.5342 103.821 53.6273 103.93 47.7215 104.079C42.4377 104.184 37.1546 104.325 31.8728 104.502C29.9615 104.554 24.402 105.002 22.7139 104.116C21.0659 102.829 22.1036 101.062 23.8747 101.035C32.9412 100.898 42.0356 100.257 51.0827 99.9915Z" fill="#272627"/>
<path d="M46.2455 59.3349C46.8251 59.3012 47.476 59.2004 47.9406 59.6205C48.8931 60.4819 48.9708 70.2507 49.0686 72.3328C56.0654 69.522 61.0952 70.5041 61.0408 79.465C61.0326 80.8118 61.0378 87.6895 60.0953 88.2263C55.0635 91.0913 57.2046 81.5192 57.3294 79.175C57.3591 78.0037 57.4456 77.0333 56.7362 76.0332C55.438 74.2028 52.8976 74.4846 51.292 75.7909C47.9167 78.5367 49.3705 83.4518 48.9382 87.2854C47.288 88.9809 46.6492 88.799 45.1563 87.082C45.0944 86.4234 45.1139 85.8209 45.1117 85.1626C45.0835 77.1438 45.0608 69.1287 45.163 61.1109C45.1742 60.2304 45.6257 59.8503 46.2455 59.3349Z" fill="#272626"/>
<path d="M95.1007 67.6749C97.483 67.7926 97.3513 69.2369 96.9588 71.1413C95.349 78.9527 93.5983 86.6579 90.3159 93.9673C89.5505 95.6718 88.9709 96.911 87.3765 97.9856C86.644 97.5488 85.8478 97.1081 85.4661 96.3134C84.8245 94.9774 88.2595 88.4896 88.8872 86.7352L87.1894 84.1094C84.9998 80.3768 83.0544 76.5869 81.3145 72.623C80.5979 70.9907 79.6215 67.8995 82.6119 68.2278C83.8995 68.5262 84.7946 70.6116 85.2615 71.6515C86.7668 75.0045 88.4335 78.077 90.397 81.177C91.5753 77.2946 92.2428 72.3089 93.985 68.7029C94.1664 68.3275 94.7478 67.916 95.1007 67.6749Z" fill="#272627"/>
<path d="M32.8585 62.6695C35.51 62.7451 35.4569 63.8224 35.4103 66.1948C35.384 67.5296 35.2485 68.87 35.3689 70.2058C37.23 70.227 41.3462 69.9767 42.4741 71.5955C42.6054 72.2505 42.6247 71.9893 42.4352 72.6007C41.2153 73.8796 37.1526 74.0077 35.0857 74.4214C34.8474 76.1701 34.7764 78.3363 34.8887 79.8221C35.3706 85.43 37.2543 85.8001 42.0239 84.1007C43.109 83.7142 45.1607 85.4906 43.1751 87.4446C40.5094 89.4984 36.352 89.5525 33.762 87.4449C30.5178 84.8051 31.3013 78.6879 30.9279 74.8739C29.3348 74.7764 22.8104 75.1201 24.8297 71.9532C25.6241 70.7076 29.5431 70.8962 30.9874 70.7228C31.3486 68.3824 30.8384 64.045 32.8585 62.6695Z" fill="#272627"/>
<path d="M26.9682 31.8595C32.6356 31.7001 41.8526 31.525 47.4662 31.8632C48.2808 32.3722 49.0366 32.9964 49.1864 33.9843C48.8041 36.5438 40.9475 35.8031 38.8445 35.7839C35.6892 35.8072 19.0605 36.21 17.3171 35.3674C16.8702 35.1515 16.592 34.7697 16.4557 34.2986C16.3031 33.7699 16.423 33.2001 16.688 32.7344C17.6644 31.7608 25.1669 31.9028 26.9682 31.8595Z" fill="#272627"/>
<path d="M21.6161 18.0004L36.7631 17.9122C38.8752 17.9055 43.7541 17.7716 45.6164 18.1562C45.6651 18.1989 45.7136 18.242 45.7617 18.2853C46.5275 18.9759 47.2028 20.0325 46.2042 20.968C45.063 22.0372 43.8055 21.9362 42.336 21.9329L26.9508 21.9886C24.4321 21.9946 21.8524 22.0656 19.3448 21.8961C18.2664 21.8231 16.9079 20.813 16.7446 19.6786C17.1153 17.7544 20.1067 18.0471 21.6161 18.0004Z" fill="#272627"/>
<path d="M23.7596 47.6881C26.7683 47.4783 36.1743 47.3404 38.9674 47.8865C40.8322 49.5671 40.5313 51.1298 38.0984 51.9669C35.3039 52.0477 32.3896 52.0005 29.5856 52.0098C27.3361 52.0174 22.9353 52.5432 21.5675 50.4763C21.2075 49.0686 22.6371 48.1348 23.7596 47.6881Z" fill="#272627"/>
<path d="M115.507 99.8091C115.603 99.8255 115.611 99.8743 115.708 99.9768C115.294 100.441 114.399 101.221 113.87 101.764C111.975 103.739 110.052 105.687 108.103 107.608C106.438 109.249 102.071 113.638 100.212 114.91L99.956 114.854L99.7227 114.244C98.7425 109.708 98.1166 106.694 98.422 101.999C101.795 100.905 111.14 100.581 115.507 99.8091Z" fill="white"/>
</svg>
