<svg width="118" height="97" viewBox="0 0 118 97" fill="none" xmlns="http://www.w3.org/2000/svg">
<path d="M58.9087 84.7398C68.4511 85.2834 68.0891 77.7985 68.3127 70.7393C68.4028 67.4143 68.5258 64.0906 68.6819 60.7683C72.0475 58.0667 76.3529 54.8501 77.6259 50.4731C79.9757 42.394 77.0422 33.8338 68.7816 31.1243C68.7535 25.8699 69.077 13.9104 67.0819 9.61096C66.262 7.84345 65.0182 6.52298 63.1923 5.8842C61.4863 5.28732 59.5987 5.32415 57.8592 5.74601C54.369 6.59259 51.2431 8.67771 48.035 10.2448C44.2493 12.094 40.4093 13.7829 36.6455 15.6942C34.7472 16.582 30.9453 18.4586 28.9175 18.906C22.585 20.2912 15.4487 19.9996 9.49419 22.7786C7.43372 23.9863 6.72252 27.2445 6.69558 29.5205C6.58272 39.5844 6.05059 49.7708 6.79974 59.8102C7.08461 62.4224 7.58469 65.6202 10.3362 66.64C16.605 68.9635 23.7557 68.349 30.0927 70.4438C33.0294 71.2831 35.7383 73.5618 38.4114 74.7573C45.0691 77.7346 51.9039 83.1032 58.9087 84.7398Z" fill="#2D2D2D"/>
<path d="M61.3507 80.656C60.8063 80.8824 60.2965 80.8952 59.7191 80.8582C55.3101 79.8064 47.4197 74.4072 43.1219 72.2861C39.9571 70.724 32.8437 67.5838 30.2597 65.5295C29.5813 61.9559 29.8463 53.3534 29.8253 49.456C29.7874 42.4303 29.8539 35.0247 30.0758 27.989C30.1166 26.6987 30.3614 24.4347 30.7658 23.2002C32.5181 22.0083 40.5292 18.3316 42.8316 17.2782C46.7668 15.5284 50.5465 13.4967 54.4351 11.6499C56.0731 10.8721 57.7677 9.93042 59.5137 9.4594C60.0683 9.30972 60.5052 9.29536 61.0458 9.50856C62.3207 10.0115 63.5287 11.2573 64.0777 12.5349C65.5141 15.8771 65.0498 66.8211 64.6509 73.6083L64.6455 73.7006C64.5717 74.9573 64.4866 76.408 64.0286 77.5753C63.5215 78.8674 62.6445 80.1177 61.3507 80.656Z" fill="#D9D9D9"/>
<path d="M25.6019 65.4524C25.7855 65.4568 25.7034 65.4543 25.9097 65.2911C26.0105 64.1139 25.8729 62.1695 25.8675 60.8995L25.8792 51.0499C25.9088 41.8814 26.1312 32.7478 26.0767 23.5655C21.6791 23.9443 17.2153 24.2173 12.9525 25.4175C12.3494 25.6885 11.484 26.034 11.1158 26.6374C10.0857 28.3264 10.2665 58.9082 10.8858 61.8255C13.2366 64.7915 21.7014 64.7054 25.6019 65.4524Z" fill="#FEF9F7"/>
<path d="M97.6096 90.4356C97.7003 90.4153 97.7995 90.3957 97.8825 90.3516C104.795 86.6806 111.581 75.5396 114.105 68.3894C118.856 54.5637 119.258 39.5513 115.253 25.4776C113.049 17.5857 109.754 10.7513 104.21 4.7394C102.374 2.74838 101.435 0.995236 98.7609 0.00031662C98.2654 -0.00644119 97.2296 0.0920495 96.939 0.536376C95.502 2.73351 99.6353 5.76929 100.944 7.2109C101.884 8.26782 102.749 9.39317 103.532 10.5782C104.638 12.2507 106.833 15.5161 107.662 17.1741C111.297 24.4432 113.336 31.6892 113.933 39.8157C115.07 55.3133 111.675 68.1238 102.319 80.4854C100.62 82.5713 98.5401 84.2824 96.7612 86.2981C95.0481 88.2393 95.985 89.0712 97.6096 90.4356Z" fill="#2D2D2D"/>
<path d="M85.9833 78.715C86.254 78.7277 86.6248 78.6851 86.8676 78.5707C92.8455 75.7537 97.2764 67.6911 99.6564 61.862C104.425 50.1813 103.808 37.2935 98.8736 25.817C96.7703 20.9254 91.7766 13.3982 86.8009 11.3396C81.2416 12.1019 87.3299 16.4188 88.7968 17.9979C103.64 33.9784 101.945 61.5506 84.9077 75.2202C84.2668 75.7345 83.965 76.2198 83.9563 77.0406C84.3659 77.9978 85.0884 78.2583 85.9833 78.715Z" fill="#2D2D2D"/>
<path d="M76.9512 67.0361C80.2573 67.2247 82.3891 63.8235 83.9979 61.353C91.0662 50.4988 89.9388 30.6715 78.5248 23.2558C77.5584 22.9017 76.975 23.2286 76.3508 23.9569C74.997 25.59 78.1676 28.1769 79.2318 29.36C85.9779 36.8595 86.1586 51.1766 80.4089 59.264C79.62 60.3734 78.6089 61.3368 77.8241 62.4033C76.4695 64.2438 74.6013 65.1355 76.9512 67.0361Z" fill="#2D2D2D"/>
</svg>
