<svg width="187" height="148" viewBox="0 0 187 148" fill="none" xmlns="http://www.w3.org/2000/svg">
<path d="M101.525 34.8893C102.298 34.7855 103.563 34.8226 104.378 34.8958C111.042 35.3784 115.748 38.3123 120.129 43.2336C121.6 44.8851 122.003 47.6817 118.697 47.4401C118.234 47.4063 116.355 45.7191 115.893 45.285C113.104 42.6653 110.106 40.2414 106.274 39.3933C97.9371 37.4089 95.0056 43.1028 87.5975 43.6568C80.8823 44.1591 78.8849 40.2746 72.8812 39.4033C69.592 38.9822 65.8597 39.7523 62.9512 41.3682C54.4662 46.0819 48.5802 53.9606 39.6321 58.2484C36.5648 59.7181 31.9083 61.6059 29.3574 63.615C37.7692 64.6196 46.8021 63.9104 55.0137 61.9214C58.1078 61.1718 61.0385 59.8329 64.2105 59.4201C71.7089 58.4444 79.1497 59.7799 86.6477 59.4739C92.2004 59.2473 97.7354 57.6087 103.279 57.7408C106.058 57.8072 109.043 58.4614 111.734 59.1523C114.924 59.9717 126.484 63.8559 128.473 65.9992C129.069 66.6409 129.246 67.2936 129.198 68.1602C129.02 71.41 124.926 74.8227 122.666 76.8908C118.68 80.5402 113.973 83.6712 108.897 85.5548C101.753 88.2058 94.0296 88.6073 86.4953 88.5488C84.1097 88.5302 81.7011 88.5425 79.3263 88.2924C73.5342 87.6826 67.1066 86.2645 61.7887 83.8752C59.1106 82.6719 56.6567 81.033 54.1703 79.4873C52.2851 78.3153 50.3067 77.3102 48.4118 76.1594C46.4956 74.9958 44.6891 73.6365 42.7301 72.5463C38.729 70.3197 32.5907 68.4139 27.9947 68.2068C28.6058 69.9382 29.6283 71.6582 30.5938 73.2099C36.6978 82.1805 42.2059 89.758 51.1782 96.3045C62.4804 104.551 78.4438 109.146 92.428 108.259C99.8515 107.533 107.048 105.318 113.57 101.722C117.614 99.4932 120.437 97.6817 123.886 94.7076C126.054 92.8391 129.059 95.0297 126.761 97.7354C125.315 99.4377 123.093 100.727 121.275 102.032C113.196 107.776 104.099 110.872 94.2931 111.967C87.1128 112.65 80.4957 112.088 73.4878 110.561C69.4106 109.673 67.5152 109.142 63.6429 107.621C57.2246 105.101 51.1892 102.054 45.7654 97.7359C42.094 94.8129 38.7189 90.8623 35.4897 87.4655C34.4329 86.3378 32.5839 83.5037 31.5552 82.0195C28.0473 76.8963 23.6595 71.1212 22.4014 64.9606C21.5907 60.5517 27.8246 59.0517 30.7917 57.6944C38.0441 54.377 43.2088 51.9536 49.0609 46.4164C55.2082 40.5997 63.525 34.4619 72.3658 35.2301C74.5439 35.4194 76.5198 35.7143 78.5665 36.595C80.7702 37.3408 84.583 39.7373 87 39.3231C92.2959 38.4155 95.8258 35.3808 101.525 34.8893Z" fill="black"/>
<path d="M102.751 61.7741C106.088 61.4366 108.996 61.9426 111.59 64.1807C109.057 67.5112 105.052 68.8759 101.19 70.022C91.5195 72.8921 81.2932 72.1883 71.5739 69.9389C69.3811 69.4639 62.8154 67.3809 62.3557 64.6956C62.3009 64.3921 62.3888 64.0804 62.5942 63.8504C65.8107 60.2484 76.8039 63.4206 81.3432 63.5804C85.3301 63.7192 89.3217 63.5394 93.28 63.0426C96.4772 62.6504 99.498 62.0879 102.751 61.7741Z" fill="white"/>
<path d="M58.508 75.8014C62.6874 75.5804 66.6338 76.0608 70.7796 76.3476C83.1201 77.2015 95.5499 76.5273 107.884 75.8355C110.779 75.6732 113.214 75.581 116.036 76.3018C114.479 78.1761 113.247 79.062 111.078 80.071C97.9392 86.3502 79.2271 85.7666 65.6442 80.8366C64.2692 80.3375 57.2001 77.4647 57.1089 76.1304C57.4782 75.8055 57.9968 75.8393 58.508 75.8014Z" fill="white"/>
<path d="M161.053 35.8156C163.502 35.9046 164.848 38.244 166.202 40.1282C176.016 53.7844 177.39 73.9666 170.307 89.0872C168.878 92.1359 165.43 99.0759 162.2 100.024C160.355 99.8954 159.233 98.3571 160.3 96.8534C163.648 92.135 166.34 88.3978 168.153 82.7652C172.059 70.6321 171.053 57.7648 164.949 46.5467C163.231 43.3874 160.66 41.0271 159.026 37.9644C159.69 36.8901 160.019 36.5093 161.053 35.8156Z" fill="black"/>
<path d="M148.019 45.8203C150.937 45.926 154.939 53.0071 155.837 55.464C158.844 63.6883 158.893 73.8208 155.738 81.993C154.542 85.0921 151.317 90.6474 148.14 91.9683C146.721 91.4374 145.182 90.5699 146.082 88.7993C146.696 87.5933 147.782 86.7027 148.627 85.6306C150.473 83.2915 151.846 80.4877 152.809 77.674C154.228 72.5834 154.225 66.2453 153.105 61.1324C152.479 58.2733 150.531 54.2815 148.763 51.9995C147.168 49.9408 143.87 47.7073 148.019 45.8203Z" fill="black"/>
<path d="M135.06 57.0893C135.572 57.0884 136.078 57.1974 136.544 57.409C141.553 59.6525 142.563 72.4567 139.824 76.773C138.37 79.0651 138.019 80.7677 135.124 81.8411C132.314 80.6528 132.288 79.6827 134.234 77.6246C137.541 74.1265 137.939 68.139 136.031 63.8796C135.301 62.249 133.953 60.2872 132.967 58.7215C133.7 57.8183 133.941 57.4776 135.06 57.0893Z" fill="black"/>
<path d="M130.53 108.56C138.785 109.886 121.877 126.292 116.184 127.5C115.793 127.492 115.261 127.49 114.904 127.318C114.428 127.088 113.966 126.399 113.821 125.9C113.664 125.36 113.753 124.819 114.035 124.338C114.533 123.489 119.308 121.004 120.643 119.975C122.996 118.171 125.019 115.974 126.625 113.483C127.702 111.814 128.775 109.047 130.53 108.56Z" fill="black"/>
<path d="M124.397 21.9935C125.711 21.8943 126.809 22.114 127.861 22.9513C132.943 26.9941 136.157 32.7621 137.373 39.0198C136.858 40.1337 136.616 40.3962 135.575 41.044C133.66 41.3247 132.627 39.7399 132.396 38.059C131.753 33.3665 129.027 29.942 125.494 26.9594C123.872 25.59 121.302 23.6212 124.397 21.9935Z" fill="black"/>
</svg>
